{
.appVersion = "3134";
.formatVersion = 3;
classes = (
{
code = "A Aacute Abreve Acircumflex Adieresis Agrave Amacron Aogonek Aring Atilde AE B C Cacute Ccaron Ccedilla Cdotaccent D Eth Dcaron Dcroat E Eacute Ecaron Ecircumflex Edieresis Edotaccent Egrave Emacron Eogonek F G Gbreve Gdotaccent H Hbar I Iacute Icircumflex Idieresis Idotaccent Igrave Imacron Iogonek J K L Lacute Lcaron Ldot Lslash M N Nacute Ncaron Ntilde Eng O Oacute Ocircumflex Odieresis Ograve Ohungarumlaut Omacron Oslash Otilde OE P Thorn Q R Racute Rcaron S Sacute Scaron Scedilla T Tbar Tcaron U Uacute Ucircumflex Udieresis Ugrave Uhungarumlaut Umacron Uogonek Uring V W Wacute Wcircumflex Wdieresis Wgrave X Y Yacute Ycircumflex Ydieresis Ygrave Z Zacute Zcaron Zdotaccent A_E A_O C_H C_Q D_E E_A Eacute_E E_S E_U E_T_E F_F_E F_V I_E I_L L_E L_L_E L_U M_P N_A N_E N_N_E O_F O_T_E O_Idieresis P_M R_E R_I_C_E R_S S_E S_L S_S_E S_T_E_S T_E T_T_E U_E U_L_L_E X_C_E X_L X_S_E X_S_S 
";
name = Uppercase;
}
);
customParameters = (
{
name = panose;
value = (
0,
0,
7,
0,
0,
0,
0,
0,
0,
0
);
},
{
name = unicodeRanges;
value = (
0,
1,
2
);
},
{
name = codePageRanges;
value = (
"1252",
"1250",
"1254",
"1257",
"bit 29"
);
},
{
name = blueScale;
value = 0.037;
},
{
name = glyphOrder;
value = (
.notdef,
A,
Aacute,
Abreve,
Acircumflex,
Adieresis,
Agrave,
Amacron,
Aogonek,
Aring,
Atilde,
AE,
B,
C,
Cacute,
Ccaron,
Ccedilla,
Cdotaccent,
D,
Eth,
Dcaron,
Dcroat,
E,
Eacute,
Ecaron,
Ecircumflex,
Edieresis,
Edotaccent,
Egrave,
Emacron,
Eogonek,
F,
G,
Gbreve,
Gcommaaccent,
Gdotaccent,
H,
Hbar,
I,
IJ,
Iacute,
Icircumflex,
Idieresis,
Idotaccent,
Igrave,
Imacron,
Iogonek,
J,
K,
Kcommaaccent,
L,
Lacute,
Lcaron,
Lcommaaccent,
Ldot,
Lslash,
M,
N,
Nacute,
Ncaron,
Ncommaaccent,
Eng,
Ntilde,
O,
Oacute,
Ocircumflex,
Odieresis,
Ograve,
Ohungarumlaut,
Omacron,
Oslash,
Otilde,
OE,
P,
Thorn,
Q,
R,
Racute,
Rcaron,
Rcommaaccent,
S,
Sacute,
Scaron,
Scedilla,
Scommaaccent,
T,
Tbar,
Tcaron,
Tcedilla,
uni021A,
U,
Uacute,
Ucircumflex,
Udieresis,

glyphs = (
{
glyphname = .notdef;
lastChange = "2022-11-29 13:44:05 +0000";
layers = (
{
hints = (
{
horizontal = 1;
place = (-56, -6);
place = (-56, -6);
type = Stem;
},
{
horizontal = 1;
place = (594, -6);
place = (594, -6);
type = Stem;
},
{
place = (-56, -6);
place = (-56, -6);
type = Stem;
},
{
place = (394, -6);
place = (394, -6);
type = Stem;
}
);
layerId = m01;
shapes = (
{
closed = 1;
nodes = (
(-43,63,ls),
(-51,24,o),
(-31,0,o),
(9,0,cs),
(392,0,ls),
(427,0,o),
(448,16,o),
(455,51,cs),
(579,637,ls),
(587,676,o),
(567,700,o),
(527,700,cs),
(144,700,ls),
(109,700,o),
(88,684,o),
(81,649,cs)
);
},
{
closed = 1;
nodes = (
(278,395,l),
(162,650,l),
(502,650,l)
);
},
{
closed = 1;
nodes = (
(298,350,l),
(522,605,l),
(414,95,l)
);
},
{
closed = 1;
nodes = (
(34,50,l),
(259,305,l),
(374,50,l)
);
},
{
closed = 1;
nodes = (
(122,605,l),
(238,350,l),
(14,95,l)
);
}
);
width = 500;
}
);
note = ".notdef";
},
{
glyphname = A;
kernLeft = A;
kernRight = A;
lastChange = "2022-11-29 13:44:05 +0000";
layers = (
{
hints = (
{
horizontal = 1;
place = (-56, 21);
target = up;
type = BottomGhost;
},
{
horizontal = 1;
place = (172, 31);
place = (172, 31);
type = Stem;
},
{
horizontal = 1;
place = (634, -20);
target = down;
type = TopGhost;
},
{
place = (-33, 575);
place = (-33, 575);
type = Stem;
},
{
horizontal = 1;
place = (543, 35);
place = (543, 35);
type = Stem;
}
);
layerId = m01;
shapes = (
{
closed = 1;
nodes = (
(452,228,l),
(474,46,ls),
(477,17,o),
(502,-5,o),
(532,-5,cs),
(567,-5,o),
(595,26,o),
(590,61,cs),
(510,636,ls),
(505,671,o),
(485,690,o),
(449,690,cs),
(407,690,ls),
(375,690,o),
(354,677,o),
(338,650,cs),
(7,70,ls),
(3,62,o),
(0,54,o),
(0,45,cs),
(0,17,o),
(23,-5,o),
(51,-5,cs),
(70,-5,o),
(87,6,o),
(95,21,cs),
(207,228,l)
);
},
{
closed = 1;
nodes = (
(255,315,l),
(411,599,l),
(442,315,l)
);
}
);
width = 656;
}
);
note = A;
unicode = 65;
},
{
glyphname = Aacute;
kernLeft = A;
kernRight = A;
lastChange = "2022-11-29 13:44:05 +0000";
layers = (
{
hints = (
{
horizontal = 1;
place = (-56, 21);
target = up;
type = BottomGhost;
},
{
horizontal = 1;
place = (172, 31);
place = (172, 31);
type = Stem;
},
{
horizontal = 1;
place = (634, -20);
target = down;
type = TopGhost;
},
{
horizontal = 1;
place = (680, 46);
place = (680, 46);
type = Stem;
},
{
place = (-33, 575);
place = (-33, 575);
type = Stem;
},
{
horizontal = 1;
place = (543, 35);
place = (543, 35);
type = Stem;
}
);
layerId = m01;
shapes = (
{
closed = 1;
nodes = (
(471,737,cs),
(529,787,ls),
(536,793,o),
(541,802,o),
(541,811,cs),
(541,829,o),
(526,844,o),
(509,844,cs),
(499,844,o),
(490,839,o),
(484,832,cs),
(434,773,ls),
(431,769,o),
(428,762,o),
(428,756,cs),
(428,742,o),
(440,731,o),
(454,731,cs),
(460,731,o),
(467,733,o)
);
},
{
closed = 1;
nodes = (
(452,228,l),
(474,46,ls),
(477,17,o),
(502,-5,o),
(532,-5,cs),
(567,-5,o),
(595,26,o),
(590,61,cs),
(510,636,ls),
(505,671,o),
(485,690,o),
(449,690,cs),
(407,690,ls),
(375,690,o),
(354,677,o),
(338,650,cs),
(7,70,ls),
(3,62,o),
(0,54,o),
(0,45,cs),
(0,17,o),
(23,-5,o),
(51,-5,cs),
(70,-5,o),
(87,6,o),
(95,21,cs),
(207,228,l)
);
},
{
closed = 1;
nodes = (
(255,315,l),
(411,599,l),
(442,315,l)
);
}
);
width = 656;
}
);
note = Aacute;
unicode = 193;
},
{
glyphname = Abreve;
kernLeft = A;
kernRight = A;
lastChange = "2022-11-29 13:44:05 +0000";
layers = (
{
hints = (
{
horizontal = 1;
place = (-56, 21);
target = up;
type = BottomGhost;
},
{
horizontal = 1;
place = (172, 31);
place = (172, 31);
type = Stem;
},
{
horizontal = 1;
place = (634, -20);
target = down;
type = TopGhost;
},
{
horizontal = 1;
place = (668, 6);
place = (668, 6);
type = Stem;
},
{
place = (176, 6);
place = (176, 6);
type = Stem;
},
{
place = (334, 6);
place = (334, 6);
type = Stem;
},
{
horizontal = 1;
place = (543, 35);
place = (543, 35);
type = Stem;
}
);
layerId = m01;
shapes = (
{
closed = 1;
nodes = (
(498,724,o),
(539,749,o),
(562,802,c),
(563,806,o),
(564,810,o),
(564,814,cs),
(564,830,o),
(551,844,o),
(534,844,cs),
(521,844,o),
(510,836,o),
(506,825,cs),
(496,798,o),
(477,786,o),
(453,786,cs),
(432,786,o),
(418,795,o),
(415,816,cs),
(413,832,o),
(399,844,o),
(382,844,cs),
(365,844,o),
(351,831,o),
(350,813,cs),
(346,752,o),
(378,724,o),
(440,724,cs)
);
},
{
closed = 1;
nodes = (
(452,228,l),
(474,46,ls),
(477,17,o),
(502,-5,o),
(532,-5,cs),
(567,-5,o),
(595,26,o),
(590,61,cs),
(510,636,ls),
(505,671,o),
(485,690,o),
(449,690,cs),
(407,690,ls),
(375,690,o),
(354,677,o),
(338,650,cs),
(7,70,ls),
(3,62,o),
(0,54,o),
(0,45,cs),
(0,17,o),
(23,-5,o),
(51,-5,cs),
(70,-5,o),
(87,6,o),
(95,21,cs),
(207,228,l)
);
},
{
closed = 1;
nodes = (
(255,315,l),
(411,599,l),
(442,315,l)
);
}
);
width = 656;
}
);
note = Abreve;
unicode = 258;
},
{
glyphname = Acircumflex;
kernLeft = A;
kernRight = A;
lastChange = "2022-11-29 13:44:05 +0000";
layers = (
{
hints = (
{
horizontal = 1;
place = (-56, 21);
target = up;
type = BottomGhost;
},
{
horizontal = 1;
place = (172, 31);
place = (172, 31);
type = Stem;
},
{
horizontal = 1;
place = (634, -20);
target = down;
type = TopGhost;
},
{
horizontal = 1;
place = (680, 46);
place = (680, 46);
type = Stem;
},
{
place = (-33, 575);
place = (-33, 575);
type = Stem;
},
{
horizontal = 1;
place = (543, 35);
place = (543, 35);
type = Stem;
}
);
layerId = m01;
shapes = (
{
closed = 1;
nodes = (
(415,742,cs),
(455,796,l),
(464,766,ls),
(470,745,o),
(475,736,o),
(477,736,cs),
(505,736,o),
(528,759,o),
(528,787,cs),
(528,815,o),
(505,838,o),
(477,838,cs),
(461,838,ls),
(426,838,o),
(395,819,o),
(378,792,cs),
(364,769,o),
(359,741,o),
(384,732,cs),
(387,731,o),
(390,731,o),
(393,731,cs),
(402,731,o),
(410,735,o)
);
},
{
closed = 1;
nodes = (
(452,228,l),
(474,46,ls),
(477,17,o),
(502,-5,o),
(532,-5,cs),
(567,-5,o),
(595,26,o),
(590,61,cs),
(510,636,ls),
(505,671,o),
(485,690,o),
(449,690,cs),
(407,690,ls),
(375,690,o),
(354,677,o),
(338,650,cs),
(7,70,ls),
(3,62,o),
(0,54,o),
(0,45,cs),
(0,17,o),
(23,-5,o),
(51,-5,cs),
(70,-5,o),
(87,6,o),
(95,21,cs),
(207,228,l)
);
},
{
closed = 1;
nodes = (
(255,315,l),
(411,599,l),
(442,315,l)
);
}
);
width = 656;
}
);
note = Acircumflex;
unicode = 194;
},
{
glyphname = Adieresis;
kernLeft = A;
kernRight = A;
lastChange = "2022-11-29 13:44:05 +0000";
layers = (
{
hints = (
{
horizontal = 1;
place = (-56, 21);
target = up;
type = BottomGhost;
},
{
horizontal = 1;
place = (172, 31);
place = (172, 31);
type = Stem;
},
{
horizontal = 1;
place = (634, -20);
target = down;
type = TopGhost;
},
{
horizontal = 1;
place = (677, 50);
place = (677, 50);
type = Stem;
},
{
place = (155, 51);
place = (155, 51);
type = Stem;
},
{
place = (310, 51);
place = (310, 51);
type = Stem;
},
{
horizontal = 1;
place = (543, 35);
place = (543, 35);
type = Stem;
}
);
layerId = m01;
shapes = (
{
closed = 1;
nodes = (
(452,228,l),
(474,46,ls),
(477,17,o),
(502,-5,o),
(532,-5,cs),
(567,-5,o),
(595,26,o),
(590,61,cs),
(510,636,ls),
(505,671,o),
(485,690,o),
(449,690,cs),
(407,690,ls),
(375,690,o),
(354,677,o),
(338,650,cs),
(7,70,ls),
(3,62,o),
(0,54,o),
(0,45,cs),
(0,17,o),
(23,-5,o),
(51,-5,cs),
(70,-5,o),
(87,6,o),
(95,21,cs),
(207,228,l)
);
},
{
closed = 1;
nodes = (
(255,315,l),
(411,599,l),
(442,315,l)
);
},
{
closed = 1;
nodes = (
(370,733,cs),
(383,733,ls),
(413,733,o),
(437,760,o),
(433,791,cs),
(429,820,o),
(406,844,o),
(376,844,cs),
(367,844,o),
(359,842,o),
(352,838,cs),
(332,828,o),
(317,809,o),
(317,786,cs),
(317,757,o),
(341,733,o)
);
},
{
closed = 1;
nodes = (
(525,733,cs),
(538,733,ls),
(568,733,o),
(592,760,o),
(588,791,cs),
(584,820,o),
(561,844,o),
(531,844,cs),
(522,844,o),
(514,842,o),
(507,838,cs),
(487,828,o),
(472,809,o),
(472,786,cs),
(472,757,o),
(496,733,o)
);
}
);
width = 656;
}
);
note = Adieresis;
unicode = 196;
},
{
glyphname = Agrave;
kernLeft = A;
kernRight = A;
lastChange = "2022-11-29 13:44:05 +0000";
layers = (
{
hints = (
{
horizontal = 1;
place = (-56, 21);
target = up;
type = BottomGhost;
},
{
horizontal = 1;
place = (172, 31);
place = (172, 31);
type = Stem;
},
{
horizontal = 1;
place = (634, -20);
target = down;
type = TopGhost;
},
{
horizontal = 1;
place = (680, 46);
place = (680, 46);
type = Stem;
},
{
place = (-33, 575);
place = (-33, 575);
type = Stem;
},
{
horizontal = 1;
place = (543, 35);
place = (543, 35);
type = Stem;
}
);
layerId = m01;
shapes = (
{
closed = 1;
nodes = (
(399,750,cs),
(419,731,o),
(449,737,o),
(461,762,cs),
(465,770,o),
(467,778,o),
(467,787,cs),
(467,798,o),
(464,809,o),
(458,817,cs),
(445,837,o),
(419,843,o),
(399,824,cs),
(389,815,o),
(383,801,o),
(383,787,cs),
(383,773,o),
(389,759,o)
);
},
{
closed = 1;
nodes = (
(452,228,l),
(474,46,ls),
(477,17,o),
(502,-5,o),
(532,-5,cs),
(567,-5,o),
(595,26,o),
(590,61,cs),
(510,636,ls),
(505,671,o),
(485,690,o),
(449,690,cs),
(407,690,ls),
(375,690,o),
(354,677,o),
(338,650,cs),
(7,70,ls),
(3,62,o),
(0,54,o),
(0,45,cs),
(0,17,o),
(23,-5,o),
(51,-5,cs),
(70,-5,o),
(87,6,o),
(95,21,cs),
(207,228,l)
);
},
{
closed = 1;
nodes = (
(255,315,l),
(411,599,l),
(442,315,l)
);
}
);
width = 656;
}
);
note = Agrave;
unicode = 192;
},
{
glyphname = Amacron;
kernLeft = A;
kernRight = A;
lastChange = "2022-11-29 13:44:05 +0000";
layers = (
{
hints = (
{
horizontal = 1;
place = (-56, 21);
target = up;
type = BottomGhost;
},
{
horizontal = 1;
place = (172, 31);
place = (172, 31);
type = Stem;
},
{
horizontal = 1;
place = (634, -20);
target = down;
type = TopGhost;
},
{
horizontal = 1;
place = (702, 7);
place = (702, 7);
type = Stem;
},
{
place = (159, 199);
place = (159, 199);
type = Stem;
},
{
horizontal = 1;
place = (543, 35);
place = (543, 35);
type = Stem;
}
);
layerId = m01;
shapes = (
{
closed = 1;
nodes = (
(555,758,ls),
(572,758,o),
(586,772,o),
(586,790,cs),
(586,807,o),
(572,821,o),
(555,821,cs),
(353,821,ls),
(336,821,o),
(322,807,o),
(322,790,cs),
(322,772,o),
(336,758,o),
(353,758,cs)
);
},
{
closed = 1;
nodes = (
(452,228,l),
(474,46,ls),
(477,17,o),
(502,-5,o),
(532,-5,cs),
(567,-5,o),
(595,26,o),
(590,61,cs),
(510,636,ls),
(505,671,o),
(485,690,o),
(449,690,cs),
(407,690,ls),
(375,690,o),
(354,677,o),
(338,650,cs),
(7,70,ls),
(3,62,o),
(0,54,o),
(0,45,cs),
(0,17,o),
(23,-5,o),
(51,-5,cs),
(70,-5,o),
(87,6,o),
(95,21,cs),
(207,228,l)
);
},
{
closed = 1;
nodes = (
(255,315,l),
(411,599,l),
(442,315,l)
);
}
);
width = 656;
}
);
note = Amacron;
unicode = 256;
},
{
glyphname = Aogonek;
kernLeft = A;
kernRight = A;
lastChange = "2022-11-29 13:44:05 +0000";
layers = (
{
hints = (
{
horizontal = 1;
place = (-279, 10);
place = (-279, 10);
type = Stem;
},
{
horizontal = 1;
place = (-56, 21);
target = up;
type = BottomGhost;
},
{
horizontal = 1;
place = (172, 31);
place = (172, 31);
type = Stem;
},
{
horizontal = 1;
place = (634, -20);
target = down;
type = TopGhost;
},
{
place = (371, 46);
place = (371, 46);
type = Stem;
},
{
horizontal = 1;
place = (543, 35);
place = (543, 35);
type = Stem;
}
);
layerId = m01;
shapes = (
{
closed = 1;
nodes = (
(462,-50,o),
(509,-7,o),
(555,0,c),
(577,0,ls),
(590,0,o),
(594,22,o),
(589,62,cs),
(510,636,ls),
(505,671,o),
(485,690,o),
(449,690,cs),
(407,690,ls),
(375,690,o),
(354,677,o),
(338,650,cs),
(7,70,ls),
(3,62,o),
(0,54,o),
(0,45,cs),
(0,17,o),
(23,-5,o),
(51,-5,cs),
(70,-5,o),
(87,6,o),
(95,21,cs),
(207,228,l),
(452,228,l),
(478,10,l),
(418,-14,o),
(356,-67,o),
(341,-138,cs),
(328,-201,o),
(363,-223,o),
(421,-223,cs),
(458,-223,o),
(492,-214,o),
(524,-199,cs),
(532,-195,o),
(537,-186,o),
(537,-177,cs),
(537,-161,o),
(522,-150,o),
(507,-154,cs),
(499,-156,o),
(491,-157,o),
(483,-157,cs),
(456,-157,o),
(442,-144,o),
(450,-107,cs)
);
},
{
closed = 1;
nodes = (
(255,315,l),
(411,599,l),
(442,315,l)
);
}
);
width = 656;
}
);
note = Aogonek;
unicode = 260;
},
{
glyphname = Aring;
kernLeft = A;
kernRight = A;
lastChange = "2022-11-29 13:44:05 +0000";
layers = (
{
hints = (
{
horizontal = 1;
place = (-56, 21);
target = up;
type = BottomGhost;
},
{
horizontal = 1;
place = (172, 31);
place = (172, 31);
type = Stem;
},
{
horizontal = 1;
place = (634, -20);
target = down;
type = TopGhost;
},
{
horizontal = 1;
place = (662, -13);
place = (662, -13);
type = Stem;
},
{
horizontal = 1;
place = (789, -12);
place = (789, -12);
type = Stem;
},
{
place = (188, 2);
place = (188, 2);
type = Stem;
},
{
place = (326, 2);
place = (326, 2);
type = Stem;
},
{
horizontal = 1;
place = (543, 35);
place = (543, 35);
type = Stem;
}
);
layerId = m01;
shapes = (
{
closed = 1;
nodes = (
(495,718,o),
(544,753,o),
(554,803,cs),
(565,853,o),
(532,889,o),
(475,889,cs),
(418,889,o),
(369,853,o),
(358,803,cs),
(348,753,o),
(381,718,o),
(438,718,cs)
);
},
{
closed = 1;
nodes = (
(488,845,o),
(502,828,o),
(496,803,cs),
(491,779,o),
(470,761,o),
(447,761,cs),
(424,761,o),
(411,779,o),
(416,803,cs),
(422,828,o),
(442,845,o),
(465,845,cs)
);
},
{
closed = 1;
nodes = (
(452,228,l),
(474,46,ls),
(477,17,o),
(502,-5,o),
(532,-5,cs),
(567,-5,o),
(595,26,o),
(590,61,cs),
(510,636,ls),
(505,671,o),
(485,690,o),
(449,690,cs),
(407,690,ls),
(375,690,o),
(354,677,o),
(338,650,cs),
(7,70,ls),
(3,62,o),
(0,54,o),
(0,45,cs),
(0,17,o),
(23,-5,o),
(51,-5,cs),
(70,-5,o),
(87,6,o),
(95,21,cs),
(207,228,l)
);
},
{
closed = 1;
nodes = (
(255,315,l),
(411,599,l),
(442,315,l)
);
}
);
width = 656;
}
);
note = Aring;
unicode = 197;
},
{
glyphname = Atilde;
kernLeft = A;
kernRight = A;
lastChange = "2022-11-29 13:44:05 +0000";
layers = (
{
hints = (
{
horizontal = 1;
place = (-56, 21);
target = up;
type = BottomGhost;
},
{
horizontal = 1;
place = (172, 31);
place = (172, 31);
type = Stem;
},
{
horizontal = 1;
place = (634, -20);
target = down;
type = TopGhost;
},
{
horizontal = 1;
place = (692, 31);
place = (692, 31);
type = Stem;
},
{
place = (166, -4);
place = (166, -4);
type = Stem;
},
{
place = (354, -3);
place = (354, -3);
type = Stem;
},
{
horizontal = 1;
place = (688, 31);
place = (688, 31);
type = Stem;
},
{
horizontal = 1;
place = (543, 35);
place = (543, 35);
type = Stem;
}
);
layerId = m01;
shapes = (
{
closed = 1;
nodes = (
(407,771,o),
(417,767,o),
(439,759,cs),
(467,748,o),
(482,744,o),
(503,744,cs),
(536,744,o),
(559,759,o),
(574,803,cs),
(579,817,o),
(569,837,o),
(550,837,cs),
(539,837,o),
(530,831,o),
(526,821,cs),
(522,811,o),
(517,808,o),
(509,808,cs),
(501,808,o),
(490,812,o),
(468,820,cs),
(441,831,o),
(426,835,o),
(404,835,cs),
(372,835,o),
(348,820,o),
(333,776,cs),
(328,762,o),
(338,742,o),
(357,742,cs),
(368,742,o),
(377,748,o),
(381,758,cs),
(385,768,o),
(391,771,o),
(398,771,cs)
);
},
{
closed = 1;
nodes = (
(452,228,l),
(474,46,ls),
(477,17,o),
(502,-5,o),
(532,-5,cs),
(567,-5,o),
(595,26,o),
(590,61,cs),
(510,636,ls),
(505,671,o),
(485,690,o),
(449,690,cs),
(407,690,ls),
(375,690,o),
(354,677,o),
(338,650,cs),
(7,70,ls),
(3,62,o),
(0,54,o),
(0,45,cs),
(0,17,o),
(23,-5,o),
(51,-5,cs),
(70,-5,o),
(87,6,o),
(95,21,cs),
(207,228,l)
);
},
{
closed = 1;
nodes = (
(255,315,l),
(411,599,l),
(442,315,l)
);
}
);
width = 656;
}
);
note = Atilde;
unicode = 195;
},
{
glyphname = AE;
lastChange = "2022-11-29 13:44:05 +0000";
layers = (
{
hints = (
{
horizontal = 1;
place = (-56, 32);
place = (-56, 32);
type = Stem;
},
{
horizontal = 1;
place = (246, 31);
place = (246, 31);
type = Stem;
},
{
horizontal = 1;
place = (547, 31);
place = (547, 31);
type = Stem;
},
{
place = (386, 48);
place = (386, 48);
type = Stem;
},
{
horizontal = 1;
place = (179, 32);
place = (179, 32);
type = Stem;
}
);
layerId = m01;
shapes = (
{
closed = 1;
nodes = (
(816,88,cs),
(517,88,l),
(547,302,l),
(842,302,ls),
(866,302,o),
(886,321,o),
(886,346,cs),
(886,370,o),
(866,389,o),
(842,389,cs),
(559,389,l),
(589,603,l),
(934,603,ls),
(958,603,o),
(978,622,o),
(978,647,cs),
(978,671,o),
(958,690,o),
(934,690,cs),
(486,690,ls),
(456,690,o),
(434,680,o),
(415,655,cs),
(-39,70,ls),
(-45,62,o),
(-49,52,o),
(-49,41,cs),
(-49,15,o),
(-28,-5,o),
(-2,-5,cs),
(13,-5,o),
(27,2,o),
(35,13,cs),
(202,235,l),
(428,235,l),
(404,62,ls),
(399,23,o),
(418,0,o),
(457,0,cs),
(816,0,ls),
(840,0,o),
(860,20,o),
(860,44,cs),
(860,68,o),
(840,88,o)
);
},
{
closed = 1;
nodes = (
(440,323,l),
(268,323,l),
(479,602,l)
);
}
);
width = 930;
}
);
note = AE;
unicode = 198;
},
{
glyphname = B;
lastChange = "2022-11-29 13:44:05 +0000";
layers = (
{
hints = (
{
horizontal = 1;
place = (-56, 32);
place = (-56, 32);
type = Stem;
},
{
horizontal = 1;
place = (258, 29);
place = (258, 29);
type = Stem;
},
{
horizontal = 1;
place = (547, 31);
place = (547, 31);
type = Stem;
},
{
place = (39, 54);
place = (39, 54);
type = Stem;
},
{
place = (433, 60);
place = (433, 60);
type = Stem;
},
{
place = (408, 60);
place = (408, 60);
type = Stem;
}
);
layerId = m01;
shapes = (
{
closed = 1;
nodes = (
(565,393,o),
(617,438,o),
(633,516,cs),
(654,612,o),
(604,671,o),
(497,686,cs),
(464,690,o),
(442,690,o),
(408,690,cs),
(237,690,ls),
(202,690,o),
(181,674,o),
(174,639,cs),
(52,63,ls),
(44,24,o),
(64,0,o),
(104,0,cs),
(274,0,ls),
(309,0,o),
(332,0,o),
(367,5,cs),
(460,18,o),
(565,78,o),
(592,204,cs),
(612,296,o),
(574,347,o),
(489,369,c)
);
},
{
closed = 1;
nodes = (
(277,603,l),
(390,603,ls),
(406,603,o),
(426,602,o),
(441,600,cs),
(495,594,o),
(528,565,o),
(515,504,cs),
(503,448,o),
(469,413,o),
(406,403,cs),
(388,400,o),
(370,399,o),
(353,399,cs),
(233,399,l)
);
},
{
closed = 1;
nodes = (
(337,88,o),
(319,88,o),
(303,88,cs),
(167,88,l),
(215,314,l),
(345,314,ls),
(361,314,o),
(377,314,o),
(397,311,cs),
(454,304,o),
(491,274,o),
(475,199,cs),
(461,132,o),
(409,94,o),
(351,89,cs)
);
}
);
width = 641;
}
);
note = B;
unicode = 66;
},
{
glyphname = C;
kernLeft = C;
kernRight = C;
lastChange = "2022-11-29 13:44:05 +0000";
layers = (
{
hints = (
{
horizontal = 1;
place = (-70, 28);
place = (-70, 28);
type = Stem;
},
{
horizontal = 1;
place = (564, 28);
place = (564, 28);
type = Stem;
},
{
place = (-7, 63);
place = (-7, 63);
type = Stem;
}
);
layerId = m01;
shapes = (
{
closed = 1;
nodes = (
(278,704,o),
(111,559,o),
(65,342,cs),
(21,132,o),
(111,-14,o),
(308,-14,cs),
(469,-14,o),
(585,69,o),
(637,183,cs),
(650,212,o),
(649,239,o),
(622,254,cs),
(611,260,o),
(599,263,o),
(586,263,cs),
(574,263,o),
(567,257,o),
(561,249,cs),
(547,231,o),
(540,215,o),
(528,192,cs),
(488,117,o),
(422,70,o),
(331,70,cs),
(209,70,o),
(149,176,o),
(185,347,cs),
(220,510,o),
(324,620,o),
(452,620,cs),
(540,620,o),
(586,578,o),
(597,508,cs),
(602,480,o),
(605,455,o),
(632,444,cs),
(640,441,o),
(648,439,o),
(657,439,cs),
(668,439,o),
(678,442,o),
(687,447,cs),
(706,459,o),
(712,479,o),
(712,508,cs),
(709,623,o),
(634,704,o),
(472,704,cs)
);
}
);
width = 708;
}
);
note = C;
unicode = 67;
},
{
glyphname = Cacute;
kernLeft = C;
kernRight = C;
lastChange = "2022-11-29 13:44:05 +0000";
layers = (
{
hints = (
{
horizontal = 1;
place = (-70, 28);
place = (-70, 28);
type = Stem;
},
{
horizontal = 1;
place = (564, 28);
place = (564, 28);
type = Stem;
},
{
horizontal = 1;
place = (680, 46);
place = (680, 46);
type = Stem;
},
{
place = (-7, 63);
place = (-7, 63);
type = Stem;
}
);
layerId = m01;
shapes = (
{
closed = 1;
nodes = (
(500,737,cs),
(558,787,ls),
(565,793,o),
(570,802,o),
(570,811,cs),
(570,829,o),
(555,844,o),
(538,844,cs),
(528,844,o),
(519,839,o),
(513,832,cs),
(463,773,ls),
(460,769,o),
(457,762,o),
(457,756,cs),
(457,742,o),
(469,731,o),
(483,731,cs),
(489,731,o),
(496,733,o)
);
},
{
closed = 1;
nodes = (
(278,704,o),
(111,559,o),
(65,342,cs),
(21,132,o),
(111,-14,o),
(308,-14,cs),
(469,-14,o),
(585,69,o),
(637,183,cs),
(650,212,o),
(649,239,o),
(622,254,cs),
(611,260,o),
(599,263,o),
(586,263,cs),
(574,263,o),
(567,257,o),
(561,249,cs),
(547,231,o),
(540,215,o),
(528,192,cs),
(488,117,o),
(422,70,o),
(331,70,cs),
(209,70,o),
(149,176,o),
(185,347,cs),
(220,510,o),
(324,620,o),
(452,620,cs),
(540,620,o),
(586,578,o),
(597,508,cs),
(602,480,o),
(605,455,o),
(632,444,cs),
(640,441,o),
(648,439,o),
(657,439,cs),
(668,439,o),
(678,442,o),
(687,447,cs),
(706,459,o),
(712,479,o),
(712,508,cs),
(709,623,o),
(634,704,o),
(472,704,cs)
);
}
);
width = 708;
}
);
note = Cacute;
unicode = 262;
},
{
glyphname = Ccaron;
kernLeft = C;
kernRight = C;
lastChange = "2022-11-29 13:44:05 +0000";
layers = (
{
hints = (
{
horizontal = 1;
place = (-70, 28);
place = (-70, 28);
type = Stem;
},
{
horizontal = 1;
place = (564, 28);
place = (564, 28);
type = Stem;
},
{
horizontal = 1;
place = (680, 46);
place = (680, 46);
type = Stem;
},
{
place = (-7, 63);
place = (-7, 63);
type = Stem;
}
);
layerId = m01;
shapes = (
{
closed = 1;
nodes = (
(459,736,cs),
(475,736,ls),
(510,736,o),
(541,755,o),
(558,782,cs),
(572,805,o),
(577,832,o),
(553,842,cs),
(550,843,o),
(546,844,o),
(543,844,cs),
(534,844,o),
(526,839,o),
(521,832,cs),
(481,777,l),
(472,808,ls),
(466,828,o),
(461,838,o),
(459,838,cs),
(431,838,o),
(408,815,o),
(408,787,cs),
(408,759,o),
(431,736,o)
);
},
{
closed = 1;
nodes = (
(565,254,cs),
(546,234,o),
(540,215,o),
(528,192,cs),
(488,117,o),
(422,70,o),
(331,70,cs),
(209,70,o),
(149,176,o),
(185,347,cs),
(220,510,o),
(324,620,o),
(452,620,cs),
(540,620,o),
(586,578,o),
(597,508,cs),
(602,480,o),
(605,455,o),
(632,444,cs),
(640,441,o),
(648,439,o),
(657,439,cs),
(668,439,o),
(678,442,o),
(687,447,cs),
(706,459,o),
(712,479,o),
(712,508,cs),
(709,623,o),
(634,704,o),
(472,704,cs),
(278,704,o),
(111,559,o),
(65,342,cs),
(21,132,o),
(111,-14,o),
(308,-14,cs),
(469,-14,o),
(585,69,o),
(637,183,cs),
(650,212,o),
(649,239,o),
(622,254,cs),
(611,260,o),
(599,263,o),
(586,263,cs),
(577,263,o),
(570,259,o)
);
}
);
width = 708;
}
);
note = Ccaron;
unicode = 268;
},
{
glyphname = Ccedilla;
kernLeft = C;
kernRight = C;
lastChange = "2022-11-29 13:44:05 +0000";
layers = (
{
hints = (
{
horizontal = 1;
place = (-266, -7);
place = (-266, -7);
type = Stem;
},
{
horizontal = 1;
place = (-67, 21);
target = up;
type = BottomGhost;
},
{
horizontal = 1;
place = (564, 28);
place = (564, 28);
type = Stem;
},
{
place = (-7, 63);
place = (-7, 63);
type = Stem;
},
{
place = (323, 14);
place = (323, 14);
type = Stem;
},
{
horizontal = 1;
place = (-137, 95);
place = (-137, 95);
type = Stem;
}
);
layerId = m01;
shapes = (
{
closed = 1;
nodes = (
(565,254,cs),
(546,234,o),
(540,215,o),
(528,192,cs),
(488,117,o),
(422,70,o),
(331,70,cs),
(209,70,o),
(149,176,o),
(185,347,cs),
(220,510,o),
(324,620,o),
(452,620,cs),
(540,620,o),
(586,578,o),
(597,508,cs),
(602,480,o),
(605,455,o),
(632,444,cs),
(640,441,o),
(648,439,o),
(657,439,cs),
(668,439,o),
(678,442,o),
(687,447,cs),
(706,459,o),
(712,479,o),
(712,508,cs),
(709,623,o),
(634,704,o),
(472,704,cs),
(278,704,o),
(111,559,o),
(65,342,cs),
(24,149,o),
(97,11,o),
(261,-11,c),
(235,-46,ls),
(219,-68,o),
(236,-71,o),
(276,-85,cs),
(295,-92,o),
(300,-104,o),
(297,-122,cs),
(292,-146,o),
(268,-161,o),
(226,-161,cs),
(215,-161,o),
(205,-160,o),
(194,-158,cs),
(179,-155,o),
(163,-167,o),
(163,-183,cs),
(163,-195,o),
(172,-206,o),
(184,-208,cs),
(194,-209,o),
(204,-210,o),
(214,-210,cs),
(292,-210,o),
(354,-181,o),
(367,-122,cs),
(377,-76,o),
(353,-48,o),
(300,-41,c),
(320,-14,l),
(475,-10,o),
(585,72,o),
(637,183,cs),
(650,211,o),
(649,239,o),
(622,254,cs),
(611,260,o),
(599,263,o),
(586,263,cs),
(577,263,o),
(570,259,o)
);
}
);
width = 708;
}
);
note = Ccedilla;
unicode = 199;
},
{
glyphname = Cdotaccent;
kernLeft = C;
kernRight = C;
lastChange = "2022-11-29 13:44:05 +0000";
layers = (
{
hints = (
{
horizontal = 1;
place = (-70, 28);
place = (-70, 28);
type = Stem;
},
{
horizontal = 1;
place = (564, 28);
place = (564, 28);
type = Stem;
},
{
horizontal = 1;
place = (678, 57);
place = (678, 57);
type = Stem;
},
{
place = (-7, 63);
place = (-7, 63);
type = Stem;
},
{
place = (257, 60);
place = (257, 60);
type = Stem;
}
);
layerId = m01;
shapes = (
{
closed = 1;
nodes = (
(462,847,o),
(432,823,o),
(425,791,cs),
(418,758,o),
(438,734,o),
(471,734,cs),
(504,734,o),
(534,758,o),
(541,791,cs),
(548,823,o),
(528,847,o),
(495,847,cs)
);
},
{
closed = 1;
nodes = (
(278,704,o),
(111,559,o),
(65,342,cs),
(21,132,o),
(111,-14,o),
(308,-14,cs),
(469,-14,o),
(585,69,o),
(637,183,cs),
(650,212,o),
(649,239,o),
(622,254,cs),
(611,260,o),
(599,263,o),
(586,263,cs),
(574,263,o),
(567,257,o),
(561,249,cs),
(547,231,o),
(540,215,o),
(528,192,cs),
(488,117,o),
(422,70,o),
(331,70,cs),
(209,70,o),
(149,176,o),
(185,347,cs),
(220,510,o),
(324,620,o),
(452,620,cs),
(540,620,o),
(586,578,o),
(597,508,cs),
(602,480,o),
(605,455,o),
(632,444,cs),
(640,441,o),
(648,439,o),
(657,439,cs),
(668,439,o),
(678,442,o),
(687,447,cs),
(706,459,o),
(712,479,o),
(712,508,cs),
(709,623,o),
(634,704,o),
(472,704,cs)
);
}
);
width = 708;
}
);
note = Cdotaccent;
unicode = 266;
},
{
glyphname = D;
kernRight = D;
lastChange = "2022-11-29 13:44:05 +0000";
layers = (
{
hints = (
{
horizontal = 1;
place = (-56, 32);
place = (-56, 32);
type = Stem;
},
{
horizontal = 1;
place = (547, 31);
place = (547, 31);
type = Stem;
},
{
place = (39, 54);
place = (39, 54);
type = Stem;
},
{
place = (510, 62);
place = (510, 62);
type = Stem;
}
);
layerId = m01;
shapes = (
{
closed = 1;
nodes = (
(461,690,o),
(445,690,o),
(408,690,cs),
(237,690,ls),
(202,690,o),
(181,674,o),
(174,639,cs),
(52,63,ls),
(44,24,o),
(64,0,o),
(104,0,cs),
(258,0,ls),
(295,0,o),
(311,0,o),
(347,4,cs),
(511,24,o),
(659,147,o),
(703,353,cs),
(747,562,o),
(651,667,o),
(495,686,cs)
);
},
{
closed = 1;
nodes = (
(323,88,o),
(300,88,o),
(266,88,cs),
(167,88,l),
(277,603,l),
(380,603,ls),
(413,603,o),
(437,602,o),
(458,598,cs),
(564,582,o),
(616,498,o),
(585,353,cs),
(552,200,o),
(461,108,o),
(346,92,cs)
);
}
);
width = 719;
}
);
note = D;
unicode = 68;
},
{
glyphname = Eth;
kernRight = D;
lastChange = "2022-11-29 13:44:05 +0000";
layers = (
{
hints = (
{
horizontal = 1;
place = (-56, 32);
place = (-56, 32);
type = Stem;
},
{
horizontal = 1;
place = (246, 10);
place = (246, 10);
type = Stem;
},
{
horizontal = 1;
place = (547, 31);
place = (547, 31);
type = Stem;
},
{
place = (36, 53);
place = (36, 53);
type = Stem;
},
{
place = (507, 61);
place = (507, 61);
type = Stem;
}
);
layerId = m01;
shapes = (
{
closed = 1;
nodes = (
(457,690,o),
(441,690,o),
(404,690,cs),
(234,690,ls),
(199,690,o),
(178,674,o),
(171,639,cs),
(114,368,l),
(76,368,ls),
(58,368,o),
(43,353,o),
(43,335,cs),
(43,317,o),
(58,302,o),
(76,302,cs),
(100,302,l),
(49,63,ls),
(41,23,o),
(61,0,o),
(101,0,cs),
(255,0,ls),
(292,0,o),
(308,0,o),
(344,4,cs),
(508,24,o),
(655,147,o),
(699,353,cs),
(743,562,o),
(647,667,o),
(491,686,cs)
);
},
{
closed = 1;
nodes = (
(320,88,o),
(296,88,o),
(263,88,cs),
(163,88,l),
(209,302,l),
(316,302,ls),
(334,302,o),
(349,317,o),
(349,335,cs),
(349,353,o),
(334,368,o),
(316,368,cs),
(223,368,l),
(273,603,l),
(376,603,ls),
(410,603,o),
(433,602,o),
(455,598,cs),
(561,582,o),
(613,498,o),
(582,353,cs),
(549,200,o),
(457,108,o),
(343,92,cs)
);
}
);
width = 716;
}
);
note = Eth;
unicode = 208;
},
{
glyphname = Dcaron;
kernRight = D;
lastChange = "2022-11-29 13:44:05 +0000";
layers = (
{
hints = (
{
horizontal = 1;
place = (-56, 32);
place = (-56, 32);
type = Stem;
},
{
horizontal = 1;
place = (547, 31);
place = (547, 31);
type = Stem;
},
{
horizontal = 1;
place = (680, 46);
place = (680, 46);
type = Stem;
},
{
place = (39, 54);
place = (39, 54);
type = Stem;
},
{
place = (510, 62);
place = (510, 62);
type = Stem;
}
);
layerId = m01;
shapes = (
{
closed = 1;
nodes = (
(462,736,cs),
(478,736,ls),
(513,736,o),
(544,755,o),
(561,782,cs),
(575,805,o),
(580,832,o),
(556,842,cs),
(553,843,o),
(549,844,o),
(546,844,cs),
(537,844,o),
(529,839,o),
(524,832,cs),
(484,777,l),
(475,808,ls),
(469,828,o),
(464,838,o),
(462,838,cs),
(434,838,o),
(411,815,o),
(411,787,cs),
(411,759,o),
(434,736,o)
);
},
{
closed = 1;
nodes = (
(461,690,o),
(445,690,o),
(408,690,cs),
(237,690,ls),
(202,690,o),
(181,674,o),
(174,639,cs),
(52,63,ls),
(44,24,o),
(64,0,o),
(104,0,cs),
(258,0,ls),
(295,0,o),
(311,0,o),
(347,4,cs),
(511,24,o),
(659,147,o),
(703,353,cs),
(747,562,o),
(651,667,o),
(495,686,cs)
);
},
{
closed = 1;
nodes = (
(323,88,o),
(300,88,o),
(266,88,cs),
(167,88,l),
(277,603,l),
(380,603,ls),
(413,603,o),
(437,602,o),
(458,598,cs),
(564,582,o),
(616,498,o),
(585,353,cs),
(552,200,o),
(461,108,o),
(346,92,cs)
);
}
);
width = 719;
}
);
note = Dcaron;
unicode = 270;
},
{
glyphname = Dcroat;
kernRight = D;
lastChange = "2022-11-29 13:44:05 +0000";
layers = (
{
hints = (
{
horizontal = 1;
place = (-56, 32);
place = (-56, 32);
type = Stem;
},
{
horizontal = 1;
place = (246, 10);
place = (246, 10);
type = Stem;
},
{
horizontal = 1;
place = (547, 31);
place = (547, 31);
type = Stem;
},
{
place = (36, 53);
place = (36, 53);
type = Stem;
},
{
place = (507, 61);
place = (507, 61);
type = Stem;
}
);
layerId = m01;
shapes = (
{
closed = 1;
nodes = (
(457,690,o),
(441,690,o),
(404,690,cs),
(234,690,ls),
(199,690,o),
(178,674,o),
(171,639,cs),
(114,368,l),
(76,368,ls),
(58,368,o),
(43,353,o),
(43,335,cs),
(43,317,o),
(58,302,o),
(76,302,cs),
(100,302,l),
(49,63,ls),
(41,23,o),
(61,0,o),
(101,0,cs),
(255,0,ls),
(292,0,o),
(308,0,o),
(344,4,cs),
(508,24,o),
(655,147,o),
(699,353,cs),
(743,562,o),
(647,667,o),
(491,686,cs)
);
},
{
closed = 1;
nodes = (
(320,88,o),
(296,88,o),
(263,88,cs),
(163,88,l),
(209,302,l),
(316,302,ls),
(334,302,o),
(349,317,o),
(349,335,cs),
(349,353,o),
(334,368,o),
(316,368,cs),
(223,368,l),
(273,603,l),
(376,603,ls),
(410,603,o),
(433,602,o),
(455,598,cs),
(561,582,o),
(613,498,o),
(582,353,cs),
(549,200,o),
(457,108,o),
(343,92,cs)
);
}
);
width = 716;
}
);
note = Dcroat;
unicode = 272;
},
{
glyphname = E;
lastChange = "2022-11-29 13:44:05 +0000";
layers = (
{
hints = (
{
horizontal = 1;
place = (-56, 32);
place = (-56, 32);
type = Stem;
},
{
horizontal = 1;
place = (246, 31);
place = (246, 31);
type = Stem;
},
{
horizontal = 1;
place = (547, 31);
place = (547, 31);
type = Stem;
},
{
place = (39, 54);
place = (39, 54);
type = Stem;
}
);
layerId = m01;
shapes = (
{
closed = 1;
nodes = (
(486,88,cs),
(167,88,l),
(213,302,l),
(512,302,ls),
(536,302,o),
(556,321,o),
(556,346,cs),
(556,370,o),
(536,389,o),
(512,389,cs),
(231,389,l),
(277,603,l),
(604,603,ls),
(628,603,o),
(648,622,o),
(648,647,cs),
(648,671,o),
(628,690,o),
(604,690,cs),
(237,690,ls),
(202,690,o),
(181,674,o),
(174,639,cs),
(52,63,ls),
(44,24,o),
(64,0,o),
(104,0,cs),
(486,0,ls),
(510,0,o),
(530,20,o),
(530,44,cs),
(530,68,o),
(510,88,o)
);
}
);
width = 600;
}
);
note = E;
unicode = 69;
},
{
glyphname = Eacute;
lastChange = "2022-11-29 13:44:05 +0000";
layers = (
{
hints = (
{
horizontal = 1;
place = (-56, 32);
place = (-56, 32);
type = Stem;
},
{
horizontal = 1;
place = (246, 31);
place = (246, 31);
type = Stem;
},
{
horizontal = 1;
place = (547, 31);
place = (547, 31);
type = Stem;
},
{
horizontal = 1;
place = (680, 46);
place = (680, 46);
type = Stem;
},
{
place = (39, 54);
place = (39, 54);
type = Stem;
}
);
layerId = m01;
shapes = (
{
closed = 1;
nodes = (
(466,737,cs),
(524,787,ls),
(531,793,o),
(536,802,o),
(536,811,cs),
(536,829,o),
(521,844,o),
(504,844,cs),
(494,844,o),
(485,839,o),
(479,832,cs),
(429,773,ls),
(426,769,o),
(423,762,o),
(423,756,cs),
(423,742,o),
(435,731,o),
(449,731,cs),
(455,731,o),
(462,733,o)
);
},
{
closed = 1;
nodes = (
(486,88,cs),
(167,88,l),
(213,302,l),
(512,302,ls),
(536,302,o),
(556,321,o),
(556,346,cs),
(556,370,o),
(536,389,o),
(512,389,cs),
(231,389,l),
(277,603,l),
(604,603,ls),
(628,603,o),
(648,622,o),
(648,647,cs),
(648,671,o),
(628,690,o),
(604,690,cs),
(237,690,ls),
(202,690,o),
(181,674,o),
(174,639,cs),
(52,63,ls),
(44,24,o),
(64,0,o),
(104,0,cs),
(486,0,ls),
(510,0,o),
(530,20,o),
(530,44,cs),
(530,68,o),
(510,88,o)
);
}
);
width = 600;
}
);
note = Eacute;
unicode = 201;
},
{
glyphname = Ecaron;
lastChange = "2022-11-29 13:44:05 +0000";
layers = (
{
hints = (
{
horizontal = 1;
place = (-56, 32);
place = (-56, 32);
type = Stem;
},
{
horizontal = 1;
place = (246, 31);
place = (246, 31);
type = Stem;
},
{
horizontal = 1;
place = (547, 31);
place = (547, 31);
type = Stem;
},
{
horizontal = 1;
place = (680, 46);
place = (680, 46);
type = Stem;
},
{
place = (39, 54);
place = (39, 54);
type = Stem;
}
);
layerId = m01;
shapes = (
{
closed = 1;
nodes = (
(425,736,cs),
(441,736,ls),
(476,736,o),
(507,755,o),
(524,782,cs),
(538,805,o),
(543,832,o),
(519,842,cs),
(516,843,o),
(512,844,o),
(509,844,cs),
(500,844,o),
(492,839,o),
(487,832,cs),
(447,777,l),
(438,808,ls),
(432,828,o),
(427,838,o),
(425,838,cs),
(397,838,o),
(374,815,o),
(374,787,cs),
(374,759,o),
(397,736,o)
);
},
{
closed = 1;
nodes = (
(486,88,cs),
(167,88,l),
(213,302,l),
(512,302,ls),
(536,302,o),
(556,321,o),
(556,346,cs),
(556,370,o),
(536,389,o),
(512,389,cs),
(231,389,l),
(277,603,l),
(604,603,ls),
(628,603,o),
(648,622,o),
(648,647,cs),
(648,671,o),
(628,690,o),
(604,690,cs),
(237,690,ls),
(202,690,o),
(181,674,o),
(174,639,cs),
(52,63,ls),
(44,24,o),
(64,0,o),
(104,0,cs),
(486,0,ls),
(510,0,o),
(530,20,o),
(530,44,cs),
(530,68,o),
(510,88,o)
);
}
);
width = 600;
}
);
note = Ecaron;
unicode = 282;
},
{
glyphname = Ecircumflex;
lastChange = "2022-11-29 13:44:05 +0000";
layers = (
{
hints = (
{
horizontal = 1;
place = (-56, 32);
place = (-56, 32);
type = Stem;
},
{
horizontal = 1;
place = (246, 31);
place = (246, 31);
type = Stem;
},
{
horizontal = 1;
place = (547, 31);
place = (547, 31);
type = Stem;
},
{
horizontal = 1;
place = (680, 46);
place = (680, 46);
type = Stem;
},
{
place = (39, 54);
place = (39, 54);
type = Stem;
}
);
layerId = m01;
shapes = (
{
closed = 1;
nodes = (
(410,742,cs),
(450,796,l),
(459,766,ls),
(465,745,o),
(470,736,o),
(472,736,cs),
(500,736,o),
(523,759,o),
(523,787,cs),
(523,815,o),
(500,838,o),
(472,838,cs),
(456,838,ls),
(421,838,o),
(390,819,o),
(373,792,cs),
(359,769,o),
(354,741,o),
(379,732,cs),
(382,731,o),
(385,731,o),
(388,731,cs),
(397,731,o),
(405,735,o)
);
},
{
closed = 1;
nodes = (
(486,88,cs),
(167,88,l),
(213,302,l),
(512,302,ls),
(536,302,o),
(556,321,o),
(556,346,cs),
(556,370,o),
(536,389,o),
(512,389,cs),
(231,389,l),
(277,603,l),
(604,603,ls),
(628,603,o),
(648,622,o),
(648,647,cs),
(648,671,o),
(628,690,o),
(604,690,cs),
(237,690,ls),
(202,690,o),
(181,674,o),
(174,639,cs),
(52,63,ls),
(44,24,o),
(64,0,o),
(104,0,cs),
(486,0,ls),
(510,0,o),
(530,20,o),
(530,44,cs),
(530,68,o),
(510,88,o)
);
}
);
width = 600;
}
);
note = Ecircumflex;
unicode = 202;
},
{
glyphname = Edieresis;
lastChange = "2022-11-29 13:44:05 +0000";
layers = (
{
hints = (
{
horizontal = 1;
place = (-56, 32);
place = (-56, 32);
type = Stem;
},
{
horizontal = 1;
place = (246, 31);
place = (246, 31);
type = Stem;
},
{
horizontal = 1;
place = (547, 31);
place = (547, 31);
type = Stem;
},
{
horizontal = 1;
place = (677, 50);
place = (677, 50);
type = Stem;
},
{
place = (150, 51);
place = (150, 51);
type = Stem;
},
{
place = (305, 51);
place = (305, 51);
type = Stem;
},
{
place = (39, 54);
place = (39, 54);
type = Stem;
}
);
layerId = m01;
shapes = (
{
closed = 1;
nodes = (
(486,88,cs),
(167,88,l),
(213,302,l),
(512,302,ls),
(536,302,o),
(556,321,o),
(556,346,cs),
(556,370,o),
(536,389,o),
(512,389,cs),
(231,389,l),
(277,603,l),
(604,603,ls),
(628,603,o),
(648,622,o),
(648,647,cs),
(648,671,o),
(628,690,o),
(604,690,cs),
(237,690,ls),
(202,690,o),
(181,674,o),
(174,639,cs),
(52,63,ls),
(44,24,o),
(64,0,o),
(104,0,cs),
(486,0,ls),
(510,0,o),
(530,20,o),
(530,44,cs),
(530,68,o),
(510,88,o)
);
},
{
closed = 1;
nodes = (
(349,729,cs),
(355,727,o),
(362,725,o),
(369,725,cs),
(393,725,o),
(413,742,o),
(418,765,cs),
(421,777,ls),
(428,810,o),
(402,841,o),
(369,841,cs),
(360,841,o),
(352,840,o),
(345,836,cs),
(325,826,o),
(310,806,o),
(310,783,cs),
(310,759,o),
(327,738,o)
);
},
{
closed = 1;
nodes = (
(504,729,cs),
(510,727,o),
(517,725,o),
(524,725,cs),
(548,725,o),
(568,742,o),
(573,765,cs),
(576,777,ls),
(583,810,o),
(557,842,o),
(524,842,cs),
(515,842,o),
(507,840,o),
(500,836,cs),
(480,826,o),
(465,806,o),
(465,783,cs),
(465,759,o),
(482,738,o)
);
}
);
width = 600;
}
);
note = Edieresis;
unicode = 203;
},
{
glyphname = Edotaccent;
lastChange = "2022-11-29 13:44:05 +0000";
layers = (
{
hints = (
{
horizontal = 1;
place = (-56, 32);
place = (-56, 32);
type = Stem;
},
{
horizontal = 1;
place = (246, 31);
place = (246, 31);
type = Stem;
},
{
horizontal = 1;
place = (547, 31);
place = (547, 31);
type = Stem;
},
{
horizontal = 1;
place = (678, 57);
place = (678, 57);
type = Stem;
},
{
place = (39, 54);
place = (39, 54);
type = Stem;
},
{
place = (223, 60);
place = (223, 60);
type = Stem;
}
);
layerId = m01;
shapes = (
{
closed = 1;
nodes = (
(470,734,o),
(500,758,o),
(507,791,cs),
(514,823,o),
(494,847,o),
(461,847,cs),
(428,847,o),
(398,823,o),
(391,791,cs),
(384,758,o),
(404,734,o),
(437,734,cs)
);
},
{
closed = 1;
nodes = (
(486,88,cs),
(167,88,l),
(213,302,l),
(512,302,ls),
(536,302,o),
(556,321,o),
(556,346,cs),
(556,370,o),
(536,389,o),
(512,389,cs),
(231,389,l),
(277,603,l),
(604,603,ls),
(628,603,o),
(648,622,o),
(648,647,cs),
(648,671,o),
(628,690,o),
(604,690,cs),
(237,690,ls),
(202,690,o),
(181,674,o),
(174,639,cs),
(52,63,ls),
(44,24,o),
(64,0,o),
(104,0,cs),
(486,0,ls),
(510,0,o),
(530,20,o),
(530,44,cs),
(530,68,o),
(510,88,o)
);
}
);
width = 600;
}
);
note = Edotaccent;
unicode = 278;
},
{
glyphname = Egrave;
lastChange = "2022-11-29 13:44:05 +0000";
layers = (
{
hints = (
{
horizontal = 1;
place = (-56, 32);
place = (-56, 32);
type = Stem;
},
{
horizontal = 1;
place = (246, 31);
place = (246, 31);
type = Stem;
},
{
horizontal = 1;
place = (547, 31);
place = (547, 31);
type = Stem;
},
{
horizontal = 1;
place = (680, 46);
place = (680, 46);
type = Stem;
},
{
place = (39, 54);
place = (39, 54);
type = Stem;
}
);
layerId = m01;
shapes = (
{
closed = 1;
nodes = (
(394,750,cs),
(414,731,o),
(444,737,o),
(456,762,cs),
(460,770,o),
(462,778,o),
(462,787,cs),
(462,798,o),
(459,809,o),
(453,817,cs),
(440,837,o),
(414,843,o),
(394,824,cs),
(384,815,o),
(378,801,o),
(378,787,cs),
(378,773,o),
(384,759,o)
);
},
{
closed = 1;
nodes = (
(486,88,cs),
(167,88,l),
(213,302,l),
(512,302,ls),
(536,302,o),
(556,321,o),
(556,346,cs),
(556,370,o),
(536,389,o),
(512,389,cs),
(231,389,l),
(277,603,l),
(604,603,ls),
(628,603,o),
(648,622,o),
(648,647,cs),
(648,671,o),
(628,690,o),
(604,690,cs),
(237,690,ls),
(202,690,o),
(181,674,o),
(174,639,cs),
(52,63,ls),
(44,24,o),
(64,0,o),
(104,0,cs),
(486,0,ls),
(510,0,o),
(530,20,o),
(530,44,cs),
(530,68,o),
(510,88,o)
);
}
);
width = 600;
}
);
note = Egrave;
unicode = 200;
},
{
glyphname = Emacron;
lastChange = "2022-11-29 13:44:05 +0000";
layers = (
{
hints = (
{
horizontal = 1;
place = (-56, 32);
place = (-56, 32);
type = Stem;
},
{
horizontal = 1;
place = (246, 31);
place = (246, 31);
type = Stem;
},
{
horizontal = 1;
place = (547, 31);
place = (547, 31);
type = Stem;
},
{
horizontal = 1;
place = (702, 7);
place = (702, 7);
type = Stem;
},
{
place = (154, 199);
place = (154, 199);
type = Stem;
},
{
place = (39, 54);
place = (39, 54);
type = Stem;
}
);
layerId = m01;
shapes = (
{
closed = 1;
nodes = (
(550,758,ls),
(567,758,o),
(581,772,o),
(581,790,cs),
(581,807,o),
(567,821,o),
(550,821,cs),
(348,821,ls),
(331,821,o),
(317,807,o),
(317,789,cs),
(317,772,o),
(331,758,o),
(348,758,cs)
);
},
{
closed = 1;
nodes = (
(486,88,cs),
(167,88,l),
(213,302,l),
(512,302,ls),
(536,302,o),
(556,321,o),
(556,346,cs),
(556,370,o),
(536,389,o),
(512,389,cs),
(231,389,l),
(277,603,l),
(604,603,ls),
(628,603,o),
(648,622,o),
(648,647,cs),
(648,671,o),
(628,690,o),
(604,690,cs),
(237,690,ls),
(202,690,o),
(181,674,o),
(174,639,cs),
(52,63,ls),
(44,24,o),
(64,0,o),
(104,0,cs),
(486,0,ls),
(510,0,o),
(530,20,o),
(530,44,cs),
(530,68,o),
(510,88,o)
);
}
);
width = 600;
}
);
note = Emacron;
unicode = 274;
},
{
glyphname = Eogonek;
lastChange = "2022-11-29 13:44:05 +0000";
layers = (
{
hints = (
{
horizontal = 1;
place = (-279, 10);
place = (-279, 10);
type = Stem;
},
{
horizontal = 1;
place = (-56, 32);
place = (-56, 32);
type = Stem;
},
{
horizontal = 1;
place = (246, 31);
place = (246, 31);
type = Stem;
},
{
horizontal = 1;
place = (547, 31);
place = (547, 31);
type = Stem;
},
{
place = (39, 54);
place = (39, 54);
type = Stem;
},
{
place = (320, 46);
place = (320, 46);
type = Stem;
},
{
place = (406, 54);
place = (406, 54);
type = Stem;
}
);
layerId = m01;
shapes = (
{
closed = 1;
nodes = (
(405,-157,o),
(391,-144,o),
(399,-107,cs),
(408,-64,o),
(437,-29,o),
(471,-11,cs),
(494,1,o),
(518,1,o),
(529,24,c),
(531,30,o),
(533,37,o),
(533,44,cs),
(533,70,o),
(512,92,o),
(486,92,cs),
(459,92,o),
(438,70,o),
(438,44,cs),
(438,18,o),
(459,-4,o),
(486,-4,cs),
(489,-4,o),
(488,19,o),
(486,42,cs),
(485,72,o),
(465,88,o),
(428,88,cs),
(167,88,l),
(213,302,l),
(512,302,ls),
(536,302,o),
(556,321,o),
(556,346,cs),
(556,370,o),
(536,389,o),
(512,389,cs),
(231,389,l),
(277,603,l),
(604,603,ls),
(628,603,o),
(648,622,o),
(648,647,cs),
(648,671,o),
(628,690,o),
(604,690,cs),
(237,690,ls),
(202,690,o),
(181,674,o),
(174,639,cs),
(52,63,ls),
(44,24,o),
(64,0,o),
(104,0,cs),
(406,0,l),
(353,-27,o),
(304,-75,o),
(290,-138,cs),
(277,-201,o),
(312,-223,o),
(370,-223,cs),
(407,-223,o),
(441,-214,o),
(473,-199,cs),
(481,-195,o),
(486,-186,o),
(486,-177,cs),
(486,-161,o),
(471,-150,o),
(456,-154,cs),
(448,-156,o),
(440,-157,o),
(432,-157,cs)
);
}
);
width = 600;
}
);
note = Eogonek;
unicode = 280;
},
{
glyphname = F;
kernRight = F;
lastChange = "2022-11-29 13:44:05 +0000";
layers = (
{
hints = (
{
horizontal = 1;
place = (-56, 21);
target = up;
type = BottomGhost;
},
{
horizontal = 1;
place = (246, 31);
place = (246, 31);
type = Stem;
},
{
horizontal = 1;
place = (547, 31);
place = (547, 31);
type = Stem;
},
{
place = (39, 54);
place = (39, 54);
type = Stem;
}
);
layerId = m01;
shapes = (
{
closed = 1;
nodes = (
(277,603,l),
(604,603,ls),
(628,603,o),
(648,622,o),
(648,647,cs),
(648,671,o),
(628,690,o),
(604,690,cs),
(237,690,ls),
(202,690,o),
(181,674,o),
(174,639,cs),
(52,59,ls),
(45,25,o),
(70,-6,o),
(104,-6,cs),
(130,-6,o),
(152,12,o),
(157,37,cs),
(213,302,l),
(502,302,ls),
(526,302,o),
(546,321,o),
(546,345,cs),
(546,370,o),
(526,389,o),
(502,389,cs),
(231,389,l)
);
}
);
width = 579;
}
);
note = F;
unicode = 70;
},
{
glyphname = G;
kernLeft = C;
kernRight = G;
lastChange = "2022-11-29 13:44:05 +0000";
layers = (
{
hints = (
{
horizontal = 1;
place = (-70, 28);
place = (-70, 28);
type = Stem;
},
{
horizontal = 1;
place = (198, 32);
place = (198, 32);
type = Stem;
},
{
horizontal = 1;
place = (564, 28);
place = (564, 28);
type = Stem;
},
{
place = (-7, 63);
place = (-7, 63);
type = Stem;
},
{
place = (513, 38);
place = (513, 38);
type = Stem;
},
{
place = (504, 54);
place = (504, 54);
type = Stem;
},
{
horizontal = 1;
place = (-56, 21);
target = up;
type = BottomGhost;
}
);
layerId = m01;
shapes = (
{
closed = 1;
nodes = (
(448,342,ls),
(424,342,o),
(404,322,o),
(404,298,cs),
(404,274,o),
(424,254,o),
(448,254,cs),
(554,254,l),
(524,143,o),
(435,70,o),
(333,70,cs),
(210,70,o),
(149,176,o),
(185,347,cs),
(220,510,o),
(326,620,o),
(454,620,cs),
(543,620,o),
(589,578,o),
(600,509,cs),
(604,480,o),
(607,455,o),
(634,444,cs),
(642,441,o),
(650,439,o),
(659,439,cs),
(670,439,o),
(680,442,o),
(689,447,cs),
(709,459,o),
(716,479,o),
(715,508,cs),
(712,623,o),
(637,704,o),
(474,704,cs),
(280,704,o),
(111,559,o),
(65,342,cs),
(21,132,o),
(106,-14,o),
(303,-14,cs),
(366,-14,o),
(418,1,o),
(462,29,cs),
(484,43,o),
(495,58,o),
(510,79,cs),
(536,117,l),
(524,48,ls),
(519,21,o),
(540,-6,o),
(569,-6,cs),
(591,-6,o),
(609,11,o),
(613,31,cs),
(666,279,ls),
(674,319,o),
(654,342,o),
(614,342,cs)
);
}
);
width = 722;
}
);
note = G;
unicode = 71;
},
{
glyphname = Gbreve;
kernLeft = C;
kernRight = G;
lastChange = "2022-11-29 13:44:05 +0000";
layers = (
{
hints = (
{
horizontal = 1;
place = (-70, 28);
place = (-70, 28);
type = Stem;
},
{
horizontal = 1;
place = (198, 32);
place = (198, 32);
type = Stem;
},
{
horizontal = 1;
place = (564, 28);
place = (564, 28);
type = Stem;
},
{
horizontal = 1;
place = (668, 6);
place = (668, 6);
type = Stem;
},
{
place = (-7, 63);
place = (-7, 63);
type = Stem;
},
{
place = (203, 6);
place = (203, 6);
type = Stem;
},
{
place = (361, 6);
place = (361, 6);
type = Stem;
},
{
place = (513, 38);
place = (513, 38);
type = Stem;
},
{
place = (504, 54);
place = (504, 54);
type = Stem;
},
{
horizontal = 1;
place = (-56, 21);
target = up;
type = BottomGhost;
}
);
layerId = m01;
shapes = (
{
closed = 1;
nodes = (
(525,724,o),
(566,749,o),
(589,802,c),
(590,806,o),
(591,810,o),
(591,814,cs),
(591,830,o),
(578,844,o),
(561,844,cs),
(548,844,o),
(537,836,o),
(533,825,cs),
(523,798,o),
(504,786,o),
(480,786,cs),
(459,786,o),
(445,795,o),
(442,816,cs),
(440,832,o),
(426,844,o),
(409,844,cs),
(392,844,o),
(378,831,o),
(377,813,cs),
(373,752,o),
(405,724,o),
(467,724,cs)
);
},
{
closed = 1;
nodes = (
(448,342,ls),
(424,342,o),
(404,322,o),
(404,298,cs),
(404,274,o),
(424,254,o),
(448,254,cs),
(554,254,l),
(524,143,o),
(435,70,o),
(333,70,cs),
(210,70,o),
(149,176,o),
(185,347,cs),
(220,510,o),
(326,620,o),
(454,620,cs),
(543,620,o),
(589,578,o),
(600,509,cs),
(604,480,o),
(607,455,o),
(634,444,cs),
(642,441,o),
(650,439,o),
(659,439,cs),
(670,439,o),
(680,442,o),
(689,447,cs),
(709,459,o),
(716,479,o),
(715,508,cs),
(712,623,o),
(637,704,o),
(474,704,cs),
(280,704,o),
(111,559,o),
(65,342,cs),
(21,132,o),
(106,-14,o),
(303,-14,cs),
(366,-14,o),
(418,1,o),
(462,29,cs),
(484,43,o),
(495,58,o),
(510,79,cs),
(536,117,l),
(524,48,ls),
(519,21,o),
(540,-6,o),
(569,-6,cs),
(591,-6,o),
(609,11,o),
(613,31,cs),
(666,279,ls),
(674,319,o),
(654,342,o),
(614,342,cs)
);
}
);
width = 722;
}
);
note = Gbreve;
unicode = 286;
},
{
glyphname = Gcommaaccent;
kernLeft = C;
kernRight = G;
lastChange = "2022-11-29 13:44:05 +0000";
layers = (
{
hints = (
{
horizontal = 1;
place = (-70, 28);
place = (-70, 28);
type = Stem;
},
{
horizontal = 1;
place = (198, 32);
place = (198, 32);
type = Stem;
},
{
horizontal = 1;
place = (564, 28);
place = (564, 28);
type = Stem;
},
{
place = (-7, 63);
place = (-7, 63);
type = Stem;
},
{
place = (513, 38);
place = (513, 38);
type = Stem;
},
{
place = (504, 54);
place = (504, 54);
type = Stem;
},
{
horizontal = 1;
place = (-256, 96);
place = (-256, 96);
type = Stem;
},
{
horizontal = 1;
place = (-56, 21);
target = up;
type = BottomGhost;
}
);
layerId = m01;
shapes = (
{
closed = 1;
nodes = (
(448,342,ls),
(424,342,o),
(404,322,o),
(404,298,cs),
(404,274,o),
(424,254,o),
(448,254,cs),
(554,254,l),
(524,143,o),
(435,70,o),
(333,70,cs),
(210,70,o),
(149,176,o),
(185,347,cs),
(220,510,o),
(326,620,o),
(454,620,cs),
(543,620,o),
(589,578,o),
(600,509,cs),
(604,480,o),
(607,455,o),
(634,444,cs),
(642,441,o),
(650,439,o),
(659,439,cs),
(670,439,o),
(680,442,o),
(689,447,cs),
(709,459,o),
(716,479,o),
(715,508,cs),
(712,623,o),
(637,704,o),
(474,704,cs),
(280,704,o),
(111,559,o),
(65,342,cs),
(21,132,o),
(106,-14,o),
(303,-14,cs),
(366,-14,o),
(418,1,o),
(462,29,cs),
(484,43,o),
(495,58,o),
(510,79,cs),
(536,117,l),
(524,48,ls),
(519,21,o),
(540,-6,o),
(569,-6,cs),
(591,-6,o),
(609,11,o),
(613,31,cs),
(666,279,ls),
(674,319,o),
(654,342,o),
(614,342,cs)
);
},
{
closed = 1;
nodes = (
(264,-64,cs),
(206,-159,ls),
(203,-163,o),
(202,-169,o),
(202,-175,cs),
(202,-192,o),
(216,-206,o),
(232,-206,cs),
(243,-206,o),
(252,-200,o),
(257,-193,cs),
(321,-104,ls),
(342,-74,o),
(345,-34,o),
(309,-29,c),
(302,-29,ls),
(282,-29,o),
(274,-48,o)
);
}
);
width = 722;
}
);
note = Gcommaaccent;
unicode = 290;
},
{
glyphname = Gdotaccent;
kernLeft = C;
kernRight = G;
lastChange = "2022-11-29 13:44:05 +0000";
layers = (
{
hints = (
{
horizontal = 1;
place = (-70, 28);
place = (-70, 28);
type = Stem;
},
{
horizontal = 1;
place = (198, 32);
place = (198, 32);
type = Stem;
},
{
horizontal = 1;
place = (564, 28);
place = (564, 28);
type = Stem;
},
{
horizontal = 1;
place = (678, 57);
place = (678, 57);
type = Stem;
},
{
place = (-7, 63);
place = (-7, 63);
type = Stem;
},
{
place = (255, 60);
place = (255, 60);
type = Stem;
},
{
place = (513, 38);
place = (513, 38);
type = Stem;
},
{
place = (504, 54);
place = (504, 54);
type = Stem;
},
{
horizontal = 1;
place = (-56, 21);
target = up;
type = BottomGhost;
}
);
layerId = m01;
shapes = (
{
closed = 1;
nodes = (
(502,734,o),
(532,758,o),
(539,791,cs),
(546,823,o),
(526,847,o),
(493,847,cs),
(460,847,o),
(430,823,o),
(423,791,cs),
(416,758,o),
(436,734,o),
(469,734,cs)
);
},
{
closed = 1;
nodes = (
(448,342,ls),
(424,342,o),
(404,322,o),
(404,298,cs),
(404,274,o),
(424,254,o),
(448,254,cs),
(554,254,l),
(524,143,o),
(435,70,o),
(333,70,cs),
(210,70,o),
(149,176,o),
(185,347,cs),
(220,510,o),
(326,620,o),
(454,620,cs),
(543,620,o),
(589,578,o),
(600,509,cs),
(604,480,o),
(607,455,o),
(634,444,cs),
(642,441,o),
(650,439,o),
(659,439,cs),
(670,439,o),
(680,442,o),
(689,447,cs),
(709,459,o),
(716,479,o),
(715,508,cs),
(712,623,o),
(637,704,o),
(474,704,cs),
(280,704,o),
(111,559,o),
(65,342,cs),
(21,132,o),
(106,-14,o),
(303,-14,cs),
(366,-14,o),
(418,1,o),
(462,29,cs),
(484,43,o),
(495,58,o),
(510,79,cs),
(536,117,l),
(524,48,ls),
(519,21,o),
(540,-6,o),
(569,-6,cs),
(591,-6,o),
(609,11,o),
(613,31,cs),
(666,279,ls),
(674,319,o),
(654,342,o),
(614,342,cs)
);
}
);
width = 722;
}
);
note = Gdotaccent;
unicode = 288;
},
{
glyphname = H;
lastChange = "2022-11-29 13:34:19 +0000";
layers = (
{
hints = (
{
horizontal = 1;
place = (-56, 21);
target = up;
type = BottomGhost;
},
{
horizontal = 1;
place = (238, 33);
place = (238, 33);
type = Stem;
},
{
horizontal = 1;
place = (634, -20);
target = down;
type = TopGhost;
},
{
place = (39, 54);
place = (39, 54);
type = Stem;
},
{
place = (503, 53);
place = (503, 53);
type = Stem;
}
);
layerId = m01;
shapes = (
{
closed = 1;
nodes = (
(746,631,ls),
(753,665,o),
(727,696,o),
(693,696,cs),
(668,696,o),
(646,678,o),
(641,653,cs),
(584,383,l),
(230,383,l),
(282,631,ls),
(289,665,o),
(264,696,o),
(230,696,cs),
(204,696,o),
(182,678,o),
(177,653,cs),
(52,59,ls),
(45,25,o),
(70,-6,o),
(104,-6,cs),
(130,-6,o),
(152,12,o),
(157,37,cs),
(211,294,l),
(565,294,l),
(515,59,ls),
(508,25,o),
(534,-6,o),
(568,-6,cs),
(593,-6,o),
(615,12,o),
(620,37,cs)
);
}
);
width = 740;
}
);
note = H;
unicode = 72;
},
{
glyphname = Hbar;
lastChange = "2022-11-29 13:34:19 +0000";
layers = (
{
hints = (
{
horizontal = 1;
place = (-56, 21);
target = up;
type = BottomGhost;
},
{
horizontal = 1;
place = (238, 33);
place = (238, 33);
type = Stem;
},
{
horizontal = 1;
place = (441, 10);
place = (441, 10);
type = Stem;
},
{
place = (39, 54);
place = (39, 54);
type = Stem;
},
{
place = (503, 53);
place = (503, 53);
type = Stem;
},
{
horizontal = 1;
place = (441, 137);
place = (441, 137);
type = Stem;
}
);
layerId = m01;
shapes = (
{
closed = 1;
nodes = (
(736,497,ls),
(754,497,o),
(769,512,o),
(769,530,cs),
(769,548,o),
(754,563,o),
(736,563,cs),
(731,563,l),
(745,631,ls),
(752,665,o),
(727,696,o),
(693,696,cs),
(668,696,o),
(646,678,o),
(641,653,cs),
(622,563,l),
(268,563,l),
(282,631,ls),
(289,665,o),
(264,696,o),
(230,696,cs),
(204,696,o),
(182,678,o),
(177,653,cs),
(158,563,l),
(139,563,ls),
(121,563,o),
(106,548,o),
(106,530,cs),
(106,512,o),
(121,497,o),
(139,497,cs),
(144,497,l),
(52,59,ls),
(45,25,o),
(70,-6,o),
(104,-6,cs),
(130,-6,o),
(152,12,o),
(157,37,cs),
(211,294,l),
(565,294,l),
(515,59,ls),
(508,25,o),
(534,-6,o),
(568,-6,cs),
(593,-6,o),
(615,12,o),
(620,37,cs),
(717,497,l)
);
},
{
closed = 1;
nodes = (
(608,497,l),
(584,383,l),
(230,383,l),
(254,497,l)
);
}
);
width = 740;
}
);
note = Hbar;
unicode = 294;
},
{
glyphname = I;
lastChange = "2022-11-29 13:34:19 +0000";
layers = (
{
hints = (
{
horizontal = 1;
place = (-56, 21);
target = up;
type = BottomGhost;
},
{
horizontal = 1;
place = (634, -20);
target = down;
type = TopGhost;
},
{
place = (39, 54);
place = (39, 54);
type = Stem;
}
);
layerId = m01;
shapes = (
{
closed = 1;
nodes = (
(157,37,cs),
(282,631,ls),
(289,665,o),
(264,695,o),
(230,695,cs),
(204,695,o),
(182,678,o),
(177,653,cs),
(52,59,ls),
(45,25,o),
(70,-5,o),
(104,-5,cs),
(130,-5,o),
(152,12,o)
);
}
);
width = 277;
}
);
note = I;
unicode = 73;
},
{
glyphname = IJ;
kernRight = IJ;
lastChange = "2022-11-29 13:44:05 +0000";
layers = (
{
hints = (
{
horizontal = 1;
place = (-56, 21);
target = up;
type = BottomGhost;
},
{
horizontal = 1;
place = (634, -20);
target = down;
type = TopGhost;
},
{
place = (39, 54);
place = (39, 54);
type = Stem;
},
{
place = (624, 54);
place = (624, 54);
type = Stem;
},
{
horizontal = 1;
place = (-70, 28);
place = (-70, 28);
type = Stem;
},
{
place = (274, 54);
place = (274, 54);
type = Stem;
}
);
layerId = m01;
shapes = (
{
closed = 1;
nodes = (
(157,37,cs),
(282,631,ls),
(289,665,o),
(264,695,o),
(230,695,cs),
(204,695,o),
(182,678,o),
(177,653,cs),
(52,59,ls),
(45,25,o),
(70,-5,o),
(104,-5,cs),
(130,-5,o),
(152,12,o)
);
},
{
closed = 1;
nodes = (
(867,631,ls),
(874,665,o),
(849,695,o),
(815,695,cs),
(789,695,o),
(767,678,o),
(762,653,cs),
(681,268,ls),
(674,236,o),
(669,212,o),
(663,191,cs),
(641,116,o),
(596,70,o),
(523,70,cs),
(460,70,o),
(425,99,o),
(426,167,cs),
(426,194,o),
(431,216,o),
(411,235,cs),
(401,245,o),
(387,251,o),
(372,251,cs),
(344,251,o),
(323,230,o),
(318,204,cs),
(294,70,o),
(352,-14,o),
(495,-14,cs),
(649,-14,o),
(738,67,o),
(770,184,cs),
(781,223,o),
(786,245,o),
(792,273,cs)
);
}
);
width = 844;
}
);
note = IJ;
unicode = 306;
},
{
glyphname = Iacute;
lastChange = "2022-11-29 13:34:19 +0000";
layers = (
{
hints = (
{
horizontal = 1;
place = (-56, 21);
target = up;
type = BottomGhost;
},
{
horizontal = 1;
place = (634, -20);
target = down;
type = TopGhost;
},
{
horizontal = 1;
place = (680, 46);
place = (680, 46);
type = Stem;
},
{
place = (39, 54);
place = (39, 54);
type = Stem;
}
);
layerId = m01;
shapes = (
{
closed = 1;
nodes = (
(279,737,cs),
(337,787,ls),
(344,793,o),
(349,802,o),
(349,811,cs),
(349,829,o),
(334,844,o),
(317,844,cs),
(307,844,o),
(298,839,o),
(292,832,cs),
(242,773,ls),
(239,769,o),
(236,762,o),
(236,756,cs),
(236,742,o),
(248,731,o),
(262,731,cs),
(268,731,o),
(275,733,o)
);
},
{
closed = 1;
nodes = (
(157,37,cs),
(282,631,ls),
(289,665,o),
(264,695,o),
(230,695,cs),
(204,695,o),
(182,678,o),
(177,653,cs),
(52,59,ls),
(45,25,o),
(70,-5,o),
(104,-5,cs),
(130,-5,o),
(152,12,o)
);
}
);
width = 277;
}
);
note = Iacute;
unicode = 205;
},
{
glyphname = Icircumflex;
lastChange = "2022-11-29 13:44:05 +0000";
layers = (
{
hints = (
{
horizontal = 1;
place = (-56, 21);
target = up;
type = BottomGhost;
},
{
horizontal = 1;
place = (634, -20);
target = down;
type = TopGhost;
},
{
horizontal = 1;
place = (680, 46);
place = (680, 46);
type = Stem;
},
{
place = (39, 54);
place = (39, 54);
type = Stem;
}
);
layerId = m01;
shapes = (
{
closed = 1;
nodes = (
(223,742,cs),
(263,796,l),
(272,766,ls),
(278,745,o),
(283,736,o),
(285,736,cs),
(313,736,o),
(336,759,o),
(336,787,cs),
(336,815,o),
(313,838,o),
(285,838,cs),
(269,838,ls),
(234,838,o),
(203,819,o),
(186,792,cs),
(172,769,o),
(167,741,o),
(192,732,cs),
(195,731,o),
(198,731,o),
(201,731,cs),
(210,731,o),
(218,735,o)
);
},
{
closed = 1;
nodes = (
(177,653,cs),
(52,59,ls),
(45,25,o),
(70,-5,o),
(104,-5,cs),
(130,-5,o),
(152,12,o),
(157,37,cs),
(282,631,ls),
(289,665,o),
(264,695,o),
(230,695,cs),
(204,695,o),
(182,678,o)
);
}
);
width = 277;
}
);
note = Icircumflex;
unicode = 206;
},
{
glyphname = Idieresis;
lastChange = "2022-11-29 13:34:19 +0000";
layers = (
{
hints = (
{
horizontal = 1;
place = (-56, 21);
target = up;
type = BottomGhost;
},
{
horizontal = 1;
place = (634, -20);
target = down;
type = TopGhost;
},
{
horizontal = 1;
place = (677, 50);
place = (677, 50);
type = Stem;
},
{
place = (39, 54);
place = (39, 54);
type = Stem;
},
{
place = (-37, 51);
place = (-37, 51);
type = Stem;
},
{
place = (118, 51);
place = (118, 51);
type = Stem;
}
);
layerId = m01;
shapes = (
{
closed = 1;
nodes = (
(157,37,cs),
(282,631,ls),
(289,665,o),
(264,695,o),
(230,695,cs),
(204,695,o),
(182,678,o),
(177,653,cs),
(52,59,ls),
(45,25,o),
(70,-5,o),
(104,-5,cs),
(130,-5,o),
(152,12,o)
);
},
{
closed = 1;
nodes = (
(177,733,cs),
(190,733,ls),
(220,733,o),
(244,760,o),
(240,791,cs),
(236,820,o),
(213,844,o),
(183,844,cs),
(174,844,o),
(166,842,o),
(159,838,cs),
(139,828,o),
(124,809,o),
(124,786,cs),
(124,757,o),
(148,733,o)
);
},
{
closed = 1;
nodes = (
(332,733,cs),
(345,733,ls),
(375,733,o),
(399,760,o),
(395,791,cs),
(391,820,o),
(368,844,o),
(338,844,cs),
(329,844,o),
(321,842,o),
(314,838,cs),
(294,828,o),
(279,809,o),
(279,786,cs),
(279,757,o),
(303,733,o)
);
}
);
width = 277;
}
);
note = Idieresis;
unicode = 207;
},
{
glyphname = Idotaccent;
lastChange = "2022-11-29 13:34:19 +0000";
layers = (
{
hints = (
{
horizontal = 1;
place = (-56, 21);
target = up;
type = BottomGhost;
},
{
horizontal = 1;
place = (634, -20);
target = down;
type = TopGhost;
},
{
place = (39, 54);
place = (39, 54);
type = Stem;
},
{
horizontal = 1;
place = (533, 71);
place = (533, 71);
type = Stem;
},
{
place = (307, 73);
place = (307, 73);
type = Stem;
}
);
layerId = m01;
shapes = (
{
closed = 1;
nodes = (
(157,37,cs),
(282,631,ls),
(289,665,o),
(264,695,o),
(230,695,cs),
(204,695,o),
(182,678,o),
(177,653,cs),
(52,59,ls),
(45,25,o),
(70,-5,o),
(104,-5,cs),
(130,-5,o),
(152,12,o)
);
},
{
closed = 1;
nodes = (
(285,734,o),
(315,758,o),
(322,791,cs),
(329,823,o),
(309,847,o),
(276,847,cs),
(243,847,o),
(213,823,o),
(206,791,cs),
(199,758,o),
(219,734,o),
(252,734,cs)
);
}
);
width = 304;
}
);
unicode = 304;
},
{
glyphname = Igrave;
lastChange = "2022-11-29 13:44:05 +0000";
layers = (
{
hints = (
{
horizontal = 1;
place = (-56, 21);
target = up;
type = BottomGhost;
},
{
horizontal = 1;
place = (634, -20);
target = down;
type = TopGhost;
},
{
horizontal = 1;
place = (680, 46);
place = (680, 46);
type = Stem;
},
{
place = (39, 54);
place = (39, 54);
type = Stem;
}
);
layerId = m01;
shapes = (
{
closed = 1;
nodes = (
(273,775,c),
(255,819,ls),
(250,833,o),
(236,844,o),
(220,844,cs),
(199,844,o),
(181,826,o),
(181,805,cs),
(181,801,o),
(182,797,o),
(183,792,cs),
(187,774,o),
(197,758,o),
(211,747,cs),
(232,730,o),
(260,726,o),
(272,748,cs),
(275,753,o),
(276,758,o),
(276,763,cs),
(276,767,o),
(274,771,o)
);
},
{
closed = 1;
nodes = (
(157,37,cs),
(282,631,ls),
(289,665,o),
(264,695,o),
(230,695,cs),
(204,695,o),
(182,678,o),
(177,653,cs),
(52,59,ls),
(45,25,o),
(70,-5,o),
(104,-5,cs),
(130,-5,o),
(152,12,o)
);
}
);
width = 277;
}
);
note = Igrave;
unicode = 204;
},
{
glyphname = Imacron;
lastChange = "2022-11-29 13:34:19 +0000";
layers = (
{
hints = (
{
horizontal = 1;
place = (-56, 21);
target = up;
type = BottomGhost;
},
{
horizontal = 1;
place = (634, -20);
target = down;
type = TopGhost;
},
{
horizontal = 1;
place = (702, 7);
place = (702, 7);
type = Stem;
},
{
place = (39, 54);
place = (39, 54);
type = Stem;
}
);
layerId = m01;
shapes = (
{
closed = 1;
nodes = (
(363,758,ls),
(380,758,o),
(394,772,o),
(394,790,cs),
(394,807,o),
(380,821,o),
(363,821,cs),
(161,821,ls),
(144,821,o),
(130,807,o),
(130,789,cs),
(130,772,o),
(144,758,o),
(161,758,cs)
);
},
{
closed = 1;
nodes = (
(157,37,cs),
(282,631,ls),
(289,665,o),
(264,695,o),
(230,695,cs),
(204,695,o),
(182,678,o),
(177,653,cs),
(52,59,ls),
(45,25,o),
(70,-5,o),
(104,-5,cs),
(130,-5,o),
(152,12,o)
);
}
);
width = 277;
}
);
note = Imacron;
unicode = 298;
},
{
glyphname = Iogonek;
lastChange = "2022-11-29 13:44:05 +0000";
layers = (
{
hints = (
{
horizontal = 1;
place = (-279, 10);
place = (-279, 10);
type = Stem;
},
{
horizontal = 1;
place = (-56, 21);
target = up;
type = BottomGhost;
},
{
horizontal = 1;
place = (634, -20);
target = down;
type = TopGhost;
},
{
place = (39, 54);
place = (39, 54);
type = Stem;
},
{
place = (-68, 46);
place = (-68, 46);
type = Stem;
}
);
layerId = m01;
shapes = (
{
closed = 1;
nodes = (
(138,0,o),
(153,16,o),
(160,51,cs),
(282,631,ls),
(289,665,o),
(264,696,o),
(230,696,cs),
(204,696,o),
(182,678,o),
(177,653,cs),
(41,10,l),
(41,10,o),
(27,7,o),
(1,-9,cs),
(-45,-37,o),
(-86,-82,o),
(-98,-138,cs),
(-111,-201,o),
(-76,-223,o),
(-18,-223,cs),
(19,-223,o),
(53,-214,o),
(85,-199,cs),
(93,-195,o),
(98,-186,o),
(98,-177,cs),
(98,-161,o),
(83,-150,o),
(68,-154,cs),
(60,-156,o),
(52,-157,o),
(44,-157,cs),
(17,-157,o),
(3,-144,o),
(11,-107,cs),
(23,-50,o),
(70,-7,o),
(116,0,c)
);
}
);
width = 277;
}
);
note = Iogonek;
unicode = 302;
},
{
glyphname = J;
kernLeft = J;
kernRight = IJ;
lastChange = "2022-11-29 13:44:05 +0000";
layers = (
{
hints = (
{
horizontal = 1;
place = (-70, 28);
place = (-70, 28);
type = Stem;
},
{
horizontal = 1;
place = (634, -20);
target = down;
type = TopGhost;
},
{
place = (-3, 54);
place = (-3, 54);
type = Stem;
},
{
place = (347, 54);
place = (347, 54);
type = Stem;
}
);
layerId = m01;
shapes = (
{
closed = 1;
nodes = (
(590,631,ls),
(597,665,o),
(572,695,o),
(538,695,cs),
(512,695,o),
(490,678,o),
(485,653,cs),
(404,268,ls),
(397,236,o),
(392,212,o),
(386,191,cs),
(364,116,o),
(319,70,o),
(246,70,cs),
(183,70,o),
(148,99,o),
(149,167,cs),
(149,194,o),
(154,216,o),
(134,235,cs),
(124,245,o),
(110,251,o),
(95,251,cs),
(67,251,o),
(46,230,o),
(41,204,cs),
(17,70,o),
(75,-14,o),
(218,-14,cs),
(372,-14,o),
(461,67,o),
(493,184,cs),
(504,223,o),
(509,245,o),
(515,273,cs)
);
}
);
width = 568;
}
);
note = J;
unicode = 74;
},
{
glyphname = K;
kernRight = K;
lastChange = "2022-11-29 13:44:05 +0000";
layers = (
{
hints = (
{
horizontal = 1;
place = (-56, 21);
target = up;
type = BottomGhost;
},
{
horizontal = 1;
place = (634, -20);
target = down;
type = TopGhost;
},
{
place = (39, 54);
place = (39, 54);
type = Stem;
}
);
layerId = m01;
shapes = (
{
closed = 1;
nodes = (
(365,356,l),
(665,619,ls),
(706,655,o),
(701,690,o),
(657,690,cs),
(628,690,o),
(607,683,o),
(585,663,cs),
(221,339,l),
(282,631,ls),
(289,665,o),
(264,695,o),
(230,695,cs),
(204,695,o),
(182,678,o),
(177,653,cs),
(52,59,ls),
(45,25,o),
(70,-5,o),
(104,-5,cs),
(130,-5,o),
(152,12,o),
(157,37,cs),
(196,222,l),
(271,288,l),
(422,26,ls),
(433,8,o),
(453,-6,o),
(476,-6,cs),
(510,-6,o),
(538,22,o),
(538,57,cs),
(538,69,o),
(535,79,o),
(529,89,cs)
);
}
);
width = 643;
}
);
note = K;
unicode = 75;
},
{
glyphname = Kcommaaccent;
kernRight = K;
lastChange = "2022-11-29 13:44:05 +0000";
layers = (
{
hints = (
{
horizontal = 1;
place = (-256, 96);
place = (-256, 96);
type = Stem;
},
{
horizontal = 1;
place = (-56, 21);
target = up;
type = BottomGhost;
},
{
horizontal = 1;
place = (634, -20);
target = down;
type = TopGhost;
},
{
place = (39, 54);
place = (39, 54);
type = Stem;
}
);
layerId = m01;
shapes = (
{
closed = 1;
nodes = (
(365,356,l),
(665,619,ls),
(706,655,o),
(701,690,o),
(657,690,cs),
(628,690,o),
(607,683,o),
(585,663,cs),
(221,339,l),
(282,631,ls),
(289,665,o),
(264,695,o),
(230,695,cs),
(204,695,o),
(182,678,o),
(177,653,cs),
(52,59,ls),
(45,25,o),
(70,-5,o),
(104,-5,cs),
(130,-5,o),
(152,12,o),
(157,37,cs),
(196,222,l),
(271,288,l),
(422,26,ls),
(433,8,o),
(453,-6,o),
(476,-6,cs),
(510,-6,o),
(538,22,o),
(538,57,cs),
(538,69,o),
(535,79,o),
(529,89,cs)
);
},
{
closed = 1;
nodes = (
(236,-64,cs),
(178,-159,ls),
(175,-163,o),
(174,-169,o),
(174,-175,cs),
(174,-192,o),
(188,-206,o),
(204,-206,cs),
(215,-206,o),
(224,-200,o),
(229,-193,cs),
(293,-104,ls),
(314,-74,o),
(317,-34,o),
(281,-29,c),
(274,-29,ls),
(254,-29,o),
(246,-48,o)
);
}
);
width = 643;
}
);
note = Kcommaaccent;
unicode = 310;
},
{
glyphname = L;
kernRight = L;
lastChange = "2022-11-29 13:44:05 +0000";
layers = (
{
hints = (
{
horizontal = 1;
place = (-56, 35);
place = (-56, 35);
type = Stem;
},
{
horizontal = 1;
place = (634, -20);
target = down;
type = TopGhost;
},
{
place = (39, 54);
place = (39, 54);
type = Stem;
}
);
layerId = m01;
shapes = (
{
closed = 1;
nodes = (
(485,91,cs),
(168,91,l),
(282,631,ls),
(289,665,o),
(264,696,o),
(230,696,cs),
(204,696,o),
(182,678,o),
(177,653,cs),
(52,63,ls),
(44,24,o),
(64,0,o),
(104,0,cs),
(485,0,ls),
(510,0,o),
(530,20,o),
(530,46,cs),
(530,71,o),
(510,91,o)
);
}
);
width = 588;
}
);
note = L;
unicode = 76;
},
{
glyphname = Lacute;
kernRight = L;
lastChange = "2022-11-29 13:44:05 +0000";
layers = (
{
hints = (
{
horizontal = 1;
place = (-56, 35);
place = (-56, 35);
type = Stem;
},
{
horizontal = 1;
place = (634, -20);
target = down;
type = TopGhost;
},
{
horizontal = 1;
place = (680, 46);
place = (680, 46);
type = Stem;
},
{
place = (39, 54);
place = (39, 54);
type = Stem;
}
);
layerId = m01;
shapes = (
{
closed = 1;
nodes = (
(279,737,cs),
(337,787,ls),
(344,793,o),
(349,802,o),
(349,811,cs),
(349,829,o),
(334,844,o),
(317,844,cs),
(307,844,o),
(298,839,o),
(292,832,cs),
(242,773,ls),
(239,769,o),
(236,762,o),
(236,756,cs),
(236,742,o),
(248,731,o),
(262,731,cs),
(268,731,o),
(275,733,o)
);
},
{
closed = 1;
nodes = (
(485,91,cs),
(168,91,l),
(282,631,ls),
(289,665,o),
(264,696,o),
(230,696,cs),
(204,696,o),
(182,678,o),
(177,653,cs),
(52,63,ls),
(44,24,o),
(64,0,o),
(104,0,cs),
(485,0,ls),
(510,0,o),
(530,20,o),
(530,46,cs),
(530,71,o),
(510,91,o)
);
}
);
width = 588;
}
);
note = Lacute;
unicode = 313;
},
{
glyphname = Lcaron;
kernRight = L;
lastChange = "2022-11-29 13:44:05 +0000";
layers = (
{
hints = (
{
horizontal = 1;
place = (-56, 35);
place = (-56, 35);
type = Stem;
},
{
horizontal = 1;
place = (634, -20);
target = down;
type = TopGhost;
},
{
place = (39, 54);
place = (39, 54);
type = Stem;
}
);
layerId = m01;
shapes = (
{
closed = 1;
nodes = (
(485,91,cs),
(168,91,l),
(282,631,ls),
(289,665,o),
(264,696,o),
(230,696,cs),
(204,696,o),
(182,678,o),
(177,653,cs),
(52,63,ls),
(44,24,o),
(64,0,o),
(104,0,cs),
(485,0,ls),
(510,0,o),
(530,20,o),
(530,46,cs),
(530,71,o),
(510,91,o)
);
}
);
width = 588;
}
);
note = Lcaron;
unicode = 317;
},
{
glyphname = Lcommaaccent;
kernRight = L;
lastChange = "2022-11-29 13:44:05 +0000";
layers = (
{
hints = (
{
horizontal = 1;
place = (-256, 96);
place = (-256, 96);
type = Stem;
},
{
horizontal = 1;
place = (-56, 35);
place = (-56, 35);
type = Stem;
},
{
horizontal = 1;
place = (634, -20);
target = down;
type = TopGhost;
},
{
place = (39, 54);
place = (39, 54);
type = Stem;
}
);
layerId = m01;
shapes = (
{
closed = 1;
nodes = (
(485,91,cs),
(168,91,l),
(282,631,ls),
(289,665,o),
(264,696,o),
(230,696,cs),
(204,696,o),
(182,678,o),
(177,653,cs),
(52,63,ls),
(44,24,o),
(64,0,o),
(104,0,cs),
(485,0,ls),
(510,0,o),
(530,20,o),
(530,46,cs),
(530,71,o),
(510,91,o)
);
},
{
closed = 1;
nodes = (
(226,-64,cs),
(168,-159,ls),
(165,-163,o),
(164,-169,o),
(164,-175,cs),
(164,-192,o),
(178,-206,o),
(194,-206,cs),
(205,-206,o),
(214,-200,o),
(219,-193,cs),
(283,-104,ls),
(304,-74,o),
(307,-34,o),
(271,-29,c),
(264,-29,ls),
(244,-29,o),
(236,-48,o)
);
}
);
width = 588;
}
);
note = Lcommaaccent;
unicode = 315;
},
{
glyphname = Ldot;
kernRight = L;
lastChange = "2022-11-29 13:44:05 +0000";
layers = (
{
hints = (
{
horizontal = 1;
place = (-56, 35);
place = (-56, 35);
type = Stem;
},
{
horizontal = 1;
place = (278, 76);
place = (278, 76);
type = Stem;
},
{
horizontal = 1;
place = (634, -20);
target = down;
type = TopGhost;
},
{
place = (39, 54);
place = (39, 54);
type = Stem;
},
{
place = (284, 77);
place = (284, 77);
type = Stem;
}
);
layerId = m01;
shapes = (
{
closed = 1;
nodes = (
(485,91,cs),
(168,91,l),
(282,631,ls),
(289,665,o),
(264,696,o),
(230,696,cs),
(204,696,o),
(182,678,o),
(177,653,cs),
(52,63,ls),
(44,24,o),
(64,0,o),
(104,0,cs),
(485,0,ls),
(510,0,o),
(530,20,o),
(530,46,cs),
(530,71,o),
(510,91,o)
);
},
{
closed = 1;
nodes = (
(459,334,o),
(494,363,o),
(502,400,cs),
(510,438,o),
(487,466,o),
(450,466,cs),
(412,466,o),
(377,438,o),
(369,400,cs),
(361,363,o),
(384,334,o),
(422,334,cs)
);
}
);
width = 588;
}
);
note = Ldot;
unicode = 319;
},
{
glyphname = Lslash;
kernRight = L;
lastChange = "2022-11-29 13:44:05 +0000";
layers = (
{
hints = (
{
horizontal = 1;
place = (-56, 35);
place = (-56, 35);
type = Stem;
},
{
horizontal = 1;
place = (634, -20);
target = down;
type = TopGhost;
},
{
place = (66, 53);
place = (66, 53);
type = Stem;
}
);
layerId = m01;
shapes = (
{
closed = 1;
nodes = (
(511,91,cs),
(194,91,l),
(249,350,l),
(372,414,ls),
(382,419,o),
(389,429,o),
(389,441,cs),
(389,458,o),
(375,472,o),
(358,472,cs),
(353,472,o),
(348,470,o),
(344,468,cs),
(266,428,l),
(309,631,ls),
(316,665,o),
(290,696,o),
(256,696,cs),
(231,696,o),
(209,678,o),
(204,653,cs),
(143,365,l),
(33,308,ls),
(23,303,o),
(16,293,o),
(16,281,cs),
(16,264,o),
(30,250,o),
(47,250,cs),
(52,250,o),
(57,251,o),
(61,253,cs),
(127,287,l),
(79,63,ls),
(71,23,o),
(91,0,o),
(131,0,cs),
(511,0,ls),
(536,0,o),
(556,20,o),
(556,46,cs),
(556,71,o),
(536,91,o)
);
}
);
width = 615;
}
);
note = Lslash;
unicode = 321;
},
{
glyphname = M;
lastChange = "2022-11-29 13:44:05 +0000";
layers = (
{
hints = (
{
horizontal = 1;
place = (-56, 21);
target = up;
type = BottomGhost;
},
{
horizontal = 1;
place = (634, -20);
target = down;
type = TopGhost;
},
{
place = (39, 54);
place = (39, 54);
type = Stem;
},
{
place = (643, 53);
place = (643, 53);
type = Stem;
},
{
horizontal = 1;
place = (-56, 42);
place = (-56, 42);
type = Stem;
},
{
horizontal = 1;
place = (529, 49);
place = (529, 49);
type = Stem;
}
);
layerId = m01;
shapes = (
{
closed = 1;
nodes = (
(885,627,ls),
(893,666,o),
(873,690,o),
(833,690,cs),
(773,690,ls),
(741,690,o),
(719,676,o),
(704,648,cs),
(419,98,l),
(367,635,ls),
(364,671,o),
(343,690,o),
(307,690,cs),
(237,690,ls),
(202,690,o),
(181,674,o),
(174,639,cs),
(52,59,ls),
(45,25,o),
(70,-6,o),
(104,-6,cs),
(130,-6,o),
(152,12,o),
(157,37,cs),
(221,339,ls),
(238,418,o),
(257,511,o),
(271,585,c),
(275,512,o),
(284,418,o),
(292,341,cs),
(326,54,ls),
(330,18,o),
(351,0,o),
(387,0,cs),
(412,0,ls),
(444,0,o),
(466,12,o),
(481,41,cs),
(642,340,ls),
(685,418,o),
(734,513,o),
(769,586,c),
(752,513,o),
(732,418,o),
(715,339,cs),
(656,59,ls),
(649,25,o),
(674,-5,o),
(708,-5,cs),
(733,-5,o),
(755,12,o),
(760,37,cs)
);
}
);
width = 880;
}
);
note = M;
unicode = 77;
},
{
glyphname = N;
lastChange = "2022-11-29 13:44:05 +0000";
layers = (
{
hints = (
{
horizontal = 1;
place = (-56, 21);
target = up;
type = BottomGhost;
},
{
horizontal = 1;
place = (634, -20);
target = down;
type = TopGhost;
},
{
place = (39, 54);
place = (39, 54);
type = Stem;
},
{
place = (500, 52);
place = (500, 52);
type = Stem;
},
{
horizontal = 1;
place = (-56, 61);
place = (-56, 61);
type = Stem;
},
{
horizontal = 1;
place = (513, 65);
place = (513, 65);
type = Stem;
}
);
layerId = m01;
shapes = (
{
closed = 1;
nodes = (
(557,0,ls),
(592,0,o),
(613,16,o),
(620,51,cs),
(742,632,ls),
(749,665,o),
(724,696,o),
(690,696,cs),
(665,696,o),
(643,678,o),
(638,654,cs),
(576,358,ls),
(561,287,o),
(542,195,o),
(528,117,c),
(356,643,ls),
(346,675,o),
(324,690,o),
(290,690,cs),
(237,690,ls),
(202,690,o),
(181,674,o),
(174,639,cs),
(52,59,ls),
(45,25,o),
(70,-6,o),
(104,-6,cs),
(130,-6,o),
(152,12,o),
(157,37,cs),
(219,330,ls),
(234,401,o),
(252,490,o),
(266,569,c),
(436,48,ls),
(446,16,o),
(467,0,o),
(501,0,cs)
);
}
);
width = 737;
}
);
note = N;
unicode = 78;
},
{
glyphname = Nacute;
lastChange = "2022-11-29 13:44:05 +0000";
layers = (
{
hints = (
{
horizontal = 1;
place = (-56, 21);
target = up;
type = BottomGhost;
},
{
horizontal = 1;
place = (634, -20);
target = down;
type = TopGhost;
},
{
horizontal = 1;
place = (680, 46);
place = (680, 46);
type = Stem;
},
{
place = (39, 54);
place = (39, 54);
type = Stem;
},
{
place = (500, 52);
place = (500, 52);
type = Stem;
},
{
horizontal = 1;
place = (-56, 61);
place = (-56, 61);
type = Stem;
},
{
horizontal = 1;
place = (513, 65);
place = (513, 65);
type = Stem;
}
);
layerId = m01;
shapes = (
{
closed = 1;
nodes = (
(508,737,cs),
(566,787,ls),
(573,793,o),
(578,802,o),
(578,811,cs),
(578,829,o),
(563,844,o),
(546,844,cs),
(536,844,o),
(527,839,o),
(521,832,cs),
(471,773,ls),
(468,769,o),
(465,762,o),
(465,756,cs),
(465,742,o),
(477,731,o),
(491,731,cs),
(497,731,o),
(504,733,o)
);
},
{
closed = 1;
nodes = (
(557,0,ls),
(592,0,o),
(613,16,o),
(620,51,cs),
(742,632,ls),
(749,665,o),
(724,696,o),
(690,696,cs),
(665,696,o),
(643,678,o),
(638,654,cs),
(576,358,ls),
(561,287,o),
(542,195,o),
(528,117,c),
(356,643,ls),
(346,675,o),
(324,690,o),
(290,690,cs),
(237,690,ls),
(202,690,o),
(181,674,o),
(174,639,cs),
(52,59,ls),
(45,25,o),
(70,-6,o),
(104,-6,cs),
(130,-6,o),
(152,12,o),
(157,37,cs),
(219,330,ls),
(234,401,o),
(252,490,o),
(266,569,c),
(436,48,ls),
(446,16,o),
(467,0,o),
(501,0,cs)
);
}
);
width = 737;
}
);
note = Nacute;
unicode = 323;
},
{
glyphname = Ncaron;
lastChange = "2022-11-29 13:44:05 +0000";
layers = (
{
hints = (
{
horizontal = 1;
place = (-56, 21);
target = up;
type = BottomGhost;
},
{
horizontal = 1;
place = (634, -20);
target = down;
type = TopGhost;
},
{
horizontal = 1;
place = (680, 46);
place = (680, 46);
type = Stem;
},
{
place = (39, 54);
place = (39, 54);
type = Stem;
},
{
place = (500, 52);
place = (500, 52);
type = Stem;
},
{
horizontal = 1;
place = (-56, 61);
place = (-56, 61);
type = Stem;
},
{
horizontal = 1;
place = (513, 65);
place = (513, 65);
type = Stem;
}
);
layerId = m01;
shapes = (
{
closed = 1;
nodes = (
(467,736,cs),
(483,736,ls),
(518,736,o),
(549,755,o),
(566,782,cs),
(580,805,o),
(585,832,o),
(561,842,cs),
(558,843,o),
(554,844,o),
(551,844,cs),
(542,844,o),
(534,839,o),
(529,832,cs),
(489,777,l),
(480,808,ls),
(474,828,o),
(469,838,o),
(467,838,cs),
(439,838,o),
(416,815,o),
(416,787,cs),
(416,759,o),
(439,736,o)
);
},
{
closed = 1;
nodes = (
(436,48,ls),
(446,16,o),
(467,0,o),
(501,0,cs),
(557,0,ls),
(592,0,o),
(613,16,o),
(620,51,cs),
(742,632,ls),
(749,665,o),
(724,696,o),
(690,696,cs),
(665,696,o),
(643,678,o),
(638,654,cs),
(576,358,ls),
(561,287,o),
(542,195,o),
(528,117,c),
(356,643,ls),
(346,675,o),
(324,690,o),
(290,690,cs),
(237,690,ls),
(202,690,o),
(181,674,o),
(174,639,cs),
(52,59,ls),
(45,25,o),
(70,-6,o),
(104,-6,cs),
(130,-6,o),
(152,12,o),
(157,37,cs),
(219,330,ls),
(234,401,o),
(252,490,o),
(266,569,c)
);
}
);
width = 737;
}
);
note = Ncaron;
unicode = 327;
},
{
glyphname = Ncommaaccent;
lastChange = "2022-11-29 13:44:05 +0000";
layers = (
{
hints = (
{
horizontal = 1;
place = (-256, 96);
place = (-256, 96);
type = Stem;
},
{
horizontal = 1;
place = (-56, 21);
target = up;
type = BottomGhost;
},
{
horizontal = 1;
place = (634, -20);
target = down;
type = TopGhost;
},
{
place = (39, 54);
place = (39, 54);
type = Stem;
},
{
place = (500, 52);
place = (500, 52);
type = Stem;
},
{
horizontal = 1;
place = (-56, 61);
place = (-56, 61);
type = Stem;
},
{
horizontal = 1;
place = (513, 65);
place = (513, 65);
type = Stem;
}
);
layerId = m01;
shapes = (
{
closed = 1;
nodes = (
(557,0,ls),
(592,0,o),
(613,16,o),
(620,51,cs),
(742,632,ls),
(749,665,o),
(724,696,o),
(690,696,cs),
(665,696,o),
(643,678,o),
(638,654,cs),
(576,358,ls),
(561,287,o),
(542,195,o),
(528,117,c),
(356,643,ls),
(346,675,o),
(324,690,o),
(290,690,cs),
(237,690,ls),
(202,690,o),
(181,674,o),
(174,639,cs),
(52,59,ls),
(45,25,o),
(70,-6,o),
(104,-6,cs),
(130,-6,o),
(152,12,o),
(157,37,cs),
(219,330,ls),
(234,401,o),
(252,490,o),
(266,569,c),
(436,48,ls),
(446,16,o),
(467,0,o),
(501,0,cs)
);
},
{
closed = 1;
nodes = (
(330,-103,ls),
(351,-73,o),
(354,-34,o),
(318,-29,c),
(312,-29,ls),
(291,-29,o),
(283,-48,o),
(273,-64,cs),
(216,-159,ls),
(213,-163,o),
(211,-169,o),
(211,-175,cs),
(211,-192,o),
(225,-205,o),
(241,-205,cs),
(252,-205,o),
(261,-200,o),
(266,-193,cs)
);
}
);
width = 737;
}
);
note = Ncommaaccent;
unicode = 325;
},
{
glyphname = Eng;
lastChange = "2022-11-29 13:44:05 +0000";
layers = (
{
hints = (
{
horizontal = 1;
place = (-279, 29);
place = (-279, 29);
type = Stem;
},
{
horizontal = 1;
place = (-56, 21);
target = up;
type = BottomGhost;
},
{
horizontal = 1;
place = (634, -20);
target = down;
type = TopGhost;
},
{
place = (39, 54);
place = (39, 54);
type = Stem;
},
{
place = (500, 53);
place = (500, 53);
type = Stem;
},
{
horizontal = 1;
place = (507, 71);
place = (507, 71);
type = Stem;
}
);
layerId = m01;
shapes = (
{
closed = 1;
nodes = (
(743,631,ls),
(750,665,o),
(724,696,o),
(690,696,cs),
(665,696,o),
(643,678,o),
(638,653,cs),
(581,383,ls),
(566,312,o),
(551,235,o),
(536,157,c),
(357,644,ls),
(346,675,o),
(324,690,o),
(291,690,cs),
(237,690,ls),
(202,690,o),
(181,674,o),
(174,639,cs),
(52,59,ls),
(45,25,o),
(70,-6,o),
(104,-6,cs),
(130,-6,o),
(152,12,o),
(157,37,cs),
(219,330,ls),
(234,401,o),
(251,484,o),
(264,563,c),
(493,-28,l),
(484,-71,ls),
(477,-106,o),
(460,-128,o),
(420,-135,cs),
(400,-138,o),
(384,-156,o),
(384,-177,cs),
(384,-202,o),
(406,-222,o),
(431,-219,cs),
(512,-211,o),
(562,-178,o),
(585,-106,cs),
(589,-92,o),
(591,-83,o),
(595,-65,cs)
);
}
);
width = 737;
}
);
note = Eng;
unicode = 330;
},
{
glyphname = Ntilde;
lastChange = "2022-11-29 13:44:05 +0000";
layers = (
{
hints = (
{
horizontal = 1;
place = (-56, 21);
target = up;
type = BottomGhost;
},
{
horizontal = 1;
place = (634, -20);
target = down;
type = TopGhost;
},
{
horizontal = 1;
place = (692, 31);
place = (692, 31);
type = Stem;
},
{
place = (39, 54);
place = (39, 54);
type = Stem;
},
{
place = (203, -4);
place = (203, -4);
type = Stem;
},
{
place = (500, 52);
place = (500, 52);
type = Stem;
},
{
horizontal = 1;
place = (688, 31);
place = (688, 31);
type = Stem;
},
{
place = (391, -3);
place = (391, -3);
type = Stem;
},
{
horizontal = 1;
place = (-56, 61);
place = (-56, 61);
type = Stem;
},
{
horizontal = 1;
place = (513, 65);
place = (513, 65);
type = Stem;
}
);
layerId = m01;
shapes = (
{
closed = 1;
nodes = (
(409,835,o),
(385,820,o),
(370,776,cs),
(365,762,o),
(375,742,o),
(394,742,cs),
(405,742,o),
(414,748,o),
(418,758,cs),
(422,768,o),
(428,771,o),
(435,771,cs),
(444,771,o),
(454,767,o),
(476,759,cs),
(504,748,o),
(519,744,o),
(540,744,cs),
(573,744,o),
(596,759,o),
(611,803,cs),
(616,817,o),
(606,837,o),
(587,837,cs),
(576,837,o),
(567,831,o),
(563,821,cs),
(559,811,o),
(554,808,o),
(546,808,cs),
(538,808,o),
(527,812,o),
(505,820,cs),
(478,831,o),
(463,835,o),
(441,835,cs)
);
},
{
closed = 1;
nodes = (
(557,0,ls),
(592,0,o),
(613,16,o),
(620,51,cs),
(742,632,ls),
(749,665,o),
(724,696,o),
(690,696,cs),
(665,696,o),
(643,678,o),
(638,654,cs),
(576,358,ls),
(561,287,o),
(542,195,o),
(528,117,c),
(356,643,ls),
(346,675,o),
(324,690,o),
(290,690,cs),
(237,690,ls),
(202,690,o),
(181,674,o),
(174,639,cs),
(52,59,ls),
(45,25,o),
(70,-6,o),
(104,-6,cs),
(130,-6,o),
(152,12,o),
(157,37,cs),
(219,330,ls),
(234,401,o),
(252,490,o),
(266,569,c),
(436,48,ls),
(446,16,o),
(467,0,o),
(501,0,cs)
);
}
);
width = 737;
}
);
note = Ntilde;
unicode = 209;
},
{
glyphname = O;
kernLeft = C;
kernRight = D;
lastChange = "2022-11-29 13:28:25 +0000";
layers = (
{
hints = (
{
horizontal = 1;
place = (-70, 28);
place = (-70, 28);
type = Stem;
},
{
horizontal = 1;
place = (564, 28);
place = (564, 28);
type = Stem;
},
{
place = (-7, 62);
place = (-7, 62);
type = Stem;
},
{
place = (540, 62);
place = (540, 62);
type = Stem;
}
);
layerId = m01;
shapes = (
{
closed = 1;
nodes = (
(263,704,o),
(111,559,o),
(66,345,cs),
(21,132,o),
(111,-14,o),
(323,-14,cs),
(534,-14,o),
(686,132,o),
(731,345,cs),
(776,559,o),
(686,704,o),
(475,704,cs)
);
},
{
closed = 1;
nodes = (
(206,70,o),
(148,174,o),
(184,345,cs),
(221,517,o),
(322,620,o),
(457,620,cs),
(591,620,o),
(650,517,o),
(613,345,cs),
(577,174,o),
(475,70,o),
(341,70,cs)
);
}
);
width = 750;
}
);
note = O;
unicode = 79;
},
{
glyphname = Oacute;
kernLeft = C;
kernRight = D;
lastChange = "2022-11-29 13:34:19 +0000";
layers = (
{
hints = (
{
horizontal = 1;
place = (-70, 28);
place = (-70, 28);
type = Stem;
},
{
horizontal = 1;
place = (564, 28);
place = (564, 28);
type = Stem;
},
{
horizontal = 1;
place = (680, 46);
place = (680, 46);
type = Stem;
},
{
place = (-7, 62);
place = (-7, 62);
type = Stem;
},
{
place = (540, 62);
place = (540, 62);
type = Stem;
}
);
layerId = m01;
shapes = (
{
closed = 1;
nodes = (
(511,737,cs),
(569,787,ls),
(576,793,o),
(581,802,o),
(581,811,cs),
(581,829,o),
(566,844,o),
(549,844,cs),
(539,844,o),
(530,839,o),
(524,832,cs),
(474,773,ls),
(471,769,o),
(468,762,o),
(468,756,cs),
(468,742,o),
(480,731,o),
(494,731,cs),
(500,731,o),
(507,733,o)
);
},
{
closed = 1;
nodes = (
(263,704,o),
(111,559,o),
(66,345,cs),
(21,132,o),
(111,-14,o),
(323,-14,cs),
(534,-14,o),
(686,132,o),
(731,345,cs),
(776,559,o),
(686,704,o),
(475,704,cs)
);
},
{
closed = 1;
nodes = (
(206,70,o),
(148,174,o),
(184,345,cs),
(221,517,o),
(322,620,o),
(457,620,cs),
(591,620,o),
(650,517,o),
(613,345,cs),
(577,174,o),
(475,70,o),
(341,70,cs)
);
}
);
width = 750;
}
);
note = Oacute;
unicode = 211;
},
{
glyphname = Ocircumflex;
kernLeft = C;
kernRight = D;
lastChange = "2022-11-29 13:44:05 +0000";
layers = (
{
hints = (
{
horizontal = 1;
place = (-70, 28);
place = (-70, 28);
type = Stem;
},
{
horizontal = 1;
place = (564, 28);
place = (564, 28);
type = Stem;
},
{
horizontal = 1;
place = (680, 46);
place = (680, 46);
type = Stem;
},
{
place = (-7, 62);
place = (-7, 62);
type = Stem;
},
{
place = (540, 62);
place = (540, 62);
type = Stem;
}
);
layerId = m01;
shapes = (
{
closed = 1;
nodes = (
(455,742,cs),
(495,796,l),
(504,766,ls),
(510,745,o),
(515,736,o),
(517,736,cs),
(545,736,o),
(568,759,o),
(568,787,cs),
(568,815,o),
(545,838,o),
(517,838,cs),
(501,838,ls),
(466,838,o),
(435,819,o),
(418,792,cs),
(404,769,o),
(399,741,o),
(424,732,cs),
(427,731,o),
(430,731,o),
(433,731,cs),
(442,731,o),
(450,735,o)
);
},
{
closed = 1;
nodes = (
(263,704,o),
(111,559,o),
(66,345,cs),
(21,132,o),
(111,-14,o),
(323,-14,cs),
(534,-14,o),
(686,132,o),
(731,345,cs),
(776,559,o),
(686,704,o),
(475,704,cs)
);
},
{
closed = 1;
nodes = (
(206,70,o),
(148,174,o),
(184,345,cs),
(221,517,o),
(322,620,o),
(457,620,cs),
(591,620,o),
(650,517,o),
(613,345,cs),
(577,174,o),
(475,70,o),
(341,70,cs)
);
}
);
width = 750;
}
);
note = Ocircumflex;
unicode = 212;
},
{
glyphname = Odieresis;
kernLeft = C;
kernRight = D;
lastChange = "2022-11-29 13:34:19 +0000";
layers = (
{
hints = (
{
horizontal = 1;
place = (-70, 28);
place = (-70, 28);
type = Stem;
},
{
horizontal = 1;
place = (564, 28);
place = (564, 28);
type = Stem;
},
{
horizontal = 1;
place = (677, 50);
place = (677, 50);
type = Stem;
},
{
place = (-7, 62);
place = (-7, 62);
type = Stem;
},
{
place = (195, 51);
place = (195, 51);
type = Stem;
},
{
place = (350, 51);
place = (350, 51);
type = Stem;
},
{
place = (540, 62);
place = (540, 62);
type = Stem;
}
);
layerId = m01;
shapes = (
{
closed = 1;
nodes = (
(263,704,o),
(111,559,o),
(66,345,cs),
(21,132,o),
(111,-14,o),
(323,-14,cs),
(534,-14,o),
(686,132,o),
(731,345,cs),
(776,559,o),
(686,704,o),
(475,704,cs)
);
},
{
closed = 1;
nodes = (
(206,70,o),
(148,174,o),
(184,345,cs),
(221,517,o),
(322,620,o),
(457,620,cs),
(591,620,o),
(650,517,o),
(613,345,cs),
(577,174,o),
(475,70,o),
(341,70,cs)
);
},
{
closed = 1;
nodes = (
(413,733,cs),
(426,733,ls),
(456,733,o),
(480,760,o),
(476,791,cs),
(472,820,o),
(449,844,o),
(419,844,cs),
(410,844,o),
(402,842,o),
(395,838,cs),
(375,828,o),
(360,809,o),
(360,786,cs),
(360,757,o),
(384,733,o)
);
},
{
closed = 1;
nodes = (
(568,733,cs),
(581,733,ls),
(611,733,o),
(635,760,o),
(631,791,cs),
(627,820,o),
(604,844,o),
(574,844,cs),
(565,844,o),
(557,842,o),
(550,838,cs),
(530,828,o),
(515,809,o),
(515,786,cs),
(515,757,o),
(539,733,o)
);
}
);
width = 750;
}
);
note = Odieresis;
unicode = 214;
},
{
glyphname = Ograve;
kernLeft = C;
kernRight = D;
lastChange = "2022-11-29 13:44:05 +0000";
layers = (
{
hints = (
{
horizontal = 1;
place = (-70, 28);
place = (-70, 28);
type = Stem;
},
{
horizontal = 1;
place = (564, 28);
place = (564, 28);
type = Stem;
},
{
horizontal = 1;
place = (680, 46);
place = (680, 46);
type = Stem;
},
{
place = (-7, 62);
place = (-7, 62);
type = Stem;
},
{
place = (540, 62);
place = (540, 62);
type = Stem;
}
);
layerId = m01;
shapes = (
{
closed = 1;
nodes = (
(439,750,cs),
(459,731,o),
(489,737,o),
(501,762,cs),
(505,770,o),
(507,778,o),
(507,787,cs),
(507,798,o),
(504,809,o),
(498,817,cs),
(485,837,o),
(459,843,o),
(439,824,cs),
(429,815,o),
(423,801,o),
(423,787,cs),
(423,773,o),
(429,759,o)
);
},
{
closed = 1;
nodes = (
(263,704,o),
(111,559,o),
(66,345,cs),
(21,132,o),
(111,-14,o),
(323,-14,cs),
(534,-14,o),
(686,132,o),
(731,345,cs),
(776,559,o),
(686,704,o),
(475,704,cs)
);
},
{
closed = 1;
nodes = (
(206,70,o),
(148,174,o),
(184,345,cs),
(221,517,o),
(322,620,o),
(457,620,cs),
(591,620,o),
(650,517,o),
(613,345,cs),
(577,174,o),
(475,70,o),
(341,70,cs)
);
}
);
width = 750;
}
);
note = Ograve;
unicode = 210;
},
{
glyphname = Ohungarumlaut;
kernLeft = C;
kernRight = D;
lastChange = "2022-11-29 13:44:05 +0000";
layers = (
{
hints = (
{
horizontal = 1;
place = (-70, 28);
place = (-70, 28);
type = Stem;
},
{
horizontal = 1;
place = (564, 28);
place = (564, 28);
type = Stem;
},
{
horizontal = 1;
place = (680, 46);
place = (680, 46);
type = Stem;
},
{
place = (-7, 62);
place = (-7, 62);
type = Stem;
},
{
place = (540, 62);
place = (540, 62);
type = Stem;
}
);
layerId = m01;
shapes = (
{
closed = 1;
nodes = (
(427,737,cs),
(485,787,ls),
(492,793,o),
(497,802,o),
(497,811,cs),
(497,829,o),
(482,844,o),
(465,844,cs),
(455,844,o),
(446,839,o),
(440,832,cs),
(390,773,ls),
(387,769,o),
(384,762,o),
(384,756,cs),
(384,742,o),
(396,731,o),
(410,731,cs),
(416,731,o),
(423,733,o)
);
},
{
closed = 1;
nodes = (
(621,791,l),
(624,794,o),
(629,802,o),
(629,812,cs),
(629,833,o),
(609,848,o),
(589,842,cs),
(576,839,o),
(565,831,o),
(557,822,cs),
(542,805,o),
(561,787,o),
(584,788,cs),
(602,789,o)
);
},
{
closed = 1;
nodes = (
(263,704,o),
(111,559,o),
(66,345,cs),
(21,132,o),
(111,-14,o),
(323,-14,cs),
(534,-14,o),
(686,132,o),
(731,345,cs),
(776,559,o),
(686,704,o),
(475,704,cs)
);
},
{
closed = 1;
nodes = (
(206,70,o),
(148,174,o),
(184,345,cs),
(221,517,o),
(322,620,o),
(457,620,cs),
(591,620,o),
(650,517,o),
(613,345,cs),
(577,174,o),
(475,70,o),
(341,70,cs)
);
}
);
width = 750;
}
);
note = Ohungarumlaut;
unicode = 336;
},
{
glyphname = Omacron;
kernLeft = C;
kernRight = D;
lastChange = "2022-11-29 13:34:19 +0000";
layers = (
{
hints = (
{
horizontal = 1;
place = (-70, 28);
place = (-70, 28);
type = Stem;
},
{
horizontal = 1;
place = (564, 28);
place = (564, 28);
type = Stem;
},
{
horizontal = 1;
place = (702, 7);
place = (702, 7);
type = Stem;
},
{
place = (-7, 62);
place = (-7, 62);
type = Stem;
},
{
place = (199, 199);
place = (199, 199);
type = Stem;
},
{
place = (540, 62);
place = (540, 62);
type = Stem;
}
);
layerId = m01;
shapes = (
{
closed = 1;
nodes = (
(595,758,ls),
(612,758,o),
(626,772,o),
(626,790,cs),
(626,807,o),
(612,821,o),
(595,821,cs),
(393,821,ls),
(376,821,o),
(362,807,o),
(362,790,cs),
(362,772,o),
(376,758,o),
(393,758,cs)
);
},
{
closed = 1;
nodes = (
(263,704,o),
(111,559,o),
(66,345,cs),
(21,132,o),
(111,-14,o),
(323,-14,cs),
(534,-14,o),
(686,132,o),
(731,345,cs),
(776,559,o),
(686,704,o),
(475,704,cs)
);
},
{
closed = 1;
nodes = (
(206,70,o),
(148,174,o),
(184,345,cs),
(221,517,o),
(322,620,o),
(457,620,cs),
(591,620,o),
(650,517,o),
(613,345,cs),
(577,174,o),
(475,70,o),
(341,70,cs)
);
}
);
width = 750;
}
);
note = Omacron;
unicode = 332;
},
{
glyphname = Oslash;
kernLeft = C;
kernRight = D;
lastChange = "2022-11-29 13:34:19 +0000";
layers = (
{
hints = (
{
horizontal = 1;
place = (-70, 28);
place = (-70, 28);
type = Stem;
},
{
horizontal = 1;
place = (564, 28);
place = (564, 28);
type = Stem;
},
{
place = (-4, 62);
place = (-4, 62);
type = Stem;
},
{
place = (544, 62);
place = (544, 62);
type = Stem;
}
);
layerId = m01;
shapes = (
{
closed = 1;
nodes = (
(785,621,ls),
(791,626,o),
(796,636,o),
(796,645,cs),
(796,662,o),
(783,676,o),
(766,676,cs),
(758,676,o),
(752,674,o),
(746,669,cs),
(690,622,l),
(645,674,o),
(574,704,o),
(478,704,cs),
(267,704,o),
(114,559,o),
(69,345,cs),
(50,257,o),
(55,180,o),
(81,120,c),
(19,69,ls),
(13,64,o),
(8,54,o),
(8,45,cs),
(8,28,o),
(21,14,o),
(38,14,cs),
(46,14,o),
(52,16,o),
(58,21,cs),
(114,68,l),
(159,16,o),
(231,-14,o),
(326,-14,cs),
(537,-14,o),
(690,132,o),
(735,345,cs),
(754,434,o),
(749,510,o),
(723,570,c)
);
},
{
closed = 1;
nodes = (
(224,517,o),
(325,620,o),
(460,620,cs),
(526,620,o),
(574,595,o),
(601,549,c),
(181,202,l),
(173,242,o),
(175,290,o),
(187,345,cs)
);
},
{
closed = 1;
nodes = (
(581,174,o),
(479,70,o),
(344,70,cs),
(278,70,o),
(230,95,o),
(203,141,c),
(623,488,l),
(631,448,o),
(629,400,o),
(617,345,cs)
);
}
);
width = 756;
}
);
note = Oslash;
unicode = 216;
},
{
glyphname = Otilde;
kernLeft = C;
kernRight = D;
lastChange = "2022-11-29 13:34:19 +0000";
layers = (
{
hints = (
{
horizontal = 1;
place = (-70, 28);
place = (-70, 28);
type = Stem;
},
{
horizontal = 1;
place = (564, 28);
place = (564, 28);
type = Stem;
},
{
horizontal = 1;
place = (692, 31);
place = (692, 31);
type = Stem;
},
{
place = (-7, 62);
place = (-7, 62);
type = Stem;
},
{
place = (206, -4);
place = (206, -4);
type = Stem;
},
{
place = (540, 62);
place = (540, 62);
type = Stem;
},
{
horizontal = 1;
place = (688, 31);
place = (688, 31);
type = Stem;
},
{
place = (394, -3);
place = (394, -3);
type = Stem;
}
);
layerId = m01;
shapes = (
{
closed = 1;
nodes = (
(447,771,o),
(457,767,o),
(479,759,cs),
(507,748,o),
(522,744,o),
(543,744,cs),
(576,744,o),
(599,759,o),
(614,803,cs),
(619,817,o),
(609,837,o),
(590,837,cs),
(579,837,o),
(570,831,o),
(566,821,cs),
(562,811,o),
(557,808,o),
(549,808,cs),
(541,808,o),
(530,812,o),
(508,820,cs),
(481,831,o),
(466,835,o),
(444,835,cs),
(412,835,o),
(388,820,o),
(373,776,cs),
(368,762,o),
(378,742,o),
(397,742,cs),
(408,742,o),
(417,748,o),
(421,758,cs),
(425,768,o),
(431,771,o),
(438,771,cs)
);
},
{
closed = 1;
nodes = (
(263,704,o),
(111,559,o),
(66,345,cs),
(21,132,o),
(111,-14,o),
(323,-14,cs),
(534,-14,o),
(686,132,o),
(731,345,cs),
(776,559,o),
(686,704,o),
(475,704,cs)
);
},
{
closed = 1;
nodes = (
(206,70,o),
(148,174,o),
(184,345,cs),
(221,517,o),
(322,620,o),
(457,620,cs),
(591,620,o),
(650,517,o),
(613,345,cs),
(577,174,o),
(475,70,o),
(341,70,cs)
);
}
);
width = 750;
}
);
note = Otilde;
unicode = 213;
},
{
glyphname = OE;
kernLeft = C;
lastChange = "2022-11-29 13:44:05 +0000";
layers = (
{
hints = (
{
horizontal = 1;
place = (-56, 32);
place = (-56, 32);
type = Stem;
},
{
horizontal = 1;
place = (246, 31);
place = (246, 31);
type = Stem;
},
{
horizontal = 1;
place = (547, 31);
place = (547, 31);
type = Stem;
},
{
place = (-7, 62);
place = (-7, 62);
type = Stem;
},
{
place = (540, 54);
place = (540, 54);
type = Stem;
},
{
horizontal = 1;
place = (-70, 28);
place = (-70, 28);
type = Stem;
},
{
horizontal = 1;
place = (564, 28);
place = (564, 28);
type = Stem;
}
);
layerId = m01;
shapes = (
{
closed = 1;
nodes = (
(987,88,cs),
(668,88,l),
(714,302,l),
(1013,302,ls),
(1037,302,o),
(1057,321,o),
(1057,346,cs),
(1057,370,o),
(1037,389,o),
(1013,389,cs),
(732,389,l),
(778,603,l),
(1105,603,ls),
(1129,603,o),
(1149,622,o),
(1149,647,cs),
(1149,671,o),
(1129,690,o),
(1105,690,cs),
(738,690,ls),
(703,690,o),
(682,674,o),
(675,639,cs),
(658,559,l),
(652,594,ls),
(647,619,o),
(640,637,o),
(621,656,cs),
(584,691,o),
(536,704,o),
(457,704,cs),
(263,704,o),
(110,551,o),
(66,345,cs),
(22,140,o),
(111,-14,o),
(305,-14,cs),
(381,-14,o),
(440,0,o),
(495,38,cs),
(517,53,o),
(529,69,o),
(543,91,cs),
(567,129,l),
(553,63,ls),
(545,24,o),
(565,0,o),
(605,0,cs),
(987,0,ls),
(1011,0,o),
(1031,20,o),
(1031,44,cs),
(1031,68,o),
(1011,88,o)
);
},
{
closed = 1;
nodes = (
(206,70,o),
(149,180,o),
(184,345,cs),
(220,512,o),
(322,620,o),
(457,620,cs),
(591,620,o),
(649,512,o),
(613,345,cs),
(578,180,o),
(475,70,o),
(341,70,cs)
);
}
);
width = 1101;
}
);
note = OE;
unicode = 338;
},
{
glyphname = P;
kernRight = P;
lastChange = "2022-11-29 13:44:05 +0000";
layers = (
{
hints = (
{
horizontal = 1;
place = (-56, 21);
target = up;
type = BottomGhost;
},
{
horizontal = 1;
place = (216, 33);
place = (216, 33);
type = Stem;
},
{
horizontal = 1;
place = (545, 33);
place = (545, 33);
type = Stem;
},
{
place = (39, 54);
place = (39, 54);
type = Stem;
},
{
place = (425, 60);
place = (425, 60);
type = Stem;
}
);
layerId = m01;
shapes = (
{
closed = 1;
nodes = (
(473,690,o),
(448,690,o),
(411,690,cs),
(237,690,ls),
(202,690,o),
(181,674,o),
(174,639,cs),
(52,59,ls),
(45,25,o),
(70,-6,o),
(104,-6,cs),
(130,-6,o),
(152,12,o),
(157,37,cs),
(206,272,l),
(322,272,ls),
(359,272,o),
(384,272,o),
(417,276,cs),
(520,289,o),
(617,359,o),
(643,481,cs),
(669,603,o),
(610,672,o),
(504,686,cs)
);
},
{
closed = 1;
nodes = (
(397,362,o),
(372,361,o),
(344,361,cs),
(225,361,l),
(276,601,l),
(395,601,ls),
(423,601,o),
(447,600,o),
(465,597,cs),
(511,588,o),
(542,554,o),
(527,481,cs),
(511,408,o),
(465,374,o),
(415,365,cs)
);
}
);
width = 610;
}
);
note = P;
unicode = 80;
},
{
glyphname = Thorn;
lastChange = "2022-11-29 13:34:19 +0000";
layers = (
{
hints = (
{
horizontal = 1;
place = (-56, 21);
target = up;
type = BottomGhost;
},
{
horizontal = 1;
place = (146, 33);
place = (146, 33);
type = Stem;
},
{
horizontal = 1;
place = (457, 33);
place = (457, 33);
type = Stem;
},
{
place = (39, 54);
place = (39, 54);
type = Stem;
},
{
place = (425, 60);
place = (425, 60);
type = Stem;
},
{
horizontal = 1;
place = (457, 121);
place = (457, 121);
type = Stem;
}
);
layerId = m01;
shapes = (
{
closed = 1;
nodes = (
(461,602,o),
(436,602,o),
(399,602,cs),
(277,602,l),
(283,631,ls),
(290,665,o),
(264,695,o),
(230,695,cs),
(204,695,o),
(182,678,o),
(177,653,cs),
(52,59,ls),
(45,25,o),
(70,-6,o),
(104,-6,cs),
(130,-6,o),
(152,12,o),
(157,37,cs),
(192,202,l),
(314,202,ls),
(351,202,o),
(376,202,o),
(408,206,cs),
(511,219,o),
(601,285,o),
(626,403,cs),
(651,521,o),
(589,585,o),
(492,598,cs)
);
},
{
closed = 1;
nodes = (
(380,292,o),
(356,291,o),
(328,291,cs),
(211,291,l),
(258,513,l),
(375,513,ls),
(403,513,o),
(427,512,o),
(444,509,cs),
(490,500,o),
(525,470,o),
(510,402,cs),
(495,333,o),
(448,304,o),
(398,295,cs)
);
}
);
width = 636;
}
);
note = Thorn;
unicode = 222;
},
{
glyphname = Q;
kernLeft = C;
lastChange = "2022-11-29 13:34:19 +0000";
layers = (
{
hints = (
{
horizontal = 1;
place = (-70, 28);
place = (-70, 28);
type = Stem;
},
{
horizontal = 1;
place = (564, 28);
place = (564, 28);
type = Stem;
},
{
place = (-7, 62);
place = (-7, 62);
type = Stem;
},
{
place = (540, 62);
place = (540, 62);
type = Stem;
},
{
horizontal = 1;
place = (-54, 12);
place = (-54, 12);
type = Stem;
}
);
layerId = m01;
shapes = (
{
closed = 1;
nodes = (
(647,144,o),
(708,238,o),
(731,345,cs),
(776,559,o),
(686,704,o),
(475,704,cs),
(263,704,o),
(111,559,o),
(66,345,cs),
(21,132,o),
(111,-14,o),
(323,-14,cs),
(349,-14,o),
(372,-12,o),
(395,-7,cs),
(424,-1,o),
(442,2,o),
(470,2,cs),
(500,2,o),
(524,-4,o),
(564,-30,cs),
(572,-36,o),
(583,-39,o),
(594,-39,cs),
(623,-39,o),
(647,-15,o),
(647,15,cs),
(647,34,o),
(637,51,o),
(623,60,cs),
(602,74,o),
(581,83,o),
(557,87,c)
);
},
{
closed = 1;
nodes = (
(221,517,o),
(322,620,o),
(457,620,cs),
(591,620,o),
(650,517,o),
(613,345,cs),
(577,174,o),
(475,70,o),
(341,70,cs),
(206,70,o),
(148,174,o),
(184,345,cs)
);
}
);
width = 748;
}
);
note = Q;
unicode = 81;
},
{
glyphname = R;
lastChange = "2022-11-29 13:44:05 +0000";
layers = (
{
hints = (
{
horizontal = 1;
place = (-56, 21);
target = up;
type = BottomGhost;
},
{
horizontal = 1;
place = (232, 29);
place = (232, 29);
type = Stem;
},
{
horizontal = 1;
place = (547, 31);
place = (547, 31);
type = Stem;
},
{
place = (39, 54);
place = (39, 54);
type = Stem;
},
{
place = (431, 60);
place = (431, 60);
type = Stem;
}
);
layerId = m01;
shapes = (
{
closed = 1;
nodes = (
(560,250,o),
(547,310,o),
(490,337,c),
(568,359,o),
(634,412,o),
(653,502,cs),
(678,620,o),
(615,673,o),
(517,686,cs),
(485,690,o),
(460,690,o),
(423,690,cs),
(237,690,ls),
(202,690,o),
(181,674,o),
(174,639,cs),
(52,59,ls),
(45,25,o),
(70,-5,o),
(104,-5,cs),
(130,-5,o),
(152,12,o),
(157,37,cs),
(210,288,l),
(317,288,ls),
(334,288,o),
(351,288,o),
(368,287,cs),
(430,283,o),
(447,237,o),
(441,164,cs),
(435,115,o),
(433,80,o),
(435,47,cs),
(436,18,o),
(461,-6,o),
(490,-6,cs),
(523,-6,o),
(549,23,o),
(546,55,cs),
(543,88,o),
(546,127,o),
(552,178,cs)
);
},
{
closed = 1;
nodes = (
(228,373,l),
(277,603,l),
(399,603,ls),
(427,603,o),
(445,602,o),
(462,599,cs),
(519,591,o),
(550,561,o),
(534,488,cs),
(519,415,o),
(467,381,o),
(405,375,cs),
(388,373,o),
(371,373,o),
(343,373,cs)
);
}
);
width = 635;
}
);
note = R;
unicode = 82;
},
{
glyphname = Racute;
lastChange = "2022-11-29 13:44:05 +0000";
layers = (
{
hints = (
{
horizontal = 1;
place = (-56, 21);
target = up;
type = BottomGhost;
},
{
horizontal = 1;
place = (232, 29);
place = (232, 29);
type = Stem;
},
{
horizontal = 1;
place = (547, 31);
place = (547, 31);
type = Stem;
},
{
horizontal = 1;
place = (680, 46);
place = (680, 46);
type = Stem;
},
{
place = (39, 54);
place = (39, 54);
type = Stem;
},
{
place = (431, 60);
place = (431, 60);
type = Stem;
}
);
layerId = m01;
shapes = (
{
closed = 1;
nodes = (
(461,737,cs),
(519,787,ls),
(526,793,o),
(531,802,o),
(531,811,cs),
(531,829,o),
(516,844,o),
(499,844,cs),
(489,844,o),
(480,839,o),
(474,832,cs),
(424,773,ls),
(421,769,o),
(418,762,o),
(418,756,cs),
(418,742,o),
(430,731,o),
(444,731,cs),
(450,731,o),
(457,733,o)
);
},
{
closed = 1;
nodes = (
(560,250,o),
(547,310,o),
(490,337,c),
(568,359,o),
(634,412,o),
(653,502,cs),
(678,620,o),
(615,673,o),
(517,686,cs),
(485,690,o),
(460,690,o),
(423,690,cs),
(237,690,ls),
(202,690,o),
(181,674,o),
(174,639,cs),
(52,59,ls),
(45,25,o),
(70,-5,o),
(104,-5,cs),
(130,-5,o),
(152,12,o),
(157,37,cs),
(210,288,l),
(317,288,ls),
(334,288,o),
(351,288,o),
(368,287,cs),
(430,283,o),
(447,237,o),
(441,164,cs),
(435,115,o),
(433,80,o),
(435,47,cs),
(436,18,o),
(461,-6,o),
(490,-6,cs),
(523,-6,o),
(549,23,o),
(546,55,cs),
(543,88,o),
(546,127,o),
(552,178,cs)
);
},
{
closed = 1;
nodes = (
(228,373,l),
(277,603,l),
(399,603,ls),
(427,603,o),
(445,602,o),
(462,599,cs),
(519,591,o),
(550,561,o),
(534,488,cs),
(519,415,o),
(467,381,o),
(405,375,cs),
(388,373,o),
(371,373,o),
(343,373,cs)
);
}
);
width = 635;
}
);
note = Racute;
unicode = 340;
},
{
glyphname = Rcaron;
lastChange = "2022-11-29 13:44:05 +0000";
layers = (
{
hints = (
{
horizontal = 1;
place = (-56, 21);
target = up;
type = BottomGhost;
},
{
horizontal = 1;
place = (232, 29);
place = (232, 29);
type = Stem;
},
{
horizontal = 1;
place = (547, 31);
place = (547, 31);
type = Stem;
},
{
horizontal = 1;
place = (680, 46);
place = (680, 46);
type = Stem;
},
{
place = (39, 54);
place = (39, 54);
type = Stem;
},
{
place = (431, 60);
place = (431, 60);
type = Stem;
}
);
layerId = m01;
shapes = (
{
closed = 1;
nodes = (
(420,736,cs),
(436,736,ls),
(471,736,o),
(502,755,o),
(519,782,cs),
(533,805,o),
(538,832,o),
(514,842,cs),
(511,843,o),
(507,844,o),
(504,844,cs),
(495,844,o),
(487,839,o),
(482,832,cs),
(442,777,l),
(433,808,ls),
(427,828,o),
(422,838,o),
(420,838,cs),
(392,838,o),
(369,815,o),
(369,787,cs),
(369,759,o),
(392,736,o)
);
},
{
closed = 1;
nodes = (
(560,250,o),
(547,310,o),
(490,337,c),
(568,359,o),
(634,412,o),
(653,502,cs),
(678,620,o),
(615,673,o),
(517,686,cs),
(485,690,o),
(460,690,o),
(423,690,cs),
(237,690,ls),
(202,690,o),
(181,674,o),
(174,639,cs),
(52,59,ls),
(45,25,o),
(70,-5,o),
(104,-5,cs),
(130,-5,o),
(152,12,o),
(157,37,cs),
(210,288,l),
(317,288,ls),
(334,288,o),
(351,288,o),
(368,287,cs),
(430,283,o),
(447,237,o),
(441,164,cs),
(435,115,o),
(433,80,o),
(435,47,cs),
(436,18,o),
(461,-6,o),
(490,-6,cs),
(523,-6,o),
(549,23,o),
(546,55,cs),
(543,88,o),
(546,127,o),
(552,178,cs)
);
},
{
closed = 1;
nodes = (
(228,373,l),
(277,603,l),
(399,603,ls),
(427,603,o),
(445,602,o),
(462,599,cs),
(519,591,o),
(550,561,o),
(534,488,cs),
(519,415,o),
(467,381,o),
(405,375,cs),
(388,373,o),
(371,373,o),
(343,373,cs)
);
}
);
width = 635;
}
);
note = Rcaron;
unicode = 344;
},
{
glyphname = Rcommaaccent;
lastChange = "2022-11-29 13:44:05 +0000";
layers = (
{
hints = (
{
horizontal = 1;
place = (-256, 96);
place = (-256, 96);
type = Stem;
},
{
horizontal = 1;
place = (-56, 21);
target = up;
type = BottomGhost;
},
{
horizontal = 1;
place = (232, 29);
place = (232, 29);
type = Stem;
},
{
horizontal = 1;
place = (547, 31);
place = (547, 31);
type = Stem;
},
{
place = (39, 54);
place = (39, 54);
type = Stem;
},
{
place = (431, 60);
place = (431, 60);
type = Stem;
}
);
layerId = m01;
shapes = (
{
closed = 1;
nodes = (
(560,250,o),
(547,310,o),
(490,337,c),
(568,359,o),
(634,412,o),
(653,502,cs),
(678,620,o),
(615,673,o),
(517,686,cs),
(485,690,o),
(460,690,o),
(423,690,cs),
(237,690,ls),
(202,690,o),
(181,674,o),
(174,639,cs),
(52,59,ls),
(45,25,o),
(70,-5,o),
(104,-5,cs),
(130,-5,o),
(152,12,o),
(157,37,cs),
(210,288,l),
(317,288,ls),
(334,288,o),
(351,288,o),
(368,287,cs),
(430,283,o),
(447,237,o),
(441,164,cs),
(435,115,o),
(433,80,o),
(435,47,cs),
(436,18,o),
(461,-6,o),
(490,-6,cs),
(523,-6,o),
(549,23,o),
(546,55,cs),
(543,88,o),
(546,127,o),
(552,178,cs)
);
},
{
closed = 1;
nodes = (
(228,373,l),
(277,603,l),
(399,603,ls),
(427,603,o),
(445,602,o),
(462,599,cs),
(519,591,o),
(550,561,o),
(534,488,cs),
(519,415,o),
(467,381,o),
(405,375,cs),
(388,373,o),
(371,373,o),
(343,373,cs)
);
},
{
closed = 1;
nodes = (
(220,-64,cs),
(162,-159,ls),
(159,-163,o),
(158,-169,o),
(158,-175,cs),
(158,-192,o),
(172,-206,o),
(188,-206,cs),
(199,-206,o),
(208,-200,o),
(213,-193,cs),
(277,-104,ls),
(298,-74,o),
(301,-34,o),
(265,-29,c),
(258,-29,ls),
(238,-29,o),
(230,-48,o)
);
}
);
width = 635;
}
);
note = Rcommaaccent;
unicode = 342;
},
{
glyphname = S;
kernLeft = S;
kernRight = S;
lastChange = "2022-11-29 13:34:19 +0000";
layers = (
{
hints = (
{
horizontal = 1;
place = (-70, 28);
place = (-70, 28);
type = Stem;
},
{
horizontal = 1;
place = (564, 28);
place = (564, 28);
type = Stem;
},
{
place = (22, 60);
place = (22, 60);
type = Stem;
},
{
place = (394, 60);
place = (394, 60);
type = Stem;
}
);
layerId = m01;
shapes = (
{
closed = 1;
nodes = (
(280,704,o),
(155,629,o),
(129,507,cs),
(104,387,o),
(181,338,o),
(305,307,cs),
(411,281,o),
(446,244,o),
(430,172,cs),
(417,109,o),
(352,70,o),
(280,70,cs),
(214,70,o),
(168,100,o),
(153,160,cs),
(147,186,o),
(123,206,o),
(95,206,cs),
(55,206,o),
(30,170,o),
(35,136,cs),
(51,37,o),
(131,-14,o),
(262,-14,cs),
(396,-14,o),
(523,62,o),
(549,187,cs),
(574,302,o),
(516,367,o),
(371,402,cs),
(269,427,o),
(235,458,o),
(249,525,cs),
(263,590,o),
(320,620,o),
(385,620,cs),
(448,620,o),
(484,591,o),
(492,537,cs),
(496,510,o),
(520,488,o),
(549,488,cs),
(584,488,o),
(610,518,o),
(606,553,cs),
(594,644,o),
(534,704,o),
(409,704,cs)
);
}
);
width = 595;
}
);
note = S;
unicode = 83;
},
{
glyphname = Sacute;
kernLeft = S;
kernRight = S;
lastChange = "2022-11-29 13:34:19 +0000";
layers = (
{
hints = (
{
horizontal = 1;
place = (-70, 28);
place = (-70, 28);
type = Stem;
},
{
horizontal = 1;
place = (564, 28);
place = (564, 28);
type = Stem;
},
{
horizontal = 1;
place = (680, 46);
place = (680, 46);
type = Stem;
},
{
place = (22, 60);
place = (22, 60);
type = Stem;
},
{
place = (394, 60);
place = (394, 60);
type = Stem;
}
);
layerId = m01;
shapes = (
{
closed = 1;
nodes = (
(439,737,cs),
(497,787,ls),
(504,793,o),
(509,802,o),
(509,811,cs),
(509,829,o),
(494,844,o),
(477,844,cs),
(467,844,o),
(458,839,o),
(452,832,cs),
(402,773,ls),
(399,769,o),
(396,762,o),
(396,756,cs),
(396,742,o),
(408,731,o),
(422,731,cs),
(428,731,o),
(435,733,o)
);
},
{
closed = 1;
nodes = (
(280,704,o),
(155,629,o),
(129,507,cs),
(104,387,o),
(181,338,o),
(305,307,cs),
(411,281,o),
(446,244,o),
(430,172,cs),
(417,109,o),
(352,70,o),
(280,70,cs),
(214,70,o),
(168,100,o),
(153,160,cs),
(147,186,o),
(123,206,o),
(95,206,cs),
(55,206,o),
(30,170,o),
(35,136,cs),
(51,37,o),
(131,-14,o),
(262,-14,cs),
(396,-14,o),
(523,62,o),
(549,187,cs),
(574,302,o),
(516,367,o),
(371,402,cs),
(269,427,o),
(235,458,o),
(249,525,cs),
(263,590,o),
(320,620,o),
(385,620,cs),
(448,620,o),
(484,591,o),
(492,537,cs),
(496,510,o),
(520,488,o),
(549,488,cs),
(584,488,o),
(610,518,o),
(606,553,cs),
(594,644,o),
(534,704,o),
(409,704,cs)
);
}
);
width = 595;
}
);
note = Sacute;
unicode = 346;
},
{
glyphname = Scaron;
kernLeft = S;
kernRight = S;
lastChange = "2022-11-29 13:44:05 +0000";
layers = (
{
hints = (
{
horizontal = 1;
place = (-70, 28);
place = (-70, 28);
type = Stem;
},
{
horizontal = 1;
place = (564, 28);
place = (564, 28);
type = Stem;
},
{
horizontal = 1;
place = (680, 46);
place = (680, 46);
type = Stem;
},
{
place = (22, 60);
place = (22, 60);
type = Stem;
},
{
place = (394, 60);
place = (394, 60);
type = Stem;
}
);
layerId = m01;
shapes = (
{
closed = 1;
nodes = (
(398,736,cs),
(414,736,ls),
(449,736,o),
(480,755,o),
(497,782,cs),
(511,805,o),
(516,832,o),
(492,842,cs),
(489,843,o),
(485,844,o),
(482,844,cs),
(473,844,o),
(465,839,o),
(460,832,cs),
(420,777,l),
(411,808,ls),
(405,828,o),
(400,838,o),
(398,838,cs),
(370,838,o),
(347,815,o),
(347,787,cs),
(347,759,o),
(370,736,o)
);
},
{
closed = 1;
nodes = (
(269,427,o),
(235,458,o),
(249,525,cs),
(263,590,o),
(320,620,o),
(385,620,cs),
(448,620,o),
(484,591,o),
(492,537,cs),
(496,510,o),
(520,488,o),
(549,488,cs),
(584,488,o),
(610,518,o),
(606,553,cs),
(594,644,o),
(534,704,o),
(409,704,cs),
(280,704,o),
(155,629,o),
(129,507,cs),
(104,387,o),
(181,338,o),
(305,307,cs),
(411,281,o),
(446,244,o),
(430,172,cs),
(417,109,o),
(352,70,o),
(280,70,cs),
(214,70,o),
(168,100,o),
(153,160,cs),
(147,186,o),
(123,206,o),
(95,206,cs),
(55,206,o),
(30,170,o),
(35,136,cs),
(51,37,o),
(131,-14,o),
(262,-14,cs),
(396,-14,o),
(523,62,o),
(549,187,cs),
(574,302,o),
(516,367,o),
(371,402,cs)
);
}
);
width = 595;
}
);
note = Scaron;
unicode = 352;
},
{
glyphname = Scedilla;
kernLeft = S;
kernRight = S;
lastChange = "2022-11-29 13:44:05 +0000";
layers = (
{
hints = (
{
horizontal = 1;
place = (-266, -7);
place = (-266, -7);
type = Stem;
},
{
horizontal = 1;
place = (-67, 21);
target = up;
type = BottomGhost;
},
{
horizontal = 1;
place = (564, 28);
place = (564, 28);
type = Stem;
},
{
place = (22, 60);
place = (22, 60);
type = Stem;
},
{
place = (275, 14);
place = (275, 14);
type = Stem;
},
{
place = (394, 60);
place = (394, 60);
type = Stem;
},
{
horizontal = 1;
place = (-137, 95);
place = (-137, 95);
type = Stem;
}
);
layerId = m01;
shapes = (
{
closed = 1;
nodes = (
(574,302,o),
(516,367,o),
(371,402,cs),
(269,427,o),
(235,458,o),
(249,525,cs),
(263,590,o),
(320,620,o),
(385,620,cs),
(448,620,o),
(484,591,o),
(492,537,cs),
(496,510,o),
(520,488,o),
(549,488,cs),
(584,488,o),
(610,518,o),
(606,553,cs),
(594,644,o),
(534,704,o),
(409,704,cs),
(280,704,o),
(155,629,o),
(129,507,cs),
(104,387,o),
(181,338,o),
(305,307,cs),
(411,281,o),
(446,244,o),
(430,172,cs),
(417,109,o),
(352,70,o),
(280,70,cs),
(214,70,o),
(168,100,o),
(153,160,cs),
(147,186,o),
(123,206,o),
(94,206,cs),
(55,206,o),
(30,170,o),
(35,137,cs),
(48,50,o),
(110,0,o),
(212,-11,c),
(187,-46,ls),
(171,-68,o),
(188,-71,o),
(228,-85,cs),
(247,-92,o),
(252,-104,o),
(249,-122,cs),
(244,-146,o),
(220,-161,o),
(178,-161,cs),
(167,-161,o),
(157,-160,o),
(146,-158,cs),
(131,-155,o),
(115,-167,o),
(115,-183,cs),
(115,-195,o),
(124,-206,o),
(136,-208,cs),
(146,-209,o),
(156,-210,o),
(166,-210,cs),
(244,-210,o),
(306,-181,o),
(319,-122,cs),
(329,-76,o),
(305,-48,o),
(252,-41,c),
(272,-14,l),
(402,-10,o),
(523,65,o),
(549,187,cs)
);
}
);
width = 595;
}
);
note = Scedilla;
unicode = 350;
},
{
glyphname = Scommaaccent;
kernLeft = S;
kernRight = S;
lastChange = "2022-11-29 13:44:05 +0000";
layers = (
{
hints = (
{
horizontal = 1;
place = (-256, 96);
place = (-256, 96);
type = Stem;
},
{
horizontal = 1;
place = (-70, 28);
place = (-70, 28);
type = Stem;
},
{
horizontal = 1;
place = (564, 28);
place = (564, 28);
type = Stem;
},
{
place = (22, 60);
place = (22, 60);
type = Stem;
},
{
place = (394, 60);
place = (394, 60);
type = Stem;
}
);
layerId = m01;
shapes = (
{
closed = 1;
nodes = (
(280,704,o),
(155,629,o),
(129,507,cs),
(104,387,o),
(181,338,o),
(305,307,cs),
(411,281,o),
(446,244,o),
(430,172,cs),
(417,109,o),
(352,70,o),
(280,70,cs),
(214,70,o),
(168,100,o),
(153,160,cs),
(147,186,o),
(123,206,o),
(95,206,cs),
(55,206,o),
(30,170,o),
(35,136,cs),
(51,37,o),
(131,-14,o),
(262,-14,cs),
(396,-14,o),
(523,62,o),
(549,187,cs),
(574,302,o),
(516,367,o),
(371,402,cs),
(269,427,o),
(235,458,o),
(249,525,cs),
(263,590,o),
(320,620,o),
(385,620,cs),
(448,620,o),
(484,591,o),
(492,537,cs),
(496,510,o),
(520,488,o),
(549,488,cs),
(584,488,o),
(610,518,o),
(606,553,cs),
(594,644,o),
(534,704,o),
(409,704,cs)
);
},
{
closed = 1;
nodes = (
(257,-103,ls),
(278,-73,o),
(281,-34,o),
(245,-29,c),
(239,-29,ls),
(218,-29,o),
(210,-48,o),
(200,-64,cs),
(143,-159,ls),
(140,-163,o),
(138,-169,o),
(138,-175,cs),
(138,-192,o),
(152,-205,o),
(168,-205,cs),
(179,-205,o),
(188,-200,o),
(193,-193,cs)
);
}
);
width = 595;
}
);
note = Scommaaccent;
unicode = 536;
},
{
glyphname = T;
kernLeft = T;
kernRight = T;
lastChange = "2022-11-29 13:34:19 +0000";
layers = (
{
hints = (
{
horizontal = 1;
place = (-56, 21);
target = up;
type = BottomGhost;
},
{
horizontal = 1;
place = (547, 31);
place = (547, 31);
type = Stem;
},
{
place = (214, 53);
place = (214, 53);
type = Stem;
}
);
layerId = m01;
shapes = (
{
closed = 1;
nodes = (
(662,603,ls),
(686,603,o),
(706,622,o),
(706,646,cs),
(706,671,o),
(686,690,o),
(662,690,cs),
(149,690,ls),
(125,690,o),
(105,671,o),
(105,647,cs),
(105,622,o),
(125,603,o),
(149,603,cs),
(342,603,l),
(226,59,ls),
(219,25,o),
(245,-5,o),
(279,-5,cs),
(304,-5,o),
(326,12,o),
(331,37,cs),
(451,603,l)
);
}
);
width = 617;
}
);
note = T;
unicode = 84;
},
{
glyphname = Tbar;
kernLeft = T;
kernRight = T;
lastChange = "2022-11-29 13:34:19 +0000";
layers = (
{
hints = (
{
horizontal = 1;
place = (-56, 21);
target = up;
type = BottomGhost;
},
{
horizontal = 1;
place = (246, 10);
place = (246, 10);
type = Stem;
},
{
horizontal = 1;
place = (547, 31);
place = (547, 31);
type = Stem;
},
{
place = (214, 53);
place = (214, 53);
type = Stem;
}
);
layerId = m01;
shapes = (
{
closed = 1;
nodes = (
(451,603,l),
(662,603,ls),
(686,603,o),
(706,622,o),
(706,646,cs),
(706,671,o),
(686,690,o),
(662,690,cs),
(149,690,ls),
(125,690,o),
(105,671,o),
(105,647,cs),
(105,622,o),
(125,603,o),
(149,603,cs),
(342,603,l),
(292,368,l),
(206,368,ls),
(188,368,o),
(173,353,o),
(173,335,cs),
(173,317,o),
(188,302,o),
(206,302,cs),
(278,302,l),
(226,59,ls),
(219,25,o),
(245,-5,o),
(279,-5,cs),
(304,-5,o),
(326,12,o),
(331,37,cs),
(387,302,l),
(473,302,ls),
(491,302,o),
(506,317,o),
(506,335,cs),
(506,353,o),
(491,368,o),
(473,368,cs),
(401,368,l)
);
}
);
width = 617;
}
);
note = Tbar;
unicode = 358;
},
{
glyphname = Tcaron;
kernLeft = T;
kernRight = T;
lastChange = "2022-11-29 13:44:05 +0000";
layers = (
{
hints = (
{
horizontal = 1;
place = (-56, 21);
target = up;
type = BottomGhost;
},
{
horizontal = 1;
place = (547, 31);
place = (547, 31);
type = Stem;
},
{
horizontal = 1;
place = (680, 46);
place = (680, 46);
type = Stem;
},
{
place = (214, 53);
place = (214, 53);
type = Stem;
}
);
layerId = m01;
shapes = (
{
closed = 1;
nodes = (
(412,736,cs),
(428,736,ls),
(463,736,o),
(494,755,o),
(511,782,cs),
(525,805,o),
(530,832,o),
(506,842,cs),
(503,843,o),
(499,844,o),
(496,844,cs),
(487,844,o),
(479,839,o),
(474,832,cs),
(434,777,l),
(425,808,ls),
(419,828,o),
(414,838,o),
(412,838,cs),
(384,838,o),
(361,815,o),
(361,787,cs),
(361,759,o),
(384,736,o)
);
},
{
closed = 1;
nodes = (
(662,603,ls),
(686,603,o),
(706,622,o),
(706,646,cs),
(706,671,o),
(686,690,o),
(662,690,cs),
(149,690,ls),
(125,690,o),
(105,671,o),
(105,647,cs),
(105,622,o),
(125,603,o),
(149,603,cs),
(342,603,l),
(226,59,ls),
(219,25,o),
(245,-5,o),
(279,-5,cs),
(304,-5,o),
(326,12,o),
(331,37,cs),
(451,603,l)
);
}
);
width = 617;
}
);
note = Tcaron;
unicode = 356;
},
{
glyphname = Tcedilla;
kernLeft = T;
kernRight = T;
lastChange = "2022-11-29 13:44:05 +0000";
layers = (
{
hints = (
{
horizontal = 1;
place = (-266, -7);
place = (-266, -7);
type = Stem;
},
{
horizontal = 1;
place = (-56, 21);
target = up;
type = BottomGhost;
},
{
horizontal = 1;
place = (547, 31);
place = (547, 31);
type = Stem;
},
{
place = (214, 53);
place = (214, 53);
type = Stem;
},
{
place = (293, 14);
place = (293, 14);
type = Stem;
}
);
layerId = m01;
shapes = (
{
closed = 1;
nodes = (
(300,0,l),
(312,0,ls),
(319,0,o),
(327,16,o),
(334,51,cs),
(451,603,l),
(662,603,ls),
(686,603,o),
(706,622,o),
(706,646,cs),
(706,671,o),
(686,690,o),
(662,690,cs),
(149,690,ls),
(125,690,o),
(105,671,o),
(105,647,cs),
(105,622,o),
(125,603,o),
(149,603,cs),
(342,603,l),
(227,63,ls),
(219,23,o),
(224,0,o),
(239,0,c),
(209,-41,ls),
(190,-67,o),
(206,-71,o),
(246,-85,cs),
(265,-92,o),
(270,-104,o),
(267,-122,cs),
(262,-146,o),
(238,-161,o),
(196,-161,cs),
(185,-161,o),
(175,-160,o),
(164,-158,cs),
(149,-155,o),
(133,-167,o),
(133,-183,cs),
(133,-195,o),
(142,-206,o),
(154,-208,cs),
(164,-209,o),
(174,-210,o),
(184,-210,cs),
(262,-210,o),
(324,-181,o),
(337,-122,cs),
(347,-76,o),
(323,-48,o),
(270,-41,c)
);
}
);
width = 617;
}
);
note = Tcedilla;
unicode = 354;
},
{
glyphname = uni021A;
kernLeft = T;
kernRight = T;
lastChange = "2022-11-29 13:44:05 +0000";
layers = (
{
hints = (
{
horizontal = 1;
place = (-256, 96);
place = (-256, 96);
type = Stem;
},
{
horizontal = 1;
place = (-56, 21);
target = up;
type = BottomGhost;
},
{
horizontal = 1;
place = (547, 31);
place = (547, 31);
type = Stem;
},
{
place = (214, 53);
place = (214, 53);
type = Stem;
}
);
layerId = m01;
shapes = (
{
closed = 1;
nodes = (
(662,603,ls),
(686,603,o),
(706,622,o),
(706,646,cs),
(706,671,o),
(686,690,o),
(662,690,cs),
(149,690,ls),
(125,690,o),
(105,671,o),
(105,647,cs),
(105,622,o),
(125,603,o),
(149,603,cs),
(342,603,l),
(226,59,ls),
(219,25,o),
(245,-5,o),
(279,-5,cs),
(304,-5,o),
(326,12,o),
(331,37,cs),
(451,603,l)
);
},
{
closed = 1;
nodes = (
(218,-64,cs),
(160,-159,ls),
(157,-163,o),
(156,-169,o),
(156,-175,cs),
(156,-192,o),
(170,-206,o),
(186,-206,cs),
(197,-206,o),
(206,-200,o),
(211,-193,cs),
(275,-104,ls),
(296,-74,o),
(299,-34,o),
(263,-29,c),
(256,-29,ls),
(236,-29,o),
(228,-48,o)
);
}
);
width = 617;
}
);
note = uni021A;
unicode = 538;
},
{
glyphname = U;
kernLeft = U;
kernRight = U;
lastChange = "2022-11-29 13:34:19 +0000";
layers = (
{
hints = (
{
horizontal = 1;
place = (-70, 28);
place = (-70, 28);
type = Stem;
},
{
horizontal = 1;
place = (634, -20);
target = down;
type = TopGhost;
},
{
place = (32, 53);
place = (32, 53);
type = Stem;
},
{
place = (464, 53);
place = (464, 53);
type = Stem;
}
);
layerId = m01;
shapes = (
{
closed = 1;
nodes = (
(706,631,ls),
(713,665,o),
(688,696,o),
(654,696,cs),
(629,696,o),
(607,678,o),
(602,653,cs),
(520,265,ls),
(516,244,o),
(511,225,o),
(506,209,cs),
(481,126,o),
(417,70,o),
(317,70,cs),
(218,70,o),
(176,126,o),
(187,209,cs),
(188,225,o),
(193,244,o),
(197,265,cs),
(275,631,ls),
(282,665,o),
(256,695,o),
(222,695,cs),
(197,695,o),
(175,678,o),
(170,653,cs),
(88,267,ls),
(83,242,o),
(79,222,o),
(75,196,cs),
(60,81,o),
(119,-14,o),
(299,-14,cs),
(479,-14,o),
(578,81,o),
(612,196,cs),
(620,222,o),
(624,242,o),
(629,267,cs)
);
}
);
width = 691;
}
);
note = U;
unicode = 85;
},
{
glyphname = Uacute;
kernLeft = U;
kernRight = U;
lastChange = "2022-11-29 13:34:19 +0000";
layers = (
{
hints = (
{
horizontal = 1;
place = (-70, 28);
place = (-70, 28);
type = Stem;
},
{
horizontal = 1;
place = (634, -20);
target = down;
type = TopGhost;
},
{
horizontal = 1;
place = (680, 46);
place = (680, 46);
type = Stem;
},
{
place = (32, 53);
place = (32, 53);
type = Stem;
},
{
place = (464, 53);
place = (464, 53);
type = Stem;
}
);
layerId = m01;
shapes = (
{
closed = 1;
nodes = (
(487,737,cs),
(545,787,ls),
(552,793,o),
(557,802,o),
(557,811,cs),
(557,829,o),
(542,844,o),
(525,844,cs),
(515,844,o),
(506,839,o),
(500,832,cs),
(450,773,ls),
(447,769,o),
(444,762,o),
(444,756,cs),
(444,742,o),
(456,731,o),
(470,731,cs),
(476,731,o),
(483,733,o)
);
},
{
closed = 1;
nodes = (
(706,631,ls),
(713,665,o),
(688,696,o),
(654,696,cs),
(629,696,o),
(607,678,o),
(602,653,cs),
(520,265,ls),
(516,244,o),
(511,225,o),
(506,209,cs),
(481,126,o),
(417,70,o),
(317,70,cs),
(218,70,o),
(176,126,o),
(187,209,cs),
(188,225,o),
(193,244,o),
(197,265,cs),
(275,631,ls),
(282,665,o),
(256,695,o),
(222,695,cs),
(197,695,o),
(175,678,o),
(170,653,cs),
(88,267,ls),
(83,242,o),
(79,222,o),
(75,196,cs),
(60,81,o),
(119,-14,o),
(299,-14,cs),
(479,-14,o),
(578,81,o),
(612,196,cs),
(620,222,o),
(624,242,o),
(629,267,cs)
);
}
);
width = 691;
}
);
note = Uacute;
unicode = 218;
},
{
glyphname = Ucircumflex;
kernLeft = U;
kernRight = U;
lastChange = "2022-11-29 13:44:05 +0000";
layers = (
{
hints = (
{
horizontal = 1;
place = (-70, 28);
place = (-70, 28);
type = Stem;
},
{
horizontal = 1;
place = (634, -20);
target = down;
type = TopGhost;
},
{
horizontal = 1;
place = (680, 46);
place = (680, 46);
type = Stem;
},
{
place = (32, 53);
place = (32, 53);
type = Stem;
},
{
place = (464, 53);
place = (464, 53);
type = Stem;
}
);
layerId = m01;
shapes = (
{
closed = 1;
nodes = (
(431,742,cs),
(471,796,l),
(480,766,ls),
(486,745,o),
(491,736,o),
(493,736,cs),
(521,736,o),
(544,759,o),
(544,787,cs),
(544,815,o),
(521,838,o),
(493,838,cs),
(477,838,ls),
(442,838,o),
(411,819,o),
(394,792,cs),
(380,769,o),
(375,741,o),
(400,732,cs),
(403,731,o),
(406,731,o),
(409,731,cs),
(418,731,o),
(426,735,o)
);
},
{
closed = 1;
nodes = (
(706,631,ls),
(713,665,o),
(688,696,o),
(654,696,cs),
(629,696,o),
(607,678,o),
(602,653,cs),
(520,265,ls),
(516,244,o),
(511,225,o),
(506,209,cs),
(481,126,o),
(417,70,o),
(317,70,cs),
(218,70,o),
(176,126,o),
(187,209,cs),
(188,225,o),
(193,244,o),
(197,265,cs),
(275,631,ls),
(282,665,o),
(256,695,o),
(222,695,cs),
(197,695,o),
(175,678,o),
(170,653,cs),
(88,267,ls),
(83,242,o),
(79,222,o),
(75,196,cs),
(60,81,o),
(119,-14,o),
(299,-14,cs),
(479,-14,o),
(578,81,o),
(612,196,cs),
(620,222,o),
(624,242,o),
(629,267,cs)
);
}
);
width = 691;
}
);
note = Ucircumflex;
unicode = 219;
},
{
glyphname = Udieresis;
kernLeft = U;
kernRight = U;
lastChange = "2022-11-29 13:34:19 +0000";
layers = (
{
hints = (
{
horizontal = 1;
place = (-70, 28);
place = (-70, 28);
type = Stem;
},
{
horizontal = 1;
place = (634, -20);
target = down;
type = TopGhost;
},
{
horizontal = 1;
place = (677, 50);
place = (677, 50);
type = Stem;
},
{
place = (32, 53);
place = (32, 53);
type = Stem;
},
{
place = (171, 51);
place = (171, 51);
type = Stem;
},
{
place = (326, 51);
place = (326, 51);
type = Stem;
},
{
place = (464, 53);
place = (464, 53);
type = Stem;
}
);
layerId = m01;
shapes = (
{
closed = 1;
nodes = (
(706,631,ls),
(713,665,o),
(688,696,o),
(654,696,cs),
(629,696,o),
(607,678,o),
(602,653,cs),
(520,265,ls),
(516,244,o),
(511,225,o),
(506,209,cs),
(481,126,o),
(417,70,o),
(317,70,cs),
(218,70,o),
(176,126,o),
(187,209,cs),
(188,225,o),
(193,244,o),
(197,265,cs),
(275,631,ls),
(282,665,o),
(256,695,o),
(222,695,cs),
(197,695,o),
(175,678,o),
(170,653,cs),
(88,267,ls),
(83,242,o),
(79,222,o),
(75,196,cs),
(60,81,o),
(119,-14,o),
(299,-14,cs),
(479,-14,o),
(578,81,o),
(612,196,cs),
(620,222,o),
(624,242,o),
(629,267,cs)
);
},
{
closed = 1;
nodes = (
(387,733,cs),
(400,733,ls),
(430,733,o),
(454,760,o),
(450,791,cs),
(446,820,o),
(423,844,o),
(393,844,cs),
(384,844,o),
(376,842,o),
(369,838,cs),
(349,828,o),
(334,809,o),
(334,786,cs),
(334,757,o),
(358,733,o)
);
},
{
closed = 1;
nodes = (
(542,733,cs),
(555,733,ls),
(585,733,o),
(609,760,o),
(605,791,cs),
(601,820,o),
(578,844,o),
(548,844,cs),
(539,844,o),
(531,842,o),
(524,838,cs),
(504,828,o),
(489,809,o),
(489,786,cs),
(489,757,o),
(513,733,o)
);
}
);
width = 691;
}
);
note = Udieresis;
unicode = 220;
},
{
glyphname = Ugrave;
kernLeft = U;
kernRight = U;
lastChange = "2022-11-29 13:44:05 +0000";
layers = (
{
hints = (
{
horizontal = 1;
place = (-70, 28);
place = (-70, 28);
type = Stem;
},
{
horizontal = 1;
place = (634, -20);
target = down;
type = TopGhost;
},
{
horizontal = 1;
place = (680, 46);
place = (680, 46);
type = Stem;
},
{
place = (32, 53);
place = (32, 53);
type = Stem;
},
{
place = (464, 53);
place = (464, 53);
type = Stem;
}
);
layerId = m01;
shapes = (
{
closed = 1;
nodes = (
(481,775,c),
(463,819,ls),
(458,833,o),
(444,844,o),
(428,844,cs),
(407,844,o),
(389,826,o),
(389,805,cs),
(389,801,o),
(390,797,o),
(391,792,cs),
(395,774,o),
(405,758,o),
(419,747,cs),
(440,730,o),
(468,726,o),
(480,748,cs),
(483,753,o),
(484,758,o),
(484,763,cs),
(484,767,o),
(482,771,o)
);
},
{
closed = 1;
nodes = (
(706,631,ls),
(713,665,o),
(688,696,o),
(654,696,cs),
(629,696,o),
(607,678,o),
(602,653,cs),
(520,265,ls),
(516,244,o),
(511,225,o),
(506,209,cs),
(481,126,o),
(417,70,o),
(317,70,cs),
(218,70,o),
(176,126,o),
(187,209,cs),
(188,225,o),
(193,244,o),
(197,265,cs),
(275,631,ls),
(282,665,o),
(256,695,o),
(222,695,cs),
(197,695,o),
(175,678,o),
(170,653,cs),
(88,267,ls),
(83,242,o),
(79,222,o),
(75,196,cs),
(60,81,o),
(119,-14,o),
(299,-14,cs),
(479,-14,o),
(578,81,o),
(612,196,cs),
(620,222,o),
(624,242,o),
(629,267,cs)
);
}
);
width = 691;
}
);
note = Ugrave;
unicode = 217;
},
{
glyphname = Uhungarumlaut;
kernLeft = U;
kernRight = U;
lastChange = "2022-11-29 13:34:19 +0000";
layers = (
{
hints = (
{
horizontal = 1;
place = (-70, 28);
place = (-70, 28);
type = Stem;
},
{
horizontal = 1;
place = (634, -20);
target = down;
type = TopGhost;
},
{
horizontal = 1;
place = (680, 46);
place = (680, 46);
type = Stem;
},
{
place = (32, 53);
place = (32, 53);
type = Stem;
},
{
place = (464, 53);
place = (464, 53);
type = Stem;
}
);
layerId = m01;
shapes = (
{
closed = 1;
nodes = (
(403,737,cs),
(461,787,ls),
(468,793,o),
(473,802,o),
(473,811,cs),
(473,829,o),
(458,844,o),
(441,844,cs),
(431,844,o),
(422,839,o),
(416,832,cs),
(366,773,ls),
(363,769,o),
(360,762,o),
(360,756,cs),
(360,742,o),
(372,731,o),
(386,731,cs),
(392,731,o),
(399,733,o)
);
},
{
closed = 1;
nodes = (
(535,737,cs),
(593,787,ls),
(600,793,o),
(605,802,o),
(605,811,cs),
(605,829,o),
(590,844,o),
(573,844,cs),
(563,844,o),
(554,839,o),
(548,832,cs),
(498,773,ls),
(495,769,o),
(492,762,o),
(492,756,cs),
(492,742,o),
(504,731,o),
(518,731,cs),
(524,731,o),
(531,733,o)
);
},
{
closed = 1;
nodes = (
(706,631,ls),
(713,665,o),
(688,696,o),
(654,696,cs),
(629,696,o),
(607,678,o),
(602,653,cs),
(520,265,ls),
(516,244,o),
(511,225,o),
(506,209,cs),
(481,126,o),
(417,70,o),
(317,70,cs),
(218,70,o),
(176,126,o),
(187,209,cs),
(188,225,o),
(193,244,o),
(197,265,cs),
(275,631,ls),
(282,665,o),
(256,695,o),
(222,695,cs),
(197,695,o),
(175,678,o),
(170,653,cs),
(88,267,ls),
(83,242,o),
(79,222,o),
(75,196,cs),
(60,81,o),
(119,-14,o),
(299,-14,cs),
(479,-14,o),
(578,81,o),
(612,196,cs),
(620,222,o),
(624,242,o),
(629,267,cs)
);
}
);
width = 691;
}
);
note = Uhungarumlaut;
unicode = 368;
},
{
glyphname = Umacron;
kernLeft = U;
kernRight = U;
lastChange = "2022-11-29 13:34:19 +0000";
layers = (
{
hints = (
{
horizontal = 1;
place = (-70, 28);
place = (-70, 28);
type = Stem;
},
{
horizontal = 1;
place = (634, -20);
target = down;
type = TopGhost;
},
{
horizontal = 1;
place = (702, 7);
place = (702, 7);
type = Stem;
},
{
place = (32, 53);
place = (32, 53);
type = Stem;
},
{
place = (175, 199);
place = (175, 199);
type = Stem;
},
{
place = (464, 53);
place = (464, 53);
type = Stem;
}
);
layerId = m01;
shapes = (
{
closed = 1;
nodes = (
(571,758,ls),
(588,758,o),
(602,772,o),
(602,790,cs),
(602,807,o),
(588,821,o),
(571,821,cs),
(369,821,ls),
(352,821,o),
(338,807,o),
(338,790,cs),
(338,772,o),
(352,758,o),
(369,758,cs)
);
},
{
closed = 1;
nodes = (
(706,631,ls),
(713,665,o),
(688,696,o),
(654,696,cs),
(629,696,o),
(607,678,o),
(602,653,cs),
(520,265,ls),
(516,244,o),
(511,225,o),
(506,209,cs),
(481,126,o),
(417,70,o),
(317,70,cs),
(218,70,o),
(176,126,o),
(187,209,cs),
(188,225,o),
(193,244,o),
(197,265,cs),
(275,631,ls),
(282,665,o),
(256,695,o),
(222,695,cs),
(197,695,o),
(175,678,o),
(170,653,cs),
(88,267,ls),
(83,242,o),
(79,222,o),
(75,196,cs),
(60,81,o),
(119,-14,o),
(299,-14,cs),
(479,-14,o),
(578,81,o),
(612,196,cs),
(620,222,o),
(624,242,o),
(629,267,cs)
);
}
);
width = 691;
}
);
note = Umacron;
unicode = 362;
},
{
glyphname = Uogonek;
kernLeft = U;
kernRight = U;
lastChange = "2022-11-29 13:34:19 +0000";
layers = (
{
hints = (
{
horizontal = 1;
place = (-279, 10);
place = (-279, 10);
type = Stem;
},
{
horizontal = 1;
place = (-70, 28);
place = (-70, 28);
type = Stem;
},
{
horizontal = 1;
place = (634, -20);
target = down;
type = TopGhost;
},
{
place = (32, 53);
place = (32, 53);
type = Stem;
},
{
place = (226, 46);
place = (226, 46);
type = Stem;
},
{
place = (464, 53);
place = (464, 53);
type = Stem;
}
);
layerId = m01;
shapes = (
{
closed = 1;
nodes = (
(706,631,ls),
(713,665,o),
(688,696,o),
(654,696,cs),
(629,696,o),
(607,678,o),
(602,653,cs),
(520,265,ls),
(516,244,o),
(511,225,o),
(506,209,cs),
(481,126,o),
(417,70,o),
(317,70,cs),
(218,70,o),
(176,126,o),
(187,209,cs),
(188,225,o),
(193,244,o),
(197,265,cs),
(275,631,ls),
(282,665,o),
(256,695,o),
(222,695,cs),
(197,695,o),
(175,678,o),
(170,653,cs),
(88,267,ls),
(83,242,o),
(79,222,o),
(75,196,cs),
(60,83,o),
(117,-10,o),
(288,-14,c),
(245,-42,o),
(208,-85,o),
(196,-138,cs),
(183,-201,o),
(218,-223,o),
(276,-223,cs),
(313,-223,o),
(347,-214,o),
(379,-199,cs),
(387,-195,o),
(392,-186,o),
(392,-177,cs),
(392,-161,o),
(377,-150,o),
(362,-154,cs),
(354,-156,o),
(346,-157,o),
(338,-157,cs),
(311,-157,o),
(297,-144,o),
(305,-107,cs),
(316,-57,o),
(353,-18,o),
(393,-4,c),
(515,23,o),
(585,103,o),
(612,196,cs),
(620,222,o),
(624,242,o),
(629,267,cs)
);
}
);
width = 691;
}
);
note = Uogonek;
unicode = 370;
},
{
glyphname = Uring;
kernLeft = U;
kernRight = U;
lastChange = "2022-11-29 13:34:19 +0000";
layers = (
{
hints = (
{
horizontal = 1;
place = (-70, 28);
place = (-70, 28);
type = Stem;
},
{
horizontal = 1;
place = (634, -20);
target = down;
type = TopGhost;
},
{
horizontal = 1;
place = (789, -12);
place = (789, -12);
type = Stem;
},
{
place = (32, 53);
place = (32, 53);
type = Stem;
},
{
place = (204, 2);
place = (204, 2);
type = Stem;
},
{
place = (342, 2);
place = (342, 2);
type = Stem;
},
{
place = (464, 53);
place = (464, 53);
type = Stem;
},
{
horizontal = 1;
place = (662, -13);
place = (662, -13);
type = Stem;
}
);
layerId = m01;
shapes = (
{
closed = 1;
nodes = (
(434,889,o),
(385,853,o),
(374,803,cs),
(364,753,o),
(397,718,o),
(454,718,cs),
(511,718,o),
(560,753,o),
(570,803,cs),
(581,853,o),
(548,889,o),
(491,889,cs)
);
},
{
closed = 1;
nodes = (
(504,845,o),
(518,828,o),
(512,803,cs),
(507,779,o),
(486,761,o),
(463,761,cs),
(440,761,o),
(427,779,o),
(432,803,cs),
(438,828,o),
(458,845,o),
(481,845,cs)
);
},
{
closed = 1;
nodes = (
(706,631,ls),
(713,665,o),
(688,696,o),
(654,696,cs),
(629,696,o),
(607,678,o),
(602,653,cs),
(520,265,ls),
(516,244,o),
(511,225,o),
(506,209,cs),
(481,126,o),
(417,70,o),
(317,70,cs),
(218,70,o),
(176,126,o),
(187,209,cs),
(188,225,o),
(193,244,o),
(197,265,cs),
(275,631,ls),
(282,665,o),
(256,695,o),
(222,695,cs),
(197,695,o),
(175,678,o),
(170,653,cs),
(88,267,ls),
(83,242,o),
(79,222,o),
(75,196,cs),
(60,81,o),
(119,-14,o),
(299,-14,cs),
(479,-14,o),
(578,81,o),
(612,196,cs),
(620,222,o),
(624,242,o),
(629,267,cs)
);
}
);
width = 691;
}
);
note = Uring;
unicode = 366;
},
{
glyphname = V;
kernLeft = V;
kernRight = V;
lastChange = "2022-11-29 13:44:05 +0000";
layers = (
{
hints = (
{
horizontal = 1;
place = (-56, 21);
target = up;
type = BottomGhost;
},
{
horizontal = 1;
place = (634, -20);
target = down;
type = TopGhost;
},
{
place = (-24, 575);
place = (-24, 575);
type = Stem;
},
{
horizontal = 1;
place = (-56, 28);
place = (-56, 28);
type = Stem;
}
);
layerId = m01;
shapes = (
{
closed = 1;
nodes = (
(313,0,ls),
(345,0,o),
(366,13,o),
(382,40,cs),
(713,620,ls),
(717,628,o),
(720,636,o),
(720,645,cs),
(720,673,o),
(697,695,o),
(669,695,cs),
(650,695,o),
(633,684,o),
(625,669,cs),
(308,84,l),
(246,644,ls),
(243,674,o),
(218,695,o),
(188,695,cs),
(153,695,o),
(125,664,o),
(130,629,cs),
(210,54,ls),
(215,19,o),
(235,0,o),
(271,0,cs)
);
}
);
width = 652;
}
);
note = V;
unicode = 86;
},
{
glyphname = W;
kernLeft = W;
kernRight = W;
lastChange = "2022-11-29 13:44:05 +0000";
layers = (
{
hints = (
{
horizontal = 1;
place = (-56, 21);
target = up;
type = BottomGhost;
},
{
horizontal = 1;
place = (634, -20);
target = down;
type = TopGhost;
},
{
place = (-30, 884);
place = (-30, 884);
type = Stem;
},
{
horizontal = 1;
place = (-56, 32);
place = (-56, 32);
type = Stem;
},
{
horizontal = 1;
place = (532, 36);
place = (532, 36);
type = Stem;
}
);
layerId = m01;
shapes = (
{
closed = 1;
nodes = (
(1023,622,ls),
(1026,628,o),
(1028,637,o),
(1028,645,cs),
(1028,673,o),
(1006,695,o),
(977,695,cs),
(957,695,o),
(939,682,o),
(931,665,cs),
(674,88,l),
(662,623,ls),
(661,661,o),
(641,680,o),
(604,680,cs),
(558,680,ls),
(526,680,o),
(503,667,o),
(490,637,cs),
(242,91,l),
(237,637,ls),
(237,669,o),
(211,696,o),
(178,696,cs),
(143,696,o),
(118,666,o),
(119,633,cs),
(145,57,ls),
(147,20,o),
(168,0,o),
(205,0,cs),
(246,0,ls),
(278,0,o),
(300,14,o),
(314,43,cs),
(564,588,l),
(576,57,ls),
(577,19,o),
(597,0,o),
(634,0,cs),
(675,0,ls),
(707,0,o),
(729,13,o),
(743,43,cs)
);
}
);
width = 968;
}
);
note = W;
unicode = 87;
},
{
glyphname = Wacute;
kernLeft = W;
kernRight = W;
lastChange = "2022-11-29 13:44:05 +0000";
layers = (
{
hints = (
{
horizontal = 1;
place = (-56, 21);
target = up;
type = BottomGhost;
},
{
horizontal = 1;
place = (634, -20);
target = down;
type = TopGhost;
},
{
horizontal = 1;
place = (680, 46);
place = (680, 46);
type = Stem;
},
{
place = (-30, 884);
place = (-30, 884);
type = Stem;
},
{
horizontal = 1;
place = (-56, 32);
place = (-56, 32);
type = Stem;
},
{
horizontal = 1;
place = (532, 36);
place = (532, 36);
type = Stem;
}
);
layerId = m01;
shapes = (
{
closed = 1;
nodes = (
(626,737,cs),
(684,787,ls),
(691,793,o),
(696,802,o),
(696,811,cs),
(696,829,o),
(681,844,o),
(664,844,cs),
(654,844,o),
(645,839,o),
(639,832,cs),
(589,773,ls),
(586,769,o),
(583,762,o),
(583,756,cs),
(583,742,o),
(595,731,o),
(609,731,cs),
(615,731,o),
(622,733,o)
);
},
{
closed = 1;
nodes = (
(1023,622,ls),
(1026,628,o),
(1028,637,o),
(1028,645,cs),
(1028,673,o),
(1006,695,o),
(977,695,cs),
(957,695,o),
(939,682,o),
(931,665,cs),
(674,88,l),
(662,623,ls),
(661,661,o),
(641,680,o),
(604,680,cs),
(558,680,ls),
(526,680,o),
(503,667,o),
(490,637,cs),
(242,91,l),
(237,637,ls),
(237,669,o),
(211,696,o),
(178,696,cs),
(143,696,o),
(118,666,o),
(119,633,cs),
(145,57,ls),
(147,20,o),
(168,0,o),
(205,0,cs),
(246,0,ls),
(278,0,o),
(300,14,o),
(314,43,cs),
(564,588,l),
(576,57,ls),
(577,19,o),
(597,0,o),
(634,0,cs),
(675,0,ls),
(707,0,o),
(729,13,o),
(743,43,cs)
);
}
);
width = 968;
}
);
note = Wacute;
unicode = 7810;
},
{
glyphname = Wcircumflex;
kernLeft = W;
kernRight = W;
lastChange = "2022-11-29 13:44:05 +0000";
layers = (
{
hints = (
{
horizontal = 1;
place = (-56, 21);
target = up;
type = BottomGhost;
},
{
horizontal = 1;
place = (634, -20);
target = down;
type = TopGhost;
},
{
horizontal = 1;
place = (680, 46);
place = (680, 46);
type = Stem;
},
{
place = (-30, 884);
place = (-30, 884);
type = Stem;
},
{
horizontal = 1;
place = (-56, 32);
place = (-56, 32);
type = Stem;
},
{
horizontal = 1;
place = (532, 36);
place = (532, 36);
type = Stem;
}
);
layerId = m01;
shapes = (
{
closed = 1;
nodes = (
(570,742,cs),
(610,796,l),
(619,766,ls),
(625,745,o),
(630,736,o),
(632,736,cs),
(660,736,o),
(683,759,o),
(683,787,cs),
(683,815,o),
(660,838,o),
(632,838,cs),
(616,838,ls),
(581,838,o),
(550,819,o),
(533,792,cs),
(519,769,o),
(514,741,o),
(539,732,cs),
(542,731,o),
(545,731,o),
(548,731,cs),
(557,731,o),
(565,735,o)
);
},
{
closed = 1;
nodes = (
(1023,622,ls),
(1026,628,o),
(1028,637,o),
(1028,645,cs),
(1028,673,o),
(1006,695,o),
(977,695,cs),
(957,695,o),
(939,682,o),
(931,665,cs),
(674,88,l),
(662,623,ls),
(661,661,o),
(641,680,o),
(604,680,cs),
(558,680,ls),
(526,680,o),
(503,667,o),
(490,637,cs),
(242,91,l),
(237,637,ls),
(237,669,o),
(211,696,o),
(178,696,cs),
(143,696,o),
(118,666,o),
(119,633,cs),
(145,57,ls),
(147,20,o),
(168,0,o),
(205,0,cs),
(246,0,ls),
(278,0,o),
(300,14,o),
(314,43,cs),
(564,588,l),
(576,57,ls),
(577,19,o),
(597,0,o),
(634,0,cs),
(675,0,ls),
(707,0,o),
(729,13,o),
(743,43,cs)
);
}
);
width = 968;
}
);
note = Wcircumflex;
unicode = 372;
},
{
glyphname = Wdieresis;
kernLeft = W;
kernRight = W;
lastChange = "2022-11-29 13:44:05 +0000";
layers = (
{
hints = (
{
horizontal = 1;
place = (-56, 21);
target = up;
type = BottomGhost;
},
{
horizontal = 1;
place = (634, -20);
target = down;
type = TopGhost;
},
{
horizontal = 1;
place = (677, 50);
place = (677, 50);
type = Stem;
},
{
place = (310, 51);
place = (310, 51);
type = Stem;
},
{
place = (465, 51);
place = (465, 51);
type = Stem;
},
{
horizontal = 1;
place = (-56, 32);
place = (-56, 32);
type = Stem;
},
{
horizontal = 1;
place = (532, 36);
place = (532, 36);
type = Stem;
}
);
layerId = m01;
shapes = (
{
closed = 1;
nodes = (
(1023,622,ls),
(1026,628,o),
(1028,637,o),
(1028,645,cs),
(1028,673,o),
(1006,695,o),
(977,695,cs),
(957,695,o),
(939,682,o),
(931,665,cs),
(674,88,l),
(662,623,ls),
(661,661,o),
(641,680,o),
(604,680,cs),
(558,680,ls),
(526,680,o),
(503,667,o),
(490,637,cs),
(242,91,l),
(237,637,ls),
(237,669,o),
(211,696,o),
(178,696,cs),
(143,696,o),
(118,666,o),
(119,633,cs),
(145,57,ls),
(147,20,o),
(168,0,o),
(205,0,cs),
(246,0,ls),
(278,0,o),
(300,14,o),
(314,43,cs),
(564,588,l),
(576,57,ls),
(577,19,o),
(597,0,o),
(634,0,cs),
(675,0,ls),
(707,0,o),
(729,13,o),
(743,43,cs)
);
},
{
closed = 1;
nodes = (
(525,733,cs),
(538,733,ls),
(568,733,o),
(592,760,o),
(588,791,cs),
(584,820,o),
(561,844,o),
(531,844,cs),
(522,844,o),
(514,842,o),
(507,838,cs),
(487,828,o),
(472,809,o),
(472,786,cs),
(472,757,o),
(496,733,o)
);
},
{
closed = 1;
nodes = (
(680,733,cs),
(693,733,ls),
(723,733,o),
(747,760,o),
(743,791,cs),
(739,820,o),
(716,844,o),
(686,844,cs),
(677,844,o),
(669,842,o),
(662,838,cs),
(642,828,o),
(627,809,o),
(627,786,cs),
(627,757,o),
(651,733,o)
);
}
);
width = 968;
}
);
note = Wdieresis;
unicode = 7812;
},
{
glyphname = Wgrave;
kernLeft = W;
kernRight = W;
lastChange = "2022-11-29 13:44:05 +0000";
layers = (
{
hints = (
{
horizontal = 1;
place = (-56, 21);
target = up;
type = BottomGhost;
},
{
horizontal = 1;
place = (634, -20);
target = down;
type = TopGhost;
},
{
horizontal = 1;
place = (680, 46);
place = (680, 46);
type = Stem;
},
{
place = (-30, 884);
place = (-30, 884);
type = Stem;
},
{
horizontal = 1;
place = (-56, 32);
place = (-56, 32);
type = Stem;
},
{
horizontal = 1;
place = (532, 36);
place = (532, 36);
type = Stem;
}
);
layerId = m01;
shapes = (
{
closed = 1;
nodes = (
(554,750,cs),
(574,731,o),
(604,737,o),
(616,762,cs),
(620,770,o),
(622,778,o),
(622,787,cs),
(622,798,o),
(619,809,o),
(613,817,cs),
(600,837,o),
(574,843,o),
(554,824,cs),
(544,815,o),
(538,801,o),
(538,787,cs),
(538,773,o),
(544,759,o)
);
},
{
closed = 1;
nodes = (
(1023,622,ls),
(1026,628,o),
(1028,637,o),
(1028,645,cs),
(1028,673,o),
(1006,695,o),
(977,695,cs),
(957,695,o),
(939,682,o),
(931,665,cs),
(674,88,l),
(662,623,ls),
(661,661,o),
(641,680,o),
(604,680,cs),
(558,680,ls),
(526,680,o),
(503,667,o),
(490,637,cs),
(242,91,l),
(237,637,ls),
(237,669,o),
(211,696,o),
(178,696,cs),
(143,696,o),
(118,666,o),
(119,633,cs),
(145,57,ls),
(147,20,o),
(168,0,o),
(205,0,cs),
(246,0,ls),
(278,0,o),
(300,14,o),
(314,43,cs),
(564,588,l),
(576,57,ls),
(577,19,o),
(597,0,o),
(634,0,cs),
(675,0,ls),
(707,0,o),
(729,13,o),
(743,43,cs)
);
}
);
width = 968;
}
);
note = Wgrave;
unicode = 7808;
},
{
glyphname = X;
lastChange = "2022-11-29 13:44:05 +0000";
layers = (
{
hints = (
{
horizontal = 1;
place = (-56, 21);
target = up;
type = BottomGhost;
},
{
horizontal = 1;
place = (634, -20);
target = down;
type = TopGhost;
},
{
place = (-34, 569);
place = (-34, 569);
type = Stem;
}
);
layerId = m01;
shapes = (
{
closed = 1;
nodes = (
(450,28,ls),
(459,9,o),
(479,-5,o),
(502,-5,cs),
(533,-5,o),
(559,20,o),
(559,51,cs),
(559,61,o),
(557,70,o),
(553,77,cs),
(417,351,l),
(663,619,ls),
(697,656,o),
(689,690,o),
(646,690,cs),
(616,690,o),
(595,681,o),
(575,658,cs),
(369,420,l),
(268,661,ls),
(260,681,o),
(240,696,o),
(216,696,cs),
(185,696,o),
(159,670,o),
(159,639,cs),
(159,630,o),
(161,623,o),
(164,615,cs),
(287,348,l),
(32,71,ls),
(-2,34,o),
(7,0,o),
(52,0,cs),
(82,0,o),
(104,10,o),
(123,33,cs),
(334,279,l)
);
}
);
width = 648;
}
);
note = X;
unicode = 88;
},
{
glyphname = Y;
kernLeft = Y;
kernRight = Y;
lastChange = "2022-11-29 13:34:19 +0000";
layers = (
{
hints = (
{
horizontal = 1;
place = (-56, 21);
target = up;
type = BottomGhost;
},
{
horizontal = 1;
place = (634, -20);
target = down;
type = TopGhost;
},
{
place = (206, 53);
place = (206, 53);
type = Stem;
}
);
layerId = m01;
shapes = (
{
closed = 1;
nodes = (
(372,270,l),
(648,618,ls),
(654,626,o),
(659,637,o),
(659,648,cs),
(659,674,o),
(637,696,o),
(611,696,cs),
(595,696,o),
(581,687,o),
(573,676,cs),
(344,371,l),
(245,656,ls),
(237,678,o),
(215,695,o),
(190,695,cs),
(157,695,o),
(131,669,o),
(131,637,cs),
(131,630,o),
(133,624,o),
(135,617,cs),
(263,270,l),
(218,59,ls),
(211,25,o),
(237,-6,o),
(271,-6,cs),
(296,-6,o),
(318,12,o),
(323,37,cs)
);
}
);
width = 602;
}
);
note = Y;
unicode = 89;
},
{
glyphname = Yacute;
kernLeft = Y;
kernRight = Y;
lastChange = "2022-11-29 13:34:19 +0000";
layers = (
{
hints = (
{
horizontal = 1;
place = (-56, 21);
target = up;
type = BottomGhost;
},
{
horizontal = 1;
place = (634, -20);
target = down;
type = TopGhost;
},
{
horizontal = 1;
place = (680, 46);
place = (680, 46);
type = Stem;
},
{
place = (206, 53);
place = (206, 53);
type = Stem;
}
);
layerId = m01;
shapes = (
{
closed = 1;
nodes = (
(445,737,cs),
(503,787,ls),
(510,793,o),
(515,802,o),
(515,811,cs),
(515,829,o),
(500,844,o),
(483,844,cs),
(473,844,o),
(464,839,o),
(458,832,cs),
(408,773,ls),
(405,769,o),
(402,762,o),
(402,756,cs),
(402,742,o),
(414,731,o),
(428,731,cs),
(434,731,o),
(441,733,o)
);
},
{
closed = 1;
nodes = (
(372,270,l),
(648,618,ls),
(654,626,o),
(659,637,o),
(659,648,cs),
(659,674,o),
(637,696,o),
(611,696,cs),
(595,696,o),
(581,687,o),
(573,676,cs),
(344,371,l),
(245,656,ls),
(237,678,o),
(215,695,o),
(190,695,cs),
(157,695,o),
(131,669,o),
(131,637,cs),
(131,630,o),
(133,624,o),
(135,617,cs),
(263,270,l),
(218,59,ls),
(211,25,o),
(237,-6,o),
(271,-6,cs),
(296,-6,o),
(318,12,o),
(323,37,cs)
);
}
);
width = 602;
}
);
note = Yacute;
unicode = 221;
},
{
glyphname = Ycircumflex;
kernLeft = Y;
kernRight = Y;
lastChange = "2022-11-29 13:44:05 +0000";
layers = (
{
hints = (
{
horizontal = 1;
place = (-56, 21);
target = up;
type = BottomGhost;
},
{
horizontal = 1;
place = (634, -20);
target = down;
type = TopGhost;
},
{
horizontal = 1;
place = (680, 46);
place = (680, 46);
type = Stem;
},
{
place = (206, 53);
place = (206, 53);
type = Stem;
}
);
layerId = m01;
shapes = (
{
closed = 1;
nodes = (
(389,742,cs),
(429,796,l),
(438,766,ls),
(444,745,o),
(449,736,o),
(451,736,cs),
(479,736,o),
(502,759,o),
(502,787,cs),
(502,815,o),
(479,838,o),
(451,838,cs),
(435,838,ls),
(400,838,o),
(369,819,o),
(352,792,cs),
(338,769,o),
(333,741,o),
(358,732,cs),
(361,731,o),
(364,731,o),
(367,731,cs),
(376,731,o),
(384,735,o)
);
},
{
closed = 1;
nodes = (
(372,270,l),
(648,618,ls),
(654,626,o),
(659,637,o),
(659,648,cs),
(659,674,o),
(637,696,o),
(611,696,cs),
(595,696,o),
(581,687,o),
(573,676,cs),
(344,371,l),
(245,656,ls),
(237,678,o),
(215,695,o),
(190,695,cs),
(157,695,o),
(131,669,o),
(131,637,cs),
(131,630,o),
(133,624,o),
(135,617,cs),
(263,270,l),
(218,59,ls),
(211,25,o),
(237,-6,o),
(271,-6,cs),
(296,-6,o),
(318,12,o),
(323,37,cs)
);
}
);
width = 602;
}
);
note = Ycircumflex;
unicode = 374;
},
{
glyphname = Ydieresis;
kernLeft = Y;
kernRight = Y;
lastChange = "2022-11-29 13:34:19 +0000";
layers = (
{
hints = (
{
horizontal = 1;
place = (-56, 21);
target = up;
type = BottomGhost;
},
{
horizontal = 1;
place = (634, -20);
target = down;
type = TopGhost;
},
{
horizontal = 1;
place = (677, 50);
place = (677, 50);
type = Stem;
},
{
place = (129, 51);
place = (129, 51);
type = Stem;
},
{
place = (284, 51);
place = (284, 51);
type = Stem;
},
{
place = (206, 53);
place = (206, 53);
type = Stem;
}
);
layerId = m01;
shapes = (
{
closed = 1;
nodes = (
(372,270,l),
(648,618,ls),
(654,626,o),
(659,637,o),
(659,648,cs),
(659,674,o),
(637,696,o),
(611,696,cs),
(595,696,o),
(581,687,o),
(573,676,cs),
(344,371,l),
(245,656,ls),
(237,678,o),
(215,695,o),
(190,695,cs),
(157,695,o),
(131,669,o),
(131,637,cs),
(131,630,o),
(133,624,o),
(135,617,cs),
(263,270,l),
(218,59,ls),
(211,25,o),
(237,-6,o),
(271,-6,cs),
(296,-6,o),
(318,12,o),
(323,37,cs)
);
},
{
closed = 1;
nodes = (
(342,733,cs),
(355,733,ls),
(385,733,o),
(409,760,o),
(405,791,cs),
(401,820,o),
(378,844,o),
(348,844,cs),
(339,844,o),
(331,842,o),
(324,838,cs),
(304,828,o),
(289,809,o),
(289,786,cs),
(289,757,o),
(313,733,o)
);
},
{
closed = 1;
nodes = (
(497,733,cs),
(510,733,ls),
(540,733,o),
(564,760,o),
(560,791,cs),
(556,820,o),
(533,844,o),
(503,844,cs),
(494,844,o),
(486,842,o),
(479,838,cs),
(459,828,o),
(444,809,o),
(444,786,cs),
(444,757,o),
(468,733,o)
);
}
);
width = 602;
}
);
note = Ydieresis;
unicode = 376;
},
{
glyphname = Ygrave;
kernLeft = Y;
kernRight = Y;
lastChange = "2022-11-29 13:44:05 +0000";
layers = (
{
hints = (
{
horizontal = 1;
place = (-56, 21);
target = up;
type = BottomGhost;
},
{
horizontal = 1;
place = (634, -20);
target = down;
type = TopGhost;
},
{
horizontal = 1;
place = (680, 46);
place = (680, 46);
type = Stem;
},
{
place = (206, 53);
place = (206, 53);
type = Stem;
}
);
layerId = m01;
shapes = (
{
closed = 1;
nodes = (
(373,750,cs),
(393,731,o),
(423,737,o),
(435,762,cs),
(439,770,o),
(441,778,o),
(441,787,cs),
(441,798,o),
(438,809,o),
(432,817,cs),
(419,837,o),
(393,843,o),
(373,824,cs),
(363,815,o),
(357,801,o),
(357,787,cs),
(357,773,o),
(363,759,o)
);
},
{
closed = 1;
nodes = (
(372,270,l),
(648,618,ls),
(654,626,o),
(659,637,o),
(659,648,cs),
(659,674,o),
(637,696,o),
(611,696,cs),
(595,696,o),
(581,687,o),
(573,676,cs),
(344,371,l),
(245,656,ls),
(237,678,o),
(215,695,o),
(190,695,cs),
(157,695,o),
(131,669,o),
(131,637,cs),
(131,630,o),
(133,624,o),
(135,617,cs),
(263,270,l),
(218,59,ls),
(211,25,o),
(237,-6,o),
(271,-6,cs),
(296,-6,o),
(318,12,o),
(323,37,cs)
);
}
);
width = 602;
}
);
note = Ygrave;
unicode = 7922;
},
{
glyphname = Z;
kernLeft = Z;
kernRight = Z;
lastChange = "2022-11-29 13:34:19 +0000";
layers = (
{
hints = (
{
horizontal = 1;
place = (-56, 32);
place = (-56, 32);
type = Stem;
},
{
horizontal = 1;
place = (547, 31);
place = (547, 31);
type = Stem;
},
{
place = (-8, 477);
place = (-8, 477);
type = Stem;
}
);
layerId = m01;
shapes = (
{
closed = 1;
nodes = (
(495,88,cs),
(141,88,l),
(644,600,ls),
(653,610,o),
(659,623,o),
(659,637,cs),
(659,666,o),
(636,690,o),
(607,690,cs),
(196,690,ls),
(172,690,o),
(152,671,o),
(152,647,cs),
(152,622,o),
(172,603,o),
(196,603,cs),
(520,603,l),
(13,87,ls),
(4,77,o),
(-1,65,o),
(-1,51,cs),
(-1,23,o),
(22,0,o),
(50,0,cs),
(495,0,ls),
(519,0,o),
(539,20,o),
(539,44,cs),
(539,68,o),
(519,88,o)
);
}
);
width = 605;
}
);
note = Z;
unicode = 90;
},
{
glyphname = Zacute;
kernLeft = Z;
kernRight = Z;
lastChange = "2022-11-29 13:34:19 +0000";
layers = (
{
hints = (
{
horizontal = 1;
place = (-56, 32);
place = (-56, 32);
type = Stem;
},
{
horizontal = 1;
place = (547, 31);
place = (547, 31);
type = Stem;
},
{
horizontal = 1;
place = (680, 46);
place = (680, 46);
type = Stem;
},
{
place = (-8, 477);
place = (-8, 477);
type = Stem;
}
);
layerId = m01;
shapes = (
{
closed = 1;
nodes = (
(444,737,cs),
(502,787,ls),
(509,793,o),
(514,802,o),
(514,811,cs),
(514,829,o),
(499,844,o),
(482,844,cs),
(472,844,o),
(463,839,o),
(457,832,cs),
(407,773,ls),
(404,769,o),
(401,762,o),
(401,756,cs),
(401,742,o),
(413,731,o),
(427,731,cs),
(433,731,o),
(440,733,o)
);
},
{
closed = 1;
nodes = (
(495,88,cs),
(141,88,l),
(644,600,ls),
(653,610,o),
(659,623,o),
(659,637,cs),
(659,666,o),
(636,690,o),
(607,690,cs),
(196,690,ls),
(172,690,o),
(152,671,o),
(152,647,cs),
(152,622,o),
(172,603,o),
(196,603,cs),
(520,603,l),
(13,87,ls),
(4,77,o),
(-1,65,o),
(-1,51,cs),
(-1,23,o),
(22,0,o),
(50,0,cs),
(495,0,ls),
(519,0,o),
(539,20,o),
(539,44,cs),
(539,68,o),
(519,88,o)
);
}
);
width = 605;
}
);
note = Zacute;
unicode = 377;
},
{
glyphname = Zcaron;
kernLeft = Z;
kernRight = Z;
lastChange = "2022-11-29 13:44:05 +0000";
layers = (
{
hints = (
{
horizontal = 1;
place = (-56, 32);
place = (-56, 32);
type = Stem;
},
{
horizontal = 1;
place = (547, 31);
place = (547, 31);
type = Stem;
},
{
horizontal = 1;
place = (680, 46);
place = (680, 46);
type = Stem;
},
{
place = (-8, 477);
place = (-8, 477);
type = Stem;
}
);
layerId = m01;
shapes = (
{
closed = 1;
nodes = (
(403,736,cs),
(419,736,ls),
(454,736,o),
(485,755,o),
(502,782,cs),
(516,805,o),
(521,832,o),
(497,842,cs),
(494,843,o),
(490,844,o),
(487,844,cs),
(478,844,o),
(470,839,o),
(465,832,cs),
(425,777,l),
(416,808,ls),
(410,828,o),
(405,838,o),
(403,838,cs),
(375,838,o),
(352,815,o),
(352,787,cs),
(352,759,o),
(375,736,o)
);
},
{
closed = 1;
nodes = (
(495,88,cs),
(141,88,l),
(644,600,ls),
(653,610,o),
(659,623,o),
(659,637,cs),
(659,666,o),
(636,690,o),
(607,690,cs),
(196,690,ls),
(172,690,o),
(152,671,o),
(152,647,cs),
(152,622,o),
(172,603,o),
(196,603,cs),
(520,603,l),
(13,87,ls),
(4,77,o),
(-1,65,o),
(-1,51,cs),
(-1,23,o),
(22,0,o),
(50,0,cs),
(495,0,ls),
(519,0,o),
(539,20,o),
(539,44,cs),
(539,68,o),
(519,88,o)
);
}
);
width = 605;
}
);
note = Zcaron;
unicode = 381;
},
{
glyphname = Zdotaccent;
kernLeft = Z;
kernRight = Z;
lastChange = "2022-11-29 13:34:19 +0000";
layers = (
{
hints = (
{
horizontal = 1;
place = (-56, 32);
place = (-56, 32);
type = Stem;
},
{
horizontal = 1;
place = (547, 31);
place = (547, 31);
type = Stem;
},
{
horizontal = 1;
place = (678, 57);
place = (678, 57);
type = Stem;
},
{
place = (201, 60);
place = (201, 60);
type = Stem;
}
);
layerId = m01;
shapes = (
{
closed = 1;
nodes = (
(448,734,o),
(478,758,o),
(485,791,cs),
(492,823,o),
(472,847,o),
(439,847,cs),
(406,847,o),
(376,823,o),
(369,791,cs),
(362,758,o),
(382,734,o),
(415,734,cs)
);
},
{
closed = 1;
nodes = (
(495,88,cs),
(141,88,l),
(644,600,ls),
(653,610,o),
(659,623,o),
(659,637,cs),
(659,666,o),
(636,690,o),
(607,690,cs),
(196,690,ls),
(172,690,o),
(152,671,o),
(152,647,cs),
(152,622,o),
(172,603,o),
(196,603,cs),
(520,603,l),
(13,87,ls),
(4,77,o),
(-1,65,o),
(-1,51,cs),
(-1,23,o),
(22,0,o),
(50,0,cs),
(495,0,ls),
(519,0,o),
(539,20,o),
(539,44,cs),
(539,68,o),
(519,88,o)
);
}
);
width = 605;
}
);
note = Zdotaccent;
unicode = 379;
},
{
glyphname = a;
kernLeft = a;
lastChange = "2022-11-29 13:44:05 +0000";
layers = (
{
hints = (
{
horizontal = 1;
place = (-56, 10);
place = (-56, 10);
type = Stem;
},
{
horizontal = 1;
place = (192, 17);
place = (192, 17);
type = Stem;
},
{
horizontal = 1;
place = (409, 24);
place = (409, 24);
type = Stem;
},
{
place = (-21, 60);
place = (-21, 60);
type = Stem;
},
{
place = (308, 54);
place = (308, 54);
type = Stem;
},
{
horizontal = 1;
place = (-70, 24);
place = (-70, 24);
type = Stem;
}
);
layerId = m01;
shapes = (
{
closed = 1;
nodes = (
(323,53,ls),
(321,22,o),
(346,-5,o),
(378,-5,cs),
(406,-5,o),
(429,17,o),
(432,44,cs),
(436,80,o),
(440,106,o),
(446,135,cs),
(486,322,ls),
(491,347,o),
(496,375,o),
(499,397,cs),
(509,487,o),
(468,545,o),
(331,545,cs),
(239,545,o),
(157,506,o),
(110,434,cs),
(105,426,o),
(102,417,o),
(102,407,cs),
(102,379,o),
(124,357,o),
(152,357,cs),
(173,357,o),
(189,370,o),
(197,387,cs),
(220,439,o),
(258,465,o),
(312,465,cs),
(375,465,o),
(395,435,o),
(389,392,cs),
(387,372,o),
(383,354,o),
(379,334,cs),
(376,321,l),
(342,321,ls),
(141,321,o),
(33,257,o),
(8,139,cs),
(-13,40,o),
(53,-14,o),
(147,-14,cs),
(184,-14,o),
(220,-9,o),
(252,3,cs),
(278,13,o),
(292,28,o),
(307,51,cs),
(325,77,l)
);
},
{
closed = 1;
nodes = (
(146,66,o),
(114,92,o),
(126,148,cs),
(143,229,o),
(234,258,o),
(360,248,c),
(350,199,ls),
(332,113,o),
(273,66,o),
(204,66,cs)
);
}
);
width = 545;
}
);
note = a;
unicode = 97;
},
{
glyphname = aacute;
kernLeft = a;
lastChange = "2022-11-29 13:44:05 +0000";
layers = (
{
hints = (
{
horizontal = 1;
place = (-70, 24);
place = (-70, 24);
type = Stem;
},
{
horizontal = 1;
place = (192, 17);
place = (192, 17);
type = Stem;
},
{
horizontal = 1;
place = (409, 24);
place = (409, 24);
type = Stem;
},
{
horizontal = 1;
place = (522, 58);
place = (522, 58);
type = Stem;
},
{
place = (-21, 60);
place = (-21, 60);
type = Stem;
},
{
place = (308, 54);
place = (308, 54);
type = Stem;
},
{
horizontal = 1;
place = (-56, 10);
place = (-56, 10);
type = Stem;
}
);
layerId = m01;
shapes = (
{
closed = 1;
nodes = (
(366,579,cs),
(434,640,ls),
(440,646,o),
(445,655,o),
(445,665,cs),
(445,683,o),
(430,697,o),
(412,697,cs),
(402,697,o),
(393,693,o),
(387,685,cs),
(329,615,ls),
(326,611,o),
(323,605,o),
(323,598,cs),
(323,584,o),
(335,572,o),
(349,572,cs),
(356,572,o),
(362,575,o)
);
},
{
closed = 1;
nodes = (
(323,53,ls),
(321,22,o),
(346,-5,o),
(378,-5,cs),
(406,-5,o),
(429,17,o),
(432,44,cs),
(436,80,o),
(440,106,o),
(446,135,cs),
(486,322,ls),
(491,347,o),
(496,375,o),
(499,397,cs),
(509,487,o),
(468,545,o),
(331,545,cs),
(239,545,o),
(157,506,o),
(110,434,cs),
(105,426,o),
(102,417,o),
(102,407,cs),
(102,379,o),
(124,357,o),
(152,357,cs),
(173,357,o),
(189,370,o),
(197,387,cs),
(220,439,o),
(258,465,o),
(312,465,cs),
(375,465,o),
(395,435,o),
(389,392,cs),
(387,372,o),
(383,354,o),
(379,334,cs),
(376,321,l),
(342,321,ls),
(141,321,o),
(33,257,o),
(8,139,cs),
(-13,40,o),
(53,-14,o),
(147,-14,cs),
(184,-14,o),
(220,-9,o),
(252,3,cs),
(278,13,o),
(292,28,o),
(307,51,cs),
(325,77,l)
);
},
{
closed = 1;
nodes = (
(146,66,o),
(114,92,o),
(126,148,cs),
(143,229,o),
(234,258,o),
(360,248,c),
(350,199,ls),
(332,113,o),
(273,66,o),
(204,66,cs)
);
}
);
width = 545;
}
);
note = aacute;
unicode = 225;
},
{
glyphname = abreve;
kernLeft = a;
lastChange = "2022-11-29 13:44:05 +0000";
layers = (
{
hints = (
{
horizontal = 1;
place = (-70, 24);
place = (-70, 24);
type = Stem;
},
{
horizontal = 1;
place = (192, 17);
place = (192, 17);
type = Stem;
},
{
horizontal = 1;
place = (409, 24);
place = (409, 24);
type = Stem;
},
{
horizontal = 1;
place = (511, 69);
place = (511, 69);
type = Stem;
},
{
place = (-21, 60);
place = (-21, 60);
type = Stem;
},
{
place = (105, 6);
place = (105, 6);
type = Stem;
},
{
place = (263, 6);
place = (263, 6);
type = Stem;
},
{
horizontal = 1;
place = (511, 6);
place = (511, 6);
type = Stem;
},
{
place = (308, 54);
place = (308, 54);
type = Stem;
},
{
horizontal = 1;
place = (-56, 10);
place = (-56, 10);
type = Stem;
}
);
layerId = m01;
shapes = (
{
closed = 1;
nodes = (
(395,567,o),
(437,594,o),
(461,657,cs),
(462,661,o),
(463,664,o),
(463,668,cs),
(463,684,o),
(449,698,o),
(433,698,cs),
(420,698,o),
(409,688,o),
(405,677,cs),
(392,641,o),
(373,629,o),
(348,629,cs),
(326,629,o),
(312,639,o),
(311,667,cs),
(310,685,o),
(297,698,o),
(279,698,cs),
(263,698,o),
(249,686,o),
(247,669,cs),
(240,597,o),
(271,567,o),
(335,567,cs)
);
},
{
closed = 1;
nodes = (
(323,53,ls),
(321,22,o),
(346,-5,o),
(378,-5,cs),
(406,-5,o),
(429,17,o),
(432,44,cs),
(436,80,o),
(440,106,o),
(446,135,cs),
(486,322,ls),
(491,347,o),
(496,375,o),
(499,397,cs),
(509,487,o),
(468,545,o),
(331,545,cs),
(239,545,o),
(157,506,o),
(110,434,cs),
(105,426,o),
(102,417,o),
(102,407,cs),
(102,379,o),
(124,357,o),
(152,357,cs),
(173,357,o),
(189,370,o),
(197,387,cs),
(220,439,o),
(258,465,o),
(312,465,cs),
(375,465,o),
(395,435,o),
(389,392,cs),
(387,372,o),
(383,354,o),
(379,334,cs),
(376,321,l),
(342,321,ls),
(141,321,o),
(33,257,o),
(8,139,cs),
(-13,40,o),
(53,-14,o),
(147,-14,cs),
(184,-14,o),
(220,-9,o),
(252,3,cs),
(278,13,o),
(292,28,o),
(307,51,cs),
(325,77,l)
);
},
{
closed = 1;
nodes = (
(146,66,o),
(114,92,o),
(126,148,cs),
(143,229,o),
(234,258,o),
(360,248,c),
(350,199,ls),
(332,113,o),
(273,66,o),
(204,66,cs)
);
}
);
width = 545;
}
);
note = abreve;
unicode = 259;
},
{
glyphname = acircumflex;
kernLeft = a;
lastChange = "2022-11-29 13:44:05 +0000";
layers = (
{
hints = (
{
horizontal = 1;
place = (-70, 24);
place = (-70, 24);
type = Stem;
},
{
horizontal = 1;
place = (192, 17);
place = (192, 17);
type = Stem;
},
{
horizontal = 1;
place = (409, 24);
place = (409, 24);
type = Stem;
},
{
horizontal = 1;
place = (522, 58);
place = (522, 58);
type = Stem;
},
{
place = (-21, 60);
place = (-21, 60);
type = Stem;
},
{
place = (308, 54);
place = (308, 54);
type = Stem;
},
{
horizontal = 1;
place = (587, -7);
place = (587, -7);
type = Stem;
},
{
horizontal = 1;
place = (-56, 10);
place = (-56, 10);
type = Stem;
}
);
layerId = m01;
shapes = (
{
closed = 1;
nodes = (
(310,585,cs),
(351,643,l),
(361,611,ls),
(363,605,o),
(365,599,o),
(366,594,cs),
(370,583,o),
(399,574,o),
(419,604,cs),
(424,612,o),
(427,622,o),
(427,633,cs),
(427,645,o),
(423,657,o),
(416,666,cs),
(402,685,o),
(381,698,o),
(357,698,cs),
(337,698,o),
(318,688,o),
(307,674,cs),
(264,619,ls),
(260,614,o),
(258,608,o),
(258,601,cs),
(258,585,o),
(271,572,o),
(286,572,cs),
(296,572,o),
(305,577,o)
);
},
{
closed = 1;
nodes = (
(323,53,ls),
(321,22,o),
(346,-5,o),
(378,-5,cs),
(406,-5,o),
(429,17,o),
(432,44,cs),
(436,80,o),
(440,106,o),
(446,135,cs),
(486,322,ls),
(491,347,o),
(496,375,o),
(499,397,cs),
(509,487,o),
(468,545,o),
(331,545,cs),
(239,545,o),
(157,506,o),
(110,434,cs),
(105,426,o),
(102,417,o),
(102,407,cs),
(102,379,o),
(124,357,o),
(152,357,cs),
(173,357,o),
(189,370,o),
(197,387,cs),
(220,439,o),
(258,465,o),
(312,465,cs),
(375,465,o),
(395,435,o),
(389,392,cs),
(387,372,o),
(383,354,o),
(379,334,cs),
(376,321,l),
(342,321,ls),
(141,321,o),
(33,257,o),
(8,139,cs),
(-13,40,o),
(53,-14,o),
(147,-14,cs),
(184,-14,o),
(220,-9,o),
(252,3,cs),
(278,13,o),
(292,28,o),
(307,51,cs),
(325,77,l)
);
},
{
closed = 1;
nodes = (
(146,66,o),
(114,92,o),
(126,148,cs),
(143,229,o),
(234,258,o),
(360,248,c),
(350,199,ls),
(332,113,o),
(273,66,o),
(204,66,cs)
);
}
);
width = 545;
}
);
note = acircumflex;
unicode = 226;
},
{
glyphname = adieresis;
kernLeft = a;
lastChange = "2022-11-29 13:44:05 +0000";
layers = (
{
hints = (
{
horizontal = 1;
place = (-70, 24);
place = (-70, 24);
type = Stem;
},
{
horizontal = 1;
place = (192, 17);
place = (192, 17);
type = Stem;
},
{
horizontal = 1;
place = (409, 24);
place = (409, 24);
type = Stem;
},
{
horizontal = 1;
place = (524, 49);
place = (524, 49);
type = Stem;
},
{
place = (82, 51);
place = (82, 51);
type = Stem;
},
{
place = (242, 50);
place = (242, 50);
type = Stem;
},
{
horizontal = 1;
place = (-56, 10);
place = (-56, 10);
type = Stem;
},
{
place = (-21, 60);
place = (-21, 60);
type = Stem;
},
{
place = (308, 54);
place = (308, 54);
type = Stem;
}
);
layerId = m01;
shapes = (
{
closed = 1;
nodes = (
(323,53,ls),
(321,22,o),
(346,-5,o),
(378,-5,cs),
(406,-5,o),
(429,17,o),
(432,44,cs),
(436,80,o),
(440,106,o),
(446,135,cs),
(486,322,ls),
(491,347,o),
(496,375,o),
(499,397,cs),
(509,487,o),
(468,545,o),
(331,545,cs),
(239,545,o),
(157,506,o),
(110,434,cs),
(105,426,o),
(102,417,o),
(102,407,cs),
(102,379,o),
(124,357,o),
(152,357,cs),
(173,357,o),
(189,370,o),
(197,387,cs),
(220,439,o),
(258,465,o),
(312,465,cs),
(375,465,o),
(395,435,o),
(389,392,cs),
(387,372,o),
(383,354,o),
(379,334,cs),
(376,321,l),
(342,321,ls),
(141,321,o),
(33,257,o),
(8,139,cs),
(-13,40,o),
(53,-14,o),
(147,-14,cs),
(184,-14,o),
(220,-9,o),
(252,3,cs),
(278,13,o),
(292,28,o),
(307,51,cs),
(325,77,l)
);
},
{
closed = 1;
nodes = (
(146,66,o),
(114,92,o),
(126,148,cs),
(143,229,o),
(234,258,o),
(360,248,c),
(350,199,ls),
(332,113,o),
(273,66,o),
(204,66,cs)
);
},
{
closed = 1;
nodes = (
(253,582,cs),
(259,580,o),
(266,578,o),
(273,578,cs),
(297,578,o),
(317,595,o),
(322,618,cs),
(325,630,ls),
(332,663,o),
(306,695,o),
(273,695,cs),
(264,695,o),
(256,693,o),
(249,689,cs),
(229,679,o),
(214,659,o),
(214,636,cs),
(214,612,o),
(231,591,o)
);
},
{
closed = 1;
nodes = (
(408,582,cs),
(414,580,o),
(421,578,o),
(428,578,cs),
(452,578,o),
(472,595,o),
(477,618,cs),
(480,630,ls),
(487,663,o),
(461,694,o),
(428,694,cs),
(419,694,o),
(411,693,o),
(404,689,cs),
(384,679,o),
(369,659,o),
(369,636,cs),
(369,612,o),
(386,591,o)
);
}
);
width = 545;
}
);
note = adieresis;
unicode = 228;
},
{
glyphname = agrave;
kernLeft = a;
lastChange = "2022-11-29 13:44:05 +0000";
layers = (
{
hints = (
{
horizontal = 1;
place = (-70, 24);
place = (-70, 24);
type = Stem;
},
{
horizontal = 1;
place = (192, 17);
place = (192, 17);
type = Stem;
},
{
horizontal = 1;
place = (409, 24);
place = (409, 24);
type = Stem;
},
{
horizontal = 1;
place = (522, 58);
place = (522, 58);
type = Stem;
},
{
place = (-21, 60);
place = (-21, 60);
type = Stem;
},
{
place = (308, 54);
place = (308, 54);
type = Stem;
},
{
horizontal = 1;
place = (-56, 10);
place = (-56, 10);
type = Stem;
}
);
layerId = m01;
shapes = (
{
closed = 1;
nodes = (
(280,626,ls),
(301,595,o),
(341,582,o),
(355,617,cs),
(357,624,o),
(359,632,o),
(359,640,cs),
(359,659,o),
(351,673,o),
(338,683,cs),
(318,699,o),
(291,703,o),
(275,682,cs),
(270,676,o),
(267,667,o),
(267,658,cs),
(267,650,o),
(269,642,o),
(273,636,cs)
);
},
{
closed = 1;
nodes = (
(323,53,ls),
(321,22,o),
(346,-5,o),
(378,-5,cs),
(406,-5,o),
(429,17,o),
(432,44,cs),
(436,80,o),
(440,106,o),
(446,135,cs),
(486,322,ls),
(491,347,o),
(496,375,o),
(499,397,cs),
(509,487,o),
(468,545,o),
(331,545,cs),
(239,545,o),
(157,506,o),
(110,434,cs),
(105,426,o),
(102,417,o),
(102,407,cs),
(102,379,o),
(124,357,o),
(152,357,cs),
(173,357,o),
(189,370,o),
(197,387,cs),
(220,439,o),
(258,465,o),
(312,465,cs),
(375,465,o),
(395,435,o),
(389,392,cs),
(387,372,o),
(383,354,o),
(379,334,cs),
(376,321,l),
(342,321,ls),
(141,321,o),
(33,257,o),
(8,139,cs),
(-13,40,o),
(53,-14,o),
(147,-14,cs),
(184,-14,o),
(220,-9,o),
(252,3,cs),
(278,13,o),
(292,28,o),
(307,51,cs),
(325,77,l)
);
},
{
closed = 1;
nodes = (
(146,66,o),
(114,92,o),
(126,148,cs),
(143,229,o),
(234,258,o),
(360,248,c),
(350,199,ls),
(332,113,o),
(273,66,o),
(204,66,cs)
);
}
);
width = 545;
}
);
note = agrave;
unicode = 224;
},
{
glyphname = amacron;
kernLeft = a;
lastChange = "2022-11-29 13:44:05 +0000";
layers = (
{
hints = (
{
horizontal = 1;
place = (-70, 24);
place = (-70, 24);
type = Stem;
},
{
horizontal = 1;
place = (192, 17);
place = (192, 17);
type = Stem;
},
{
horizontal = 1;
place = (409, 24);
place = (409, 24);
type = Stem;
},
{
horizontal = 1;
place = (544, 7);
place = (544, 7);
type = Stem;
},
{
place = (88, 199);
place = (88, 199);
type = Stem;
},
{
horizontal = 1;
place = (-56, 10);
place = (-56, 10);
type = Stem;
},
{
place = (-21, 60);
place = (-21, 60);
type = Stem;
},
{
place = (308, 54);
place = (308, 54);
type = Stem;
}
);
layerId = m01;
shapes = (
{
closed = 1;
nodes = (
(450,600,ls),
(467,600,o),
(482,614,o),
(482,632,cs),
(482,649,o),
(467,663,o),
(450,663,cs),
(249,663,ls),
(232,663,o),
(217,649,o),
(217,631,cs),
(217,614,o),
(232,600,o),
(249,600,cs)
);
},
{
closed = 1;
nodes = (
(323,53,ls),
(321,22,o),
(346,-5,o),
(378,-5,cs),
(406,-5,o),
(429,17,o),
(432,44,cs),
(436,80,o),
(440,106,o),
(446,135,cs),
(486,322,ls),
(491,347,o),
(496,375,o),
(499,397,cs),
(509,487,o),
(468,545,o),
(331,545,cs),
(239,545,o),
(157,506,o),
(110,434,cs),
(105,426,o),
(102,417,o),
(102,407,cs),
(102,379,o),
(124,357,o),
(152,357,cs),
(173,357,o),
(189,370,o),
(197,387,cs),
(220,439,o),
(258,465,o),
(312,465,cs),
(375,465,o),
(395,435,o),
(389,392,cs),
(387,372,o),
(383,354,o),
(379,334,cs),
(376,321,l),
(342,321,ls),
(141,321,o),
(33,257,o),
(8,139,cs),
(-13,40,o),
(53,-14,o),
(147,-14,cs),
(184,-14,o),
(220,-9,o),
(252,3,cs),
(278,13,o),
(292,28,o),
(307,51,cs),
(325,77,l)
);
},
{
closed = 1;
nodes = (
(146,66,o),
(114,92,o),
(126,148,cs),
(143,229,o),
(234,258,o),
(360,248,c),
(350,199,ls),
(332,113,o),
(273,66,o),
(204,66,cs)
);
}
);
width = 545;
}
);
note = amacron;
unicode = 257;
},
{
glyphname = aogonek;
kernLeft = a;
lastChange = "2022-11-29 13:44:05 +0000";
layers = (
{
hints = (
{
horizontal = 1;
place = (-279, 10);
place = (-279, 10);
type = Stem;
},
{
horizontal = 1;
place = (-56, 21);
target = up;
type = BottomGhost;
},
{
horizontal = 1;
place = (192, 17);
place = (192, 17);
type = Stem;
},
{
horizontal = 1;
place = (409, 24);
place = (409, 24);
type = Stem;
},
{
place = (-21, 60);
place = (-21, 60);
type = Stem;
},
{
place = (213, 46);
place = (213, 46);
type = Stem;
},
{
place = (308, 54);
place = (308, 54);
type = Stem;
},
{
horizontal = 1;
place = (-70, 24);
place = (-70, 24);
type = Stem;
}
);
layerId = m01;
shapes = (
{
closed = 1;
nodes = (
(304,-50,o),
(351,-7,o),
(397,0,c),
(413,0,ls),
(423,0,o),
(429,19,o),
(433,56,cs),
(437,85,o),
(441,109,o),
(446,135,cs),
(486,322,ls),
(491,347,o),
(496,375,o),
(499,397,cs),
(509,487,o),
(468,545,o),
(331,545,cs),
(239,545,o),
(157,506,o),
(110,434,cs),
(105,426,o),
(102,417,o),
(102,407,cs),
(102,379,o),
(124,357,o),
(152,357,cs),
(173,357,o),
(189,370,o),
(197,387,cs),
(220,439,o),
(258,465,o),
(312,465,cs),
(375,465,o),
(395,435,o),
(389,392,cs),
(387,372,o),
(383,354,o),
(379,334,cs),
(376,321,l),
(342,321,ls),
(141,321,o),
(33,257,o),
(8,139,cs),
(-13,40,o),
(53,-14,o),
(147,-14,cs),
(184,-14,o),
(220,-9,o),
(252,3,cs),
(278,13,o),
(292,28,o),
(307,51,cs),
(325,77,l),
(320,9,l),
(260,-14,o),
(198,-67,o),
(183,-138,cs),
(170,-201,o),
(205,-223,o),
(263,-223,cs),
(300,-223,o),
(334,-214,o),
(366,-199,cs),
(374,-195,o),
(379,-186,o),
(379,-177,cs),
(379,-161,o),
(364,-150,o),
(349,-154,cs),
(341,-156,o),
(333,-157,o),
(325,-157,cs),
(298,-157,o),
(284,-144,o),
(292,-107,cs)
);
},
{
closed = 1;
nodes = (
(146,66,o),
(114,92,o),
(126,148,cs),
(143,229,o),
(234,258,o),
(360,248,c),
(350,199,ls),
(332,113,o),
(273,66,o),
(204,66,cs)
);
}
);
width = 545;
}
);
note = aogonek;
unicode = 261;
},
{
glyphname = aring;
kernLeft = a;
lastChange = "2022-11-29 13:44:05 +0000";
layers = (
{
hints = (
{
horizontal = 1;
place = (-70, 24);
place = (-70, 24);
type = Stem;
},
{
horizontal = 1;
place = (192, 17);
place = (192, 17);
type = Stem;
},
{
horizontal = 1;
place = (409, 24);
place = (409, 24);
type = Stem;
},
{
horizontal = 1;
place = (510, -13);
place = (510, -13);
type = Stem;
},
{
horizontal = 1;
place = (646, -13);
place = (646, -13);
type = Stem;
},
{
place = (-21, 60);
place = (-21, 60);
type = Stem;
},
{
place = (117, 2);
place = (117, 2);
type = Stem;
},
{
place = (255, 2);
place = (255, 2);
type = Stem;
},
{
horizontal = 1;
place = (-56, 10);
place = (-56, 10);
type = Stem;
},
{
place = (308, 54);
place = (308, 54);
type = Stem;
}
);
layerId = m01;
shapes = (
{
closed = 1;
nodes = (
(392,566,o),
(441,603,o),
(452,655,cs),
(463,708,o),
(430,745,o),
(373,745,cs),
(316,745,o),
(267,708,o),
(256,655,cs),
(245,603,o),
(278,566,o),
(335,566,cs)
);
},
{
closed = 1;
nodes = (
(387,702,o),
(400,684,o),
(394,655,cs),
(388,626,o),
(367,609,o),
(344,609,cs),
(321,609,o),
(308,626,o),
(314,655,cs),
(320,684,o),
(341,702,o),
(364,702,cs)
);
},
{
closed = 1;
nodes = (
(323,53,ls),
(321,22,o),
(346,-5,o),
(378,-5,cs),
(406,-5,o),
(429,17,o),
(432,44,cs),
(436,80,o),
(440,106,o),
(446,135,cs),
(486,322,ls),
(491,347,o),
(496,375,o),
(499,397,cs),
(509,487,o),
(468,545,o),
(331,545,cs),
(239,545,o),
(157,506,o),
(110,434,cs),
(105,426,o),
(102,417,o),
(102,407,cs),
(102,379,o),
(124,357,o),
(152,357,cs),
(173,357,o),
(189,370,o),
(197,387,cs),
(220,439,o),
(258,465,o),
(312,465,cs),
(375,465,o),
(395,435,o),
(389,392,cs),
(387,372,o),
(383,354,o),
(379,334,cs),
(376,321,l),
(342,321,ls),
(141,321,o),
(33,257,o),
(8,139,cs),
(-13,40,o),
(53,-14,o),
(147,-14,cs),
(184,-14,o),
(220,-9,o),
(252,3,cs),
(278,13,o),
(292,28,o),
(307,51,cs),
(325,77,l)
);
},
{
closed = 1;
nodes = (
(146,66,o),
(114,92,o),
(126,148,cs),
(143,229,o),
(234,258,o),
(360,248,c),
(350,199,ls),
(332,113,o),
(273,66,o),
(204,66,cs)
);
}
);
width = 545;
}
);
note = aring;
unicode = 229;
},
{
glyphname = atilde;
kernLeft = a;
lastChange = "2022-11-29 13:44:05 +0000";
layers = (
{
hints = (
{
horizontal = 1;
place = (-70, 24);
place = (-70, 24);
type = Stem;
},
{
horizontal = 1;
place = (192, 17);
place = (192, 17);
type = Stem;
},
{
horizontal = 1;
place = (409, 24);
place = (409, 24);
type = Stem;
},
{
horizontal = 1;
place = (538, 30);
place = (538, 30);
type = Stem;
},
{
place = (95, -4);
place = (95, -4);
type = Stem;
},
{
place = (308, 54);
place = (308, 54);
type = Stem;
},
{
horizontal = 1;
place = (534, 31);
place = (534, 31);
type = Stem;
},
{
place = (-21, 60);
place = (-21, 60);
type = Stem;
},
{
place = (283, -3);
place = (283, -3);
type = Stem;
},
{
horizontal = 1;
place = (-56, 10);
place = (-56, 10);
type = Stem;
}
);
layerId = m01;
shapes = (
{
closed = 1;
nodes = (
(303,616,o),
(313,613,o),
(335,604,cs),
(363,594,o),
(378,590,o),
(399,590,cs),
(432,590,o),
(456,604,o),
(471,648,cs),
(476,662,o),
(467,683,o),
(447,683,cs),
(436,683,o),
(427,676,o),
(423,666,cs),
(419,657,o),
(414,654,o),
(406,654,cs),
(398,654,o),
(386,657,o),
(364,666,cs),
(338,677,o),
(322,680,o),
(300,680,cs),
(268,680,o),
(245,666,o),
(230,622,cs),
(225,608,o),
(235,588,o),
(253,588,cs),
(264,588,o),
(273,595,o),
(277,604,cs),
(281,613,o),
(287,616,o),
(294,616,cs)
);
},
{
closed = 1;
nodes = (
(323,53,ls),
(321,22,o),
(346,-5,o),
(378,-5,cs),
(406,-5,o),
(429,17,o),
(432,44,cs),
(436,80,o),
(440,106,o),
(446,135,cs),
(486,322,ls),
(491,347,o),
(496,375,o),
(499,397,cs),
(509,487,o),
(468,545,o),
(331,545,cs),
(239,545,o),
(157,506,o),
(110,434,cs),
(105,426,o),
(102,417,o),
(102,407,cs),
(102,379,o),
(124,357,o),
(152,357,cs),
(173,357,o),
(189,370,o),
(197,387,cs),
(220,439,o),
(258,465,o),
(312,465,cs),
(375,465,o),
(395,435,o),
(389,392,cs),
(387,372,o),
(383,354,o),
(379,334,cs),
(376,321,l),
(342,321,ls),
(141,321,o),
(33,257,o),
(8,139,cs),
(-13,40,o),
(53,-14,o),
(147,-14,cs),
(184,-14,o),
(220,-9,o),
(252,3,cs),
(278,13,o),
(292,28,o),
(307,51,cs),
(325,77,l)
);
},
{
closed = 1;
nodes = (
(146,66,o),
(114,92,o),
(126,148,cs),
(143,229,o),
(234,258,o),
(360,248,c),
(350,199,ls),
(332,113,o),
(273,66,o),
(204,66,cs)
);
}
);
width = 545;
}
);
note = atilde;
unicode = 227;
},
{
glyphname = ae;
kernLeft = a;
kernRight = ae;
lastChange = "2022-11-29 13:44:05 +0000";
layers = (
{
hints = (
{
horizontal = 1;
place = (-70, 24);
place = (-70, 24);
type = Stem;
},
{
horizontal = 1;
place = (179, 21);
place = (179, 21);
type = Stem;
},
{
horizontal = 1;
place = (409, 24);
place = (409, 24);
type = Stem;
},
{
place = (-21, 60);
place = (-21, 60);
type = Stem;
},
{
place = (322, 59);
place = (322, 59);
type = Stem;
},
{
place = (705, 57);
place = (705, 57);
type = Stem;
}
);
layerId = m01;
shapes = (
{
closed = 1;
nodes = (
(898,448,o),
(837,545,o),
(699,545,cs),
(616,545,o),
(544,511,o),
(490,450,c),
(477,511,o),
(429,545,o),
(331,545,cs),
(234,545,o),
(153,506,o),
(108,434,cs),
(103,427,o),
(100,417,o),
(100,407,cs),
(100,379,o),
(123,357,o),
(151,357,cs),
(172,357,o),
(190,370,o),
(197,388,cs),
(218,439,o),
(258,465,o),
(315,465,cs),
(390,465,o),
(410,415,o),
(393,334,cs),
(388,312,l),
(348,312,ls),
(149,312,o),
(34,261,o),
(8,140,cs),
(-13,40,o),
(58,-14,o),
(162,-14,cs),
(210,-14,o),
(258,-5,o),
(306,22,cs),
(329,35,o),
(343,49,o),
(359,69,cs),
(387,103,l),
(411,19,o),
(478,-14,o),
(567,-14,cs),
(658,-14,o),
(746,23,o),
(804,101,cs),
(810,109,o),
(814,119,o),
(814,130,cs),
(814,156,o),
(792,178,o),
(766,178,cs),
(747,178,o),
(731,167,o),
(723,152,cs),
(694,96,o),
(644,66,o),
(587,66,cs),
(516,66,o),
(468,114,o),
(486,235,c),
(814,235,ls),
(828,235,o),
(841,243,o),
(852,251,cs),
(873,269,o),
(880,289,o),
(883,316,cs)
);
},
{
closed = 1;
nodes = (
(503,312,l),
(536,413,o),
(600,465,o),
(676,465,cs),
(753,465,o),
(783,410,o),
(771,312,c)
);
},
{
closed = 1;
nodes = (
(366,210,ls),
(347,121,o),
(280,66,o),
(207,66,cs),
(146,66,o),
(114,92,o),
(126,149,cs),
(142,225,o),
(228,241,o),
(372,235,c)
);
}
);
width = 910;
}
);
note = ae;
unicode = 230;
},
{
glyphname = b;
kernLeft = b;
kernRight = b;
lastChange = "2022-11-29 13:44:05 +0000";
layers = (
{
hints = (
{
horizontal = 1;
place = (-70, 24);
place = (-70, 24);
type = Stem;
},
{
horizontal = 1;
place = (409, 24);
place = (409, 24);
type = Stem;
},
{
horizontal = 1;
place = (679, -20);
target = down;
type = TopGhost;
},
{
place = (13, 54);
place = (13, 54);
type = Stem;
},
{
place = (425, 60);
place = (425, 60);
type = Stem;
},
{
horizontal = 1;
place = (-56, 21);
target = up;
type = BottomGhost;
}
);
layerId = m01;
shapes = (
{
closed = 1;
nodes = (
(376,545,o),
(330,536,o),
(296,520,cs),
(276,510,o),
(263,498,o),
(246,479,cs),
(218,448,l),
(266,676,ls),
(273,710,o),
(248,741,o),
(214,741,cs),
(188,741,o),
(166,723,o),
(161,698,cs),
(26,59,ls),
(19,25,o),
(44,-5,o),
(78,-5,cs),
(104,-5,o),
(126,12,o),
(131,37,cs),
(138,72,l),
(150,46,ls),
(159,26,o),
(169,10,o),
(195,0,cs),
(220,-9,o),
(252,-14,o),
(281,-14,cs),
(418,-14,o),
(558,80,o),
(599,275,cs),
(632,430,o),
(570,545,o),
(418,545,cs)
);
},
{
closed = 1;
nodes = (
(215,66,o),
(147,114,o),
(175,244,cs),
(180,271,ls),
(210,413,o),
(293,465,o),
(375,465,cs),
(471,465,o),
(505,380,o),
(481,265,cs),
(453,133,o),
(373,66,o),
(285,66,cs)
);
}
);
width = 626;
}
);
note = b;
unicode = 98;
},
{
glyphname = c;
kernLeft = c;
lastChange = "2022-11-29 13:34:19 +0000";
layers = (
{
hints = (
{
horizontal = 1;
place = (-70, 24);
place = (-70, 24);
type = Stem;
},
{
horizontal = 1;
place = (409, 24);
place = (409, 24);
type = Stem;
},
{
place = (-27, 60);
place = (-27, 60);
type = Stem;
}
);
layerId = m01;
shapes = (
{
closed = 1;
nodes = (
(207,545,o),
(67,444,o),
(29,263,cs),
(-12,74,o),
(75,-14,o),
(214,-14,cs),
(312,-14,o),
(397,24,o),
(455,105,cs),
(461,113,o),
(464,122,o),
(464,133,cs),
(464,160,o),
(442,182,o),
(415,182,cs),
(396,182,o),
(380,172,o),
(372,156,cs),
(340,96,o),
(293,66,o),
(237,66,cs),
(163,66,o),
(116,127,o),
(146,271,cs),
(175,404,o),
(249,465,o),
(326,465,cs),
(378,465,o),
(411,441,o),
(421,388,cs),
(426,361,o),
(449,341,o),
(477,341,cs),
(512,341,o),
(539,374,o),
(533,408,cs),
(518,492,o),
(454,545,o),
(346,545,cs)
);
}
);
width = 544;
}
);
note = c;
unicode = 99;
},
{
glyphname = cacute;
kernLeft = c;
lastChange = "2022-11-29 13:34:19 +0000";
layers = (
{
hints = (
{
horizontal = 1;
place = (-70, 24);
place = (-70, 24);
type = Stem;
},
{
horizontal = 1;
place = (409, 24);
place = (409, 24);
type = Stem;
},
{
horizontal = 1;
place = (522, 58);
place = (522, 58);
type = Stem;
},
{
place = (-27, 60);
place = (-27, 60);
type = Stem;
}
);
layerId = m01;
shapes = (
{
closed = 1;
nodes = (
(370,579,cs),
(438,640,ls),
(444,646,o),
(449,655,o),
(449,665,cs),
(449,683,o),
(434,697,o),
(416,697,cs),
(406,697,o),
(397,693,o),
(391,685,cs),
(333,615,ls),
(330,611,o),
(327,605,o),
(327,598,cs),
(327,584,o),
(339,572,o),
(353,572,cs),
(360,572,o),
(366,575,o)
);
},
{
closed = 1;
nodes = (
(207,545,o),
(67,444,o),
(29,263,cs),
(-12,74,o),
(75,-14,o),
(214,-14,cs),
(312,-14,o),
(397,24,o),
(455,105,cs),
(461,113,o),
(464,122,o),
(464,133,cs),
(464,160,o),
(442,182,o),
(415,182,cs),
(396,182,o),
(380,172,o),
(372,156,cs),
(340,96,o),
(293,66,o),
(237,66,cs),
(163,66,o),
(116,127,o),
(146,271,cs),
(175,404,o),
(249,465,o),
(326,465,cs),
(378,465,o),
(411,441,o),
(421,388,cs),
(426,361,o),
(449,341,o),
(477,341,cs),
(512,341,o),
(539,374,o),
(533,408,cs),
(518,492,o),
(454,545,o),
(346,545,cs)
);
}
);
width = 544;
}
);
note = cacute;
unicode = 263;
},
{
glyphname = ccaron;
kernLeft = c;
lastChange = "2022-11-29 13:44:05 +0000";
layers = (
{
hints = (
{
horizontal = 1;
place = (-70, 24);
place = (-70, 24);
type = Stem;
},
{
horizontal = 1;
place = (409, 24);
place = (409, 24);
type = Stem;
},
{
horizontal = 1;
place = (522, 58);
place = (522, 58);
type = Stem;
},
{
place = (-27, 60);
place = (-27, 60);
type = Stem;
}
);
layerId = m01;
shapes = (
{
closed = 1;
nodes = (
(336,578,cs),
(339,578,ls),
(369,578,o),
(391,588,o),
(410,612,cs),
(441,651,ls),
(445,656,o),
(447,662,o),
(447,669,cs),
(447,685,o),
(434,698,o),
(419,698,cs),
(409,698,o),
(400,694,o),
(395,686,cs),
(353,626,l),
(344,659,ls),
(338,679,o),
(301,694,o),
(284,659,cs),
(281,652,o),
(279,644,o),
(279,635,cs),
(279,604,o),
(305,578,o)
);
},
{
closed = 1;
nodes = (
(163,66,o),
(116,127,o),
(146,271,cs),
(175,404,o),
(249,465,o),
(326,465,cs),
(378,465,o),
(411,441,o),
(421,388,cs),
(426,361,o),
(449,341,o),
(477,341,cs),
(512,341,o),
(539,374,o),
(533,408,cs),
(518,492,o),
(454,545,o),
(346,545,cs),
(207,545,o),
(67,444,o),
(29,263,cs),
(-12,74,o),
(75,-14,o),
(214,-14,cs),
(312,-14,o),
(397,24,o),
(455,105,cs),
(461,113,o),
(464,122,o),
(464,133,cs),
(464,160,o),
(442,182,o),
(415,182,cs),
(396,182,o),
(380,172,o),
(372,156,cs),
(340,96,o),
(293,66,o),
(237,66,cs)
);
}
);
width = 544;
}
);
note = ccaron;
unicode = 269;
},
{
glyphname = ccedilla;
kernLeft = c;
lastChange = "2022-11-29 13:44:05 +0000";
layers = (
{
hints = (
{
horizontal = 1;
place = (-266, -7);
place = (-266, -7);
type = Stem;
},
{
horizontal = 1;
place = (-137, 91);
place = (-137, 91);
type = Stem;
},
{
horizontal = 1;
place = (409, 24);
place = (409, 24);
type = Stem;
},
{
place = (-27, 60);
place = (-27, 60);
type = Stem;
},
{
place = (237, 14);
place = (237, 14);
type = Stem;
},
{
horizontal = 1;
place = (-67, 21);
target = up;
type = BottomGhost;
}
);
layerId = m01;
shapes = (
{
closed = 1;
nodes = (
(163,66,o),
(116,127,o),
(146,271,cs),
(175,404,o),
(249,465,o),
(326,465,cs),
(378,465,o),
(411,441,o),
(421,388,cs),
(426,361,o),
(449,341,o),
(477,341,cs),
(512,341,o),
(539,374,o),
(533,408,cs),
(518,492,o),
(454,545,o),
(346,545,cs),
(207,545,o),
(67,444,o),
(29,263,cs),
(-8,92,o),
(59,4,o),
(174,-11,c),
(149,-46,ls),
(133,-68,o),
(150,-71,o),
(190,-85,cs),
(209,-92,o),
(214,-104,o),
(211,-122,cs),
(206,-146,o),
(182,-161,o),
(140,-161,cs),
(129,-161,o),
(119,-160,o),
(108,-158,cs),
(93,-155,o),
(77,-167,o),
(77,-183,cs),
(77,-195,o),
(86,-206,o),
(98,-208,cs),
(108,-209,o),
(118,-210,o),
(128,-210,cs),
(206,-210,o),
(268,-181,o),
(281,-122,cs),
(291,-76,o),
(267,-48,o),
(214,-41,c),
(234,-13,l),
(323,-8,o),
(401,30,o),
(455,105,cs),
(461,113,o),
(464,122,o),
(464,133,cs),
(464,160,o),
(442,182,o),
(415,182,cs),
(396,182,o),
(380,172,o),
(372,156,cs),
(340,96,o),
(293,66,o),
(237,66,cs)
);
}
);
width = 544;
}
);
note = ccedilla;
unicode = 231;
},
{
glyphname = cdotaccent;
kernLeft = c;
lastChange = "2022-11-29 13:34:19 +0000";
layers = (
{
hints = (
{
horizontal = 1;
place = (-70, 24);
place = (-70, 24);
type = Stem;
},
{
horizontal = 1;
place = (409, 24);
place = (409, 24);
type = Stem;
},
{
horizontal = 1;
place = (533, 71);
place = (533, 71);
type = Stem;
},
{
place = (-27, 60);
place = (-27, 60);
type = Stem;
},
{
place = (155, 73);
place = (155, 73);
type = Stem;
}
);
layerId = m01;
shapes = (
{
closed = 1;
nodes = (
(334,716,o),
(301,689,o),
(293,653,cs),
(286,616,o),
(307,589,o),
(344,589,cs),
(381,589,o),
(415,616,o),
(422,653,cs),
(430,689,o),
(408,716,o),
(371,716,cs)
);
},
{
closed = 1;
nodes = (
(207,545,o),
(67,444,o),
(29,263,cs),
(-12,74,o),
(75,-14,o),
(214,-14,cs),
(312,-14,o),
(397,24,o),
(455,105,cs),
(461,113,o),
(464,122,o),
(464,133,cs),
(464,160,o),
(442,182,o),
(415,182,cs),
(396,182,o),
(380,172,o),
(372,156,cs),
(340,96,o),
(293,66,o),
(237,66,cs),
(163,66,o),
(116,127,o),
(146,271,cs),
(175,404,o),
(249,465,o),
(326,465,cs),
(378,465,o),
(411,441,o),
(421,388,cs),
(426,361,o),
(449,341,o),
(477,341,cs),
(512,341,o),
(539,374,o),
(533,408,cs),
(518,492,o),
(454,545,o),
(346,545,cs)
);
}
);
width = 544;
}
);
note = cdotaccent;
unicode = 267;
},
{
glyphname = d;
kernLeft = c;
lastChange = "2022-11-29 13:44:05 +0000";
layers = (
{
hints = (
{
horizontal = 1;
place = (-70, 24);
place = (-70, 24);
type = Stem;
},
{
horizontal = 1;
place = (409, 24);
place = (409, 24);
type = Stem;
},
{
horizontal = 1;
place = (679, -20);
target = down;
type = TopGhost;
},
{
place = (-27, 60);
place = (-27, 60);
type = Stem;
},
{
place = (391, 54);
place = (391, 54);
type = Stem;
},
{
horizontal = 1;
place = (-56, 21);
target = up;
type = BottomGhost;
}
);
layerId = m01;
shapes = (
{
closed = 1;
nodes = (
(644,675,ls),
(651,709,o),
(626,741,o),
(592,741,cs),
(566,741,o),
(544,723,o),
(539,698,cs),
(488,459,l),
(477,486,ls),
(469,506,o),
(458,521,o),
(432,531,cs),
(407,540,o),
(375,545,o),
(346,545,cs),
(209,545,o),
(69,451,o),
(27,257,cs),
(-6,101,o),
(57,-14,o),
(209,-14,cs),
(249,-14,o),
(291,-5,o),
(325,9,cs),
(349,20,o),
(363,33,o),
(380,52,cs),
(409,84,l),
(404,60,ls),
(397,26,o),
(422,-6,o),
(456,-6,cs),
(482,-6,o),
(504,12,o),
(509,37,cs)
);
},
{
closed = 1;
nodes = (
(156,66,o),
(121,151,o),
(145,266,cs),
(173,398,o),
(254,465,o),
(341,465,cs),
(412,465,o),
(479,417,o),
(452,288,cs),
(446,260,ls),
(416,118,o),
(334,66,o),
(251,66,cs)
);
}
);
width = 629;
}
);
note = d;
unicode = 100;
},
{
glyphname = eth;
kernLeft = c;
lastChange = "2022-11-29 13:44:05 +0000";
layers = (
{
hints = (
{
horizontal = 1;
place = (-70, 27);
place = (-70, 27);
type = Stem;
},
{
horizontal = 1;
place = (407, 26);
place = (407, 26);
type = Stem;
},
{
horizontal = 1;
place = (689, -20);
target = down;
type = TopGhost;
},
{
place = (-27, 61);
place = (-27, 61);
type = Stem;
},
{
place = (386, 60);
place = (386, 60);
type = Stem;
}
);
layerId = m01;
shapes = (
{
closed = 1;
nodes = (
(577,647,ls),
(588,650,o),
(597,661,o),
(597,674,cs),
(597,693,o),
(578,707,o),
(560,701,cs),
(510,685,l),
(492,703,o),
(470,719,o),
(444,735,cs),
(436,740,o),
(428,741,o),
(419,741,cs),
(393,741,o),
(371,720,o),
(371,694,cs),
(371,677,o),
(380,663,o),
(392,654,cs),
(398,650,l),
(305,620,ls),
(294,616,o),
(286,606,o),
(286,593,cs),
(286,574,o),
(304,561,o),
(322,567,cs),
(442,604,l),
(470,565,o),
(479,516,o),
(473,457,c),
(457,487,ls),
(445,509,o),
(432,524,o),
(407,534,cs),
(386,542,o),
(364,545,o),
(336,545,cs),
(204,545,o),
(66,440,o),
(28,260,cs),
(-6,102,o),
(56,-14,o),
(231,-14,cs),
(368,-14,o),
(517,72,o),
(567,307,cs),
(598,453,o),
(595,560,o),
(548,638,c)
);
},
{
closed = 1;
nodes = (
(441,260,ls),
(414,132,o),
(337,69,o),
(252,69,cs),
(155,69,o),
(120,142,o),
(146,267,cs),
(171,384,o),
(246,463,o),
(336,463,cs),
(409,463,o),
(473,411,o),
(447,289,cs)
);
}
);
width = 604;
}
);
note = eth;
unicode = 240;
},
{
glyphname = dcaron;
kernLeft = c;
lastChange = "2022-11-29 13:44:05 +0000";
layers = (
{
hints = (
{
horizontal = 1;
place = (-70, 24);
place = (-70, 24);
type = Stem;
},
{
horizontal = 1;
place = (409, 24);
place = (409, 24);
type = Stem;
},
{
horizontal = 1;
place = (527, 97);
place = (527, 97);
type = Stem;
},
{
place = (-27, 60);
place = (-27, 60);
type = Stem;
},
{
place = (391, 54);
place = (391, 54);
type = Stem;
},
{
horizontal = 1;
place = (527, 96);
place = (527, 96);
type = Stem;
},
{
horizontal = 1;
place = (-56, 21);
target = up;
type = BottomGhost;
}
);
layerId = m01;
shapes = (
{
closed = 1;
nodes = (
(791,751,o),
(781,754,o),
(771,754,cs),
(750,754,o),
(742,736,o),
(732,720,cs),
(674,624,ls),
(671,620,o),
(670,614,o),
(670,608,cs),
(670,591,o),
(684,577,o),
(700,577,cs),
(711,577,o),
(720,583,o),
(725,590,cs),
(789,680,ls),
(810,710,o),
(817,735,o),
(800,746,cs)
);
},
{
closed = 1;
nodes = (
(539,698,cs),
(488,459,l),
(477,486,ls),
(469,506,o),
(458,521,o),
(432,531,cs),
(407,540,o),
(375,545,o),
(346,545,cs),
(209,545,o),
(69,451,o),
(27,257,cs),
(-6,101,o),
(57,-14,o),
(209,-14,cs),
(249,-14,o),
(291,-5,o),
(325,9,cs),
(349,20,o),
(363,33,o),
(380,52,cs),
(409,84,l),
(404,59,ls),
(397,25,o),
(422,-5,o),
(456,-5,cs),
(482,-5,o),
(504,12,o),
(509,37,cs),
(644,675,ls),
(651,709,o),
(626,740,o),
(592,740,cs),
(566,740,o),
(544,723,o)
);
},
{
closed = 1;
nodes = (
(156,66,o),
(121,151,o),
(145,266,cs),
(173,398,o),
(254,465,o),
(341,465,cs),
(412,465,o),
(479,417,o),
(452,288,cs),
(446,260,ls),
(416,118,o),
(334,66,o),
(251,66,cs)
);
}
);
width = 629;
}
);
note = dcaron;
unicode = 271;
},
{
glyphname = dcroat;
kernLeft = c;
lastChange = "2022-11-29 13:44:05 +0000";
layers = (
{
hints = (
{
horizontal = 1;
place = (-70, 24);
place = (-70, 24);
type = Stem;
},
{
horizontal = 1;
place = (409, 24);
place = (409, 24);
type = Stem;
},
{
horizontal = 1;
place = (534, 89);
place = (534, 89);
type = Stem;
},
{
place = (-27, 60);
place = (-27, 60);
type = Stem;
},
{
place = (391, 54);
place = (391, 54);
type = Stem;
},
{
horizontal = 1;
place = (534, 10);
place = (534, 10);
type = Stem;
},
{
horizontal = 1;
place = (-56, 21);
target = up;
type = BottomGhost;
}
);
layerId = m01;
shapes = (
{
closed = 1;
nodes = (
(648,590,ls),
(666,590,o),
(681,605,o),
(681,623,cs),
(681,641,o),
(666,656,o),
(648,656,cs),
(640,656,l),
(644,675,ls),
(651,709,o),
(626,741,o),
(592,741,cs),
(566,741,o),
(544,723,o),
(539,698,cs),
(530,656,l),
(434,656,ls),
(416,656,o),
(401,641,o),
(401,623,cs),
(401,605,o),
(416,590,o),
(434,590,cs),
(516,590,l),
(488,459,l),
(477,486,ls),
(469,506,o),
(458,521,o),
(432,531,cs),
(407,540,o),
(375,545,o),
(346,545,cs),
(209,545,o),
(69,451,o),
(27,257,cs),
(-6,101,o),
(57,-14,o),
(209,-14,cs),
(249,-14,o),
(291,-5,o),
(325,9,cs),
(349,20,o),
(363,33,o),
(380,52,cs),
(409,84,l),
(404,59,ls),
(397,25,o),
(422,-5,o),
(456,-5,cs),
(482,-5,o),
(504,12,o),
(509,37,cs),
(626,590,l)
);
},
{
closed = 1;
nodes = (
(156,66,o),
(121,151,o),
(145,266,cs),
(173,398,o),
(254,465,o),
(341,465,cs),
(412,465,o),
(479,417,o),
(452,288,cs),
(446,260,ls),
(416,118,o),
(334,66,o),
(251,66,cs)
);
}
);
width = 632;
}
);
note = dcroat;
unicode = 273;
},
{
glyphname = e;
kernLeft = c;
kernRight = ae;
lastChange = "2022-11-29 13:44:05 +0000";
layers = (
{
hints = (
{
horizontal = 1;
place = (-70, 24);
place = (-70, 24);
type = Stem;
},
{
horizontal = 1;
place = (179, 21);
place = (179, 21);
type = Stem;
},
{
horizontal = 1;
place = (409, 24);
place = (409, 24);
type = Stem;
},
{
place = (-27, 59);
place = (-27, 59);
type = Stem;
},
{
place = (357, 57);
place = (357, 57);
type = Stem;
}
);
layerId = m01;
shapes = (
{
closed = 1;
nodes = (
(551,448,o),
(490,545,o),
(349,545,cs),
(196,545,o),
(64,432,o),
(29,264,cs),
(-11,76,o),
(77,-14,o),
(219,-14,cs),
(310,-14,o),
(399,23,o),
(457,102,cs),
(463,110,o),
(466,119,o),
(466,130,cs),
(466,157,o),
(445,178,o),
(418,178,cs),
(400,178,o),
(384,168,o),
(376,152,cs),
(347,96,o),
(296,66,o),
(240,66,cs),
(168,66,o),
(119,108,o),
(137,235,c),
(467,235,ls),
(481,235,o),
(494,242,o),
(504,251,cs),
(525,269,o),
(532,289,o),
(535,316,cs)
);
},
{
closed = 1;
nodes = (
(405,465,o),
(436,410,o),
(423,312,c),
(154,312,l),
(188,414,o),
(253,465,o),
(328,465,cs)
);
}
);
width = 562;
}
);
note = e;
unicode = 101;
},
{
glyphname = eacute;
kernLeft = c;
kernRight = ae;
lastChange = "2022-11-29 13:44:05 +0000";
layers = (
{
hints = (
{
horizontal = 1;
place = (-70, 24);
place = (-70, 24);
type = Stem;
},
{
horizontal = 1;
place = (179, 21);
place = (179, 21);
type = Stem;
},
{
horizontal = 1;
place = (409, 24);
place = (409, 24);
type = Stem;
},
{
horizontal = 1;
place = (522, 58);
place = (522, 58);
type = Stem;
},
{
place = (-27, 59);
place = (-27, 59);
type = Stem;
},
{
place = (357, 57);
place = (357, 57);
type = Stem;
}
);
layerId = m01;
shapes = (
{
closed = 1;
nodes = (
(378,579,cs),
(446,640,ls),
(452,646,o),
(457,655,o),
(457,665,cs),
(457,683,o),
(442,697,o),
(424,697,cs),
(414,697,o),
(405,693,o),
(399,685,cs),
(341,615,ls),
(338,611,o),
(335,605,o),
(335,598,cs),
(335,584,o),
(347,572,o),
(361,572,cs),
(368,572,o),
(374,575,o)
);
},
{
closed = 1;
nodes = (
(551,448,o),
(490,545,o),
(349,545,cs),
(196,545,o),
(64,432,o),
(29,264,cs),
(-11,76,o),
(77,-14,o),
(219,-14,cs),
(310,-14,o),
(399,23,o),
(457,102,cs),
(463,110,o),
(466,119,o),
(466,130,cs),
(466,157,o),
(445,178,o),
(418,178,cs),
(400,178,o),
(384,168,o),
(376,152,cs),
(347,96,o),
(296,66,o),
(240,66,cs),
(168,66,o),
(119,108,o),
(137,235,c),
(467,235,ls),
(481,235,o),
(494,242,o),
(504,251,cs),
(525,269,o),
(532,289,o),
(535,316,cs)
);
},
{
closed = 1;
nodes = (
(405,465,o),
(436,410,o),
(423,312,c),
(154,312,l),
(188,414,o),
(253,465,o),
(328,465,cs)
);
}
);
width = 562;
}
);
note = eacute;
unicode = 233;
},
{
glyphname = ecaron;
kernLeft = c;
kernRight = ae;
lastChange = "2022-11-29 13:44:05 +0000";
layers = (
{
hints = (
{
horizontal = 1;
place = (-70, 24);
place = (-70, 24);
type = Stem;
},
{
horizontal = 1;
place = (179, 21);
place = (179, 21);
type = Stem;
},
{
horizontal = 1;
place = (409, 24);
place = (409, 24);
type = Stem;
},
{
horizontal = 1;
place = (522, 58);
place = (522, 58);
type = Stem;
},
{
place = (-27, 59);
place = (-27, 59);
type = Stem;
},
{
place = (357, 57);
place = (357, 57);
type = Stem;
}
);
layerId = m01;
shapes = (
{
closed = 1;
nodes = (
(344,578,cs),
(347,578,ls),
(377,578,o),
(399,588,o),
(418,612,cs),
(449,651,ls),
(453,656,o),
(455,662,o),
(455,669,cs),
(455,685,o),
(442,698,o),
(427,698,cs),
(417,698,o),
(408,694,o),
(403,686,cs),
(361,626,l),
(352,659,ls),
(346,679,o),
(309,694,o),
(292,659,cs),
(289,652,o),
(287,644,o),
(287,635,cs),
(287,604,o),
(313,578,o)
);
},
{
closed = 1;
nodes = (
(551,448,o),
(490,545,o),
(349,545,cs),
(196,545,o),
(64,432,o),
(29,264,cs),
(-11,76,o),
(77,-14,o),
(219,-14,cs),
(310,-14,o),
(399,23,o),
(457,102,cs),
(463,110,o),
(466,119,o),
(466,130,cs),
(466,157,o),
(445,178,o),
(418,178,cs),
(400,178,o),
(384,168,o),
(376,152,cs),
(347,96,o),
(296,66,o),
(240,66,cs),
(168,66,o),
(119,108,o),
(137,235,c),
(467,235,ls),
(481,235,o),
(494,242,o),
(504,251,cs),
(525,269,o),
(532,289,o),
(535,316,cs)
);
},
{
closed = 1;
nodes = (
(405,465,o),
(436,410,o),
(423,312,c),
(154,312,l),
(188,414,o),
(253,465,o),
(328,465,cs)
);
}
);
width = 562;
}
);
note = ecaron;
unicode = 283;
},
{
glyphname = ecircumflex;
kernLeft = c;
kernRight = ae;
lastChange = "2022-11-29 13:44:05 +0000";
layers = (
{
hints = (
{
horizontal = 1;
place = (-70, 24);
place = (-70, 24);
type = Stem;
},
{
horizontal = 1;
place = (179, 21);
place = (179, 21);
type = Stem;
},
{
horizontal = 1;
place = (409, 24);
place = (409, 24);
type = Stem;
},
{
horizontal = 1;
place = (522, 58);
place = (522, 58);
type = Stem;
},
{
place = (-27, 59);
place = (-27, 59);
type = Stem;
},
{
place = (357, 57);
place = (357, 57);
type = Stem;
},
{
horizontal = 1;
place = (587, -7);
place = (587, -7);
type = Stem;
}
);
layerId = m01;
shapes = (
{
closed = 1;
nodes = (
(322,585,cs),
(363,643,l),
(373,611,ls),
(375,605,o),
(377,599,o),
(378,594,cs),
(382,583,o),
(411,574,o),
(431,604,cs),
(436,612,o),
(439,622,o),
(439,633,cs),
(439,645,o),
(435,657,o),
(428,666,cs),
(414,685,o),
(393,698,o),
(369,698,cs),
(349,698,o),
(330,688,o),
(319,674,cs),
(276,619,ls),
(272,614,o),
(270,608,o),
(270,601,cs),
(270,585,o),
(283,572,o),
(298,572,cs),
(308,572,o),
(317,577,o)
);
},
{
closed = 1;
nodes = (
(551,448,o),
(490,545,o),
(349,545,cs),
(196,545,o),
(64,432,o),
(29,264,cs),
(-11,76,o),
(77,-14,o),
(219,-14,cs),
(310,-14,o),
(399,23,o),
(457,102,cs),
(463,110,o),
(466,119,o),
(466,130,cs),
(466,157,o),
(445,178,o),
(418,178,cs),
(400,178,o),
(384,168,o),
(376,152,cs),
(347,96,o),
(296,66,o),
(240,66,cs),
(168,66,o),
(119,108,o),
(137,235,c),
(467,235,ls),
(481,235,o),
(494,242,o),
(504,251,cs),
(525,269,o),
(532,289,o),
(535,316,cs)
);
},
{
closed = 1;
nodes = (
(405,465,o),
(436,410,o),
(423,312,c),
(154,312,l),
(188,414,o),
(253,465,o),
(328,465,cs)
);
}
);
width = 562;
}
);
note = ecircumflex;
unicode = 234;
},
{
glyphname = edieresis;
kernLeft = c;
kernRight = ae;
lastChange = "2022-11-29 13:44:05 +0000";
layers = (
{
hints = (
{
horizontal = 1;
place = (-70, 24);
place = (-70, 24);
type = Stem;
},
{
horizontal = 1;
place = (179, 21);
place = (179, 21);
type = Stem;
},
{
horizontal = 1;
place = (409, 24);
place = (409, 24);
type = Stem;
},
{
horizontal = 1;
place = (524, 49);
place = (524, 49);
type = Stem;
},
{
place = (94, 51);
place = (94, 51);
type = Stem;
},
{
place = (254, 50);
place = (254, 50);
type = Stem;
},
{
place = (-27, 59);
place = (-27, 59);
type = Stem;
},
{
place = (357, 57);
place = (357, 57);
type = Stem;
}
);
layerId = m01;
shapes = (
{
closed = 1;
nodes = (
(551,448,o),
(490,545,o),
(349,545,cs),
(196,545,o),
(64,432,o),
(29,264,cs),
(-11,76,o),
(77,-14,o),
(219,-14,cs),
(310,-14,o),
(399,23,o),
(457,102,cs),
(463,110,o),
(466,119,o),
(466,130,cs),
(466,157,o),
(445,178,o),
(418,178,cs),
(400,178,o),
(384,168,o),
(376,152,cs),
(347,96,o),
(296,66,o),
(240,66,cs),
(168,66,o),
(119,108,o),
(137,235,c),
(467,235,ls),
(481,235,o),
(494,242,o),
(504,251,cs),
(525,269,o),
(532,289,o),
(535,316,cs)
);
},
{
closed = 1;
nodes = (
(405,465,o),
(436,410,o),
(423,312,c),
(154,312,l),
(188,414,o),
(253,465,o),
(328,465,cs)
);
},
{
closed = 1;
nodes = (
(268,579,cs),
(274,577,o),
(281,575,o),
(288,575,cs),
(312,575,o),
(332,592,o),
(337,615,cs),
(340,627,ls),
(347,660,o),
(321,692,o),
(288,692,cs),
(279,692,o),
(271,690,o),
(264,686,cs),
(244,676,o),
(229,656,o),
(229,633,cs),
(229,609,o),
(246,588,o)
);
},
{
closed = 1;
nodes = (
(423,579,cs),
(429,577,o),
(436,575,o),
(443,575,cs),
(467,575,o),
(487,592,o),
(492,615,cs),
(495,627,ls),
(502,660,o),
(476,691,o),
(443,691,cs),
(434,691,o),
(426,690,o),
(419,686,cs),
(399,676,o),
(384,656,o),
(384,633,cs),
(384,609,o),
(401,588,o)
);
}
);
width = 562;
}
);
note = edieresis;
unicode = 235;
},
{
glyphname = edotaccent;
kernLeft = c;
kernRight = ae;
lastChange = "2022-11-29 13:44:05 +0000";
layers = (
{
hints = (
{
horizontal = 1;
place = (-70, 24);
place = (-70, 24);
type = Stem;
},
{
horizontal = 1;
place = (179, 21);
place = (179, 21);
type = Stem;
},
{
horizontal = 1;
place = (409, 24);
place = (409, 24);
type = Stem;
},
{
horizontal = 1;
place = (533, 71);
place = (533, 71);
type = Stem;
},
{
place = (-27, 59);
place = (-27, 59);
type = Stem;
},
{
place = (163, 73);
place = (163, 73);
type = Stem;
},
{
place = (357, 57);
place = (357, 57);
type = Stem;
}
);
layerId = m01;
shapes = (
{
closed = 1;
nodes = (
(389,589,o),
(423,616,o),
(430,653,cs),
(438,689,o),
(416,716,o),
(379,716,cs),
(342,716,o),
(309,689,o),
(301,653,cs),
(294,616,o),
(315,589,o),
(352,589,cs)
);
},
{
closed = 1;
nodes = (
(551,448,o),
(490,545,o),
(349,545,cs),
(196,545,o),
(64,432,o),
(29,264,cs),
(-11,76,o),
(77,-14,o),
(219,-14,cs),
(310,-14,o),
(399,23,o),
(457,102,cs),
(463,110,o),
(466,119,o),
(466,130,cs),
(466,157,o),
(445,178,o),
(418,178,cs),
(400,178,o),
(384,168,o),
(376,152,cs),
(347,96,o),
(296,66,o),
(240,66,cs),
(168,66,o),
(119,108,o),
(137,235,c),
(467,235,ls),
(481,235,o),
(494,242,o),
(504,251,cs),
(525,269,o),
(532,289,o),
(535,316,cs)
);
},
{
closed = 1;
nodes = (
(405,465,o),
(436,410,o),
(423,312,c),
(154,312,l),
(188,414,o),
(253,465,o),
(328,465,cs)
);
}
);
width = 562;
}
);
note = edotaccent;
unicode = 279;
},
{
glyphname = egrave;
kernLeft = c;
kernRight = ae;
lastChange = "2022-11-29 13:44:05 +0000";
layers = (
{
hints = (
{
horizontal = 1;
place = (-70, 24);
place = (-70, 24);
type = Stem;
},
{
horizontal = 1;
place = (179, 21);
place = (179, 21);
type = Stem;
},
{
horizontal = 1;
place = (409, 24);
place = (409, 24);
type = Stem;
},
{
horizontal = 1;
place = (522, 58);
place = (522, 58);
type = Stem;
},
{
place = (-27, 59);
place = (-27, 59);
type = Stem;
},
{
place = (357, 57);
place = (357, 57);
type = Stem;
}
);
layerId = m01;
shapes = (
{
closed = 1;
nodes = (
(292,626,ls),
(313,595,o),
(353,582,o),
(367,617,cs),
(369,624,o),
(371,632,o),
(371,640,cs),
(371,659,o),
(363,673,o),
(350,683,cs),
(330,699,o),
(303,703,o),
(287,682,cs),
(282,676,o),
(279,667,o),
(279,658,cs),
(279,650,o),
(281,642,o),
(285,636,cs)
);
},
{
closed = 1;
nodes = (
(551,448,o),
(490,545,o),
(349,545,cs),
(196,545,o),
(64,432,o),
(29,264,cs),
(-11,76,o),
(77,-14,o),
(219,-14,cs),
(310,-14,o),
(399,23,o),
(457,102,cs),
(463,110,o),
(466,119,o),
(466,130,cs),
(466,157,o),
(445,178,o),
(418,178,cs),
(400,178,o),
(384,168,o),
(376,152,cs),
(347,96,o),
(296,66,o),
(240,66,cs),
(168,66,o),
(119,108,o),
(137,235,c),
(467,235,ls),
(481,235,o),
(494,242,o),
(504,251,cs),
(525,269,o),
(532,289,o),
(535,316,cs)
);
},
{
closed = 1;
nodes = (
(405,465,o),
(436,410,o),
(423,312,c),
(154,312,l),
(188,414,o),
(253,465,o),
(328,465,cs)
);
}
);
width = 562;
}
);
note = egrave;
unicode = 232;
},
{
glyphname = emacron;
kernLeft = c;
kernRight = ae;
lastChange = "2022-11-29 13:44:05 +0000";
layers = (
{
hints = (
{
horizontal = 1;
place = (-70, 24);
place = (-70, 24);
type = Stem;
},
{
horizontal = 1;
place = (179, 21);
place = (179, 21);
type = Stem;
},
{
horizontal = 1;
place = (409, 24);
place = (409, 24);
type = Stem;
},
{
horizontal = 1;
place = (544, 7);
place = (544, 7);
type = Stem;
},
{
place = (-27, 59);
place = (-27, 59);
type = Stem;
},
{
place = (100, 199);
place = (100, 199);
type = Stem;
},
{
place = (357, 57);
place = (357, 57);
type = Stem;
}
);
layerId = m01;
shapes = (
{
closed = 1;
nodes = (
(462,600,ls),
(479,600,o),
(494,614,o),
(494,632,cs),
(494,649,o),
(479,663,o),
(462,663,cs),
(261,663,ls),
(244,663,o),
(229,649,o),
(229,631,cs),
(229,614,o),
(244,600,o),
(261,600,cs)
);
},
{
closed = 1;
nodes = (
(551,448,o),
(490,545,o),
(349,545,cs),
(196,545,o),
(64,432,o),
(29,264,cs),
(-11,76,o),
(77,-14,o),
(219,-14,cs),
(310,-14,o),
(399,23,o),
(457,102,cs),
(463,110,o),
(466,119,o),
(466,130,cs),
(466,157,o),
(445,178,o),
(418,178,cs),
(400,178,o),
(384,168,o),
(376,152,cs),
(347,96,o),
(296,66,o),
(240,66,cs),
(168,66,o),
(119,108,o),
(137,235,c),
(467,235,ls),
(481,235,o),
(494,242,o),
(504,251,cs),
(525,269,o),
(532,289,o),
(535,316,cs)
);
},
{
closed = 1;
nodes = (
(405,465,o),
(436,410,o),
(423,312,c),
(154,312,l),
(188,414,o),
(253,465,o),
(328,465,cs)
);
}
);
width = 562;
}
);
note = emacron;
unicode = 275;
},
{
glyphname = eogonek;
kernLeft = c;
kernRight = ae;
lastChange = "2022-11-29 13:44:05 +0000";
layers = (
{
hints = (
{
horizontal = 1;
place = (-279, 10);
place = (-279, 10);
type = Stem;
},
{
horizontal = 1;
place = (-69, 23);
place = (-69, 23);
type = Stem;
},
{
horizontal = 1;
place = (179, 21);
place = (179, 21);
type = Stem;
},
{
horizontal = 1;
place = (409, 24);
place = (409, 24);
type = Stem;
},
{
place = (-27, 59);
place = (-27, 59);
type = Stem;
},
{
place = (130, 46);
place = (130, 46);
type = Stem;
},
{
place = (357, 57);
place = (357, 57);
type = Stem;
}
);
layerId = m01;
shapes = (
{
closed = 1;
nodes = (
(551,448,o),
(490,545,o),
(349,545,cs),
(196,545,o),
(64,432,o),
(29,264,cs),
(-9,88,o),
(66,-2,o),
(193,-13,c),
(150,-41,o),
(112,-84,o),
(100,-138,cs),
(87,-201,o),
(122,-223,o),
(180,-223,cs),
(217,-223,o),
(251,-214,o),
(283,-199,cs),
(291,-195,o),
(296,-186,o),
(296,-177,cs),
(296,-161,o),
(281,-150,o),
(266,-154,cs),
(258,-156,o),
(250,-157,o),
(242,-157,cs),
(215,-157,o),
(201,-144,o),
(209,-107,cs),
(219,-58,o),
(255,-20,o),
(294,-5,c),
(300,-4,o),
(306,-2,o),
(314,0,cs),
(369,17,o),
(420,50,o),
(457,101,cs),
(463,109,o),
(467,119,o),
(467,130,cs),
(467,156,o),
(445,178,o),
(419,178,cs),
(400,178,o),
(384,167,o),
(376,152,cs),
(347,96,o),
(296,66,o),
(240,66,cs),
(168,66,o),
(119,108,o),
(137,235,c),
(467,235,ls),
(481,235,o),
(494,242,o),
(504,251,cs),
(525,269,o),
(532,289,o),
(535,316,cs)
);
},
{
closed = 1;
nodes = (
(405,465,o),
(436,410,o),
(423,312,c),
(154,312,l),
(188,414,o),
(253,465,o),
(328,465,cs)
);
}
);
width = 562;
}
);
note = eogonek;
unicode = 281;
},
{
glyphname = f;
lastChange = "2022-11-29 13:34:19 +0000";
layers = (
{
hints = (
{
horizontal = 1;
place = (-56, 21);
target = up;
type = BottomGhost;
},
{
horizontal = 1;
place = (394, 21);
place = (394, 21);
type = Stem;
},
{
horizontal = 1;
place = (613, 22);
place = (613, 22);
type = Stem;
},
{
place = (22, 53);
place = (22, 53);
type = Stem;
}
);
layerId = m01;
shapes = (
{
closed = 1;
nodes = (
(277,654,o),
(312,671,o),
(361,669,cs),
(384,668,o),
(405,687,o),
(405,711,cs),
(405,734,o),
(387,753,o),
(365,754,cs),
(348,754,ls),
(248,754,o),
(183,706,o),
(156,624,cs),
(150,606,o),
(145,580,o),
(141,561,cs),
(134,527,l),
(102,527,ls),
(81,527,o),
(64,510,o),
(64,488,cs),
(64,467,o),
(81,450,o),
(102,450,cs),
(117,450,l),
(34,59,ls),
(27,25,o),
(53,-6,o),
(87,-6,cs),
(112,-6,o),
(134,12,o),
(139,37,cs),
(226,450,l),
(310,450,ls),
(331,450,o),
(348,467,o),
(348,488,cs),
(348,510,o),
(331,527,o),
(310,527,cs),
(243,527,l),
(251,567,ls),
(254,582,o),
(260,604,o),
(265,618,cs)
);
}
);
width = 312;
}
);
note = f;
unicode = 102;
},
{
glyphname = g;
kernLeft = c;
lastChange = "2022-11-29 13:44:05 +0000";
layers = (
{
hints = (
{
horizontal = 1;
place = (-269, 27);
place = (-269, 27);
type = Stem;
},
{
horizontal = 1;
place = (-65, 24);
place = (-65, 24);
type = Stem;
},
{
horizontal = 1;
place = (475, -20);
target = down;
type = TopGhost;
},
{
place = (-27, 60);
place = (-27, 60);
type = Stem;
},
{
place = (391, 54);
place = (391, 54);
type = Stem;
},
{
horizontal = 1;
place = (409, 24);
place = (409, 24);
type = Stem;
},
{
place = (-11, 52);
place = (-11, 52);
type = Stem;
}
);
layerId = m01;
shapes = (
{
closed = 1;
nodes = (
(601,471,ls),
(608,505,o),
(583,536,o),
(549,536,cs),
(523,536,o),
(501,519,o),
(496,494,cs),
(488,459,l),
(477,486,ls),
(469,506,o),
(458,521,o),
(432,531,cs),
(407,540,o),
(375,545,o),
(346,545,cs),
(209,545,o),
(69,453,o),
(28,259,cs),
(-5,103,o),
(60,-9,o),
(213,-9,cs),
(253,-9,o),
(293,0,o),
(326,14,cs),
(350,25,o),
(364,38,o),
(381,57,cs),
(410,89,l),
(407,78,ls),
(403,59,o),
(399,40,o),
(393,17,cs),
(369,-78,o),
(303,-130,o),
(207,-130,cs),
(145,-130,o),
(107,-108,o),
(94,-73,cs),
(84,-46,o),
(85,-21,o),
(59,-9,cs),
(50,-5,o),
(41,-3,o),
(31,-3,cs),
(20,-3,o),
(10,-7,o),
(2,-13,cs),
(-15,-27,o),
(-22,-46,o),
(-20,-74,cs),
(-14,-164,o),
(54,-213,o),
(188,-213,cs),
(348,-213,o),
(466,-132,o),
(506,29,cs),
(513,58,o),
(522,99,o),
(529,132,cs)
);
},
{
closed = 1;
nodes = (
(157,71,o),
(121,154,o),
(146,269,cs),
(174,401,o),
(254,465,o),
(341,465,cs),
(412,465,o),
(479,417,o),
(452,288,cs),
(447,265,ls),
(417,123,o),
(335,71,o),
(252,71,cs)
);
}
);
width = 629;
}
);
note = g;
unicode = 103;
},
